<?xml version="1.0" encoding="UTF-8"?>
<svg id="Layer_2" data-name="Layer 2" xmlns="http://www.w3.org/2000/svg" xmlns:xlink="http://www.w3.org/1999/xlink" viewBox="0 0 315.07 216.61">
  <defs>
    <style>
      .cls-1 {
        clip-path: url(#clippath);
      }

      .cls-2 {
        fill: none;
      }

      .cls-2, .cls-3 {
        stroke-width: 0px;
      }

      .cls-4, .cls-3 {
        fill: #f0f4f8;
      }

      .cls-5 {
        clip-path: url(#clippath-1);
      }
    </style>
    <clipPath id="clippath">
      <rect class="cls-2" width="315.07" height="216.61"/>
    </clipPath>
    <clipPath id="clippath-1">
      <path class="cls-3" d="m134.59,172.18h160.57c3.42-4.72,6.47-9.71,9.12-14.94.05-.1.09-.21.15-.3,1.11-2.21,2.14-4.47,3.09-6.76,2.02-4.82,3.69-9.81,4.99-14.94H113.26l-5.33,9.23-3.29,5.71h-11.94l-3.29-5.71-5.33-9.23h-21.32l-10.67,18.46,5.33,9.23,5.33,9.24h21.32l5.33-9.24,3.29-5.7h11.94l3.29,5.7,5.33,9.24h21.34Zm-24.42-105.1l3.29,5.71,5.33,9.23h193.71c-1.3-5.13-2.97-10.12-4.99-14.94-.95-2.29-1.98-4.55-3.09-6.76-.06-.1-.1-.21-.16-.3-2.63-5.24-5.69-10.23-9.11-14.94H118.79l-5.33,9.23-3.29,5.71h-11.94l-3.29-5.71-5.32-9.23h-21.33l-5.33,9.23-5.32,9.23,5.32,9.24,5.33,9.23h21.33l5.32-9.23,3.29-5.71h11.94ZM261.99,14.94C245.88,5.45,227.14,0,207.19,0h-40.39l-5.33,9.23-3.29,5.71h-11.94l-8.63-14.94h-21.32l-5.33,9.23-3.29,5.7-2.03,3.53,2.03,3.53,3.29,5.7,5.33,9.24h21.32l5.33-9.24,3.29-5.7h11.94l3.29,5.7,5.33,9.24h121.83c-4.85-5.5-10.24-10.52-16.1-14.94-3.37-2.55-6.88-4.91-10.53-7.07h-.01v.02ZM42.68,108.63l-10.67-18.46H10.69l-5.33,9.23L.03,108.63l5.32,9.23,5.33,9.24h21.32l5.33-9.24,5.33-9.23h.02Zm24.11,71.7H12.33l-5.33,9.23-5.32,9.23,5.32,9.23,5.33,9.24h54.46l5.33-9.24,3.29-5.7h11.93l3.29,5.7,5.33,9.24h111.21c19.95,0,38.69-5.46,54.8-14.94,3.66-2.15,7.17-4.51,10.54-7.05,5.86-4.43,11.25-9.45,16.1-14.94H95.98l-5.33,9.23-3.29,5.71h-11.93l-3.29-5.71-5.33-9.23h-.02Zm74.4-90.16h-51.46l-5.33,9.23-3.29,5.71-2.04,3.52,2.04,3.53,3.29,5.7,5.33,9.24h51.46l5.33-9.24,3.29-5.7h11.94l-2.04-3.53,5.33,9.23,5.33,9.24h143.85c.84-4.88,1.36-9.87,1.53-14.94.03-1.17.05-2.35.05-3.53s-.01-2.35-.05-3.52c-.17-5.07-.68-10.06-1.53-14.94h-143.85l-10.67,18.46,2.04-3.52h-11.94l-3.29-5.71-5.33-9.23h0Z"/>
    </clipPath>
  </defs>
  <g id="Layer_2-2" data-name="Layer 2">
    <g class="cls-1">
      <g>
        <path class="cls-4" d="m134.59,172.18h160.57c3.42-4.72,6.47-9.71,9.12-14.94.05-.1.09-.21.15-.3,1.11-2.21,2.14-4.47,3.09-6.76,2.02-4.82,3.69-9.81,4.99-14.94H113.26l-5.33,9.23-3.29,5.71h-11.94l-3.29-5.71-5.33-9.23h-21.32l-10.67,18.46,5.33,9.23,5.33,9.24h21.32l5.33-9.24,3.29-5.7h11.94l3.29,5.7,5.33,9.24h21.34Zm-24.42-105.1l3.29,5.71,5.33,9.23h193.71c-1.3-5.13-2.97-10.12-4.99-14.94-.95-2.29-1.98-4.55-3.09-6.76-.06-.1-.1-.21-.16-.3-2.63-5.24-5.69-10.23-9.11-14.94H118.79l-5.33,9.23-3.29,5.71h-11.94l-3.29-5.71-5.32-9.23h-21.33l-5.33,9.23-5.32,9.23,5.32,9.24,5.33,9.23h21.33l5.32-9.23,3.29-5.71h11.94ZM261.99,14.94C245.88,5.45,227.14,0,207.19,0h-40.39l-5.33,9.23-3.29,5.71h-11.94l-8.63-14.94h-21.32l-5.33,9.23-3.29,5.7-2.03,3.53,2.03,3.53,3.29,5.7,5.33,9.24h21.32l5.33-9.24,3.29-5.7h11.94l3.29,5.7,5.33,9.24h121.83c-4.85-5.5-10.24-10.52-16.1-14.94-3.37-2.55-6.88-4.91-10.53-7.07h-.01v.02ZM42.68,108.63l-10.67-18.46H10.69l-5.33,9.23L.03,108.63l5.32,9.23,5.33,9.24h21.32l5.33-9.24,5.33-9.23h.02Zm24.11,71.7H12.33l-5.33,9.23-5.32,9.23,5.32,9.23,5.33,9.24h54.46l5.33-9.24,3.29-5.7h11.93l3.29,5.7,5.33,9.24h111.21c19.95,0,38.69-5.46,54.8-14.94,3.66-2.15,7.17-4.51,10.54-7.05,5.86-4.43,11.25-9.45,16.1-14.94H95.98l-5.33,9.23-3.29,5.71h-11.93l-3.29-5.71-5.33-9.23h-.02Zm74.4-90.16h-51.46l-5.33,9.23-3.29,5.71-2.04,3.52,2.04,3.53,3.29,5.7,5.33,9.24h51.46l5.33-9.24,3.29-5.7h11.94l-2.04-3.53,5.33,9.23,5.33,9.24h143.85c.84-4.88,1.36-9.87,1.53-14.94.03-1.17.05-2.35.05-3.53s-.01-2.35-.05-3.52c-.17-5.07-.68-10.06-1.53-14.94h-143.85l-10.67,18.46,2.04-3.52h-11.94l-3.29-5.71-5.33-9.23h0Z"/>
        <g class="cls-5">
          <path class="cls-3" d="m.03,0v216.61h315.04V0H.03Z"/>
        </g>
      </g>
    </g>
  </g>
</svg>