<?xml version="1.0" encoding="UTF-8"?>
<svg id="Layer_2" data-name="Layer 2" xmlns="http://www.w3.org/2000/svg" viewBox="0 0 359.23 359.19">
  <defs>
    <style>
      .cls-1 {
        fill: #f7fafc;
      }

      .cls-1, .cls-2 {
        stroke-width: 0px;
      }

      .cls-2 {
        fill: #00e676;
      }
    </style>
  </defs>
  <g id="Layer_1-2" data-name="Layer 1">
    <path class="cls-1" d="m359.2,183.32c-2.27,98.41-82.67,177.51-182.64,175.85C77.34,357.53-2.06,276.17.04,175.75,2.12,76.43,83.91-2.23,183.89.05c98.28,2.25,177.09,83.64,175.31,183.26h0Zm-96.38,127.5c1.37-.71,1.8-.89,2.19-1.14,49.89-31.16,78.65-96.19,68.4-154.24-8.47-47.95-33.17-84.94-74.97-109.95-27.1-16.21-56.69-23.98-88.35-20.78-39.8,4.02-68.87,44.14-61.27,83.52,6.76,35.05,35.15,58.85,70.97,59.38,16.38.24,31.75,4.12,46.17,11.95,35.08,19.04,54.72,59.48,48.15,99.04-1.83,11.05-5.5,21.41-11.28,32.21h0Zm-83.09-77.31c-16.57-.04-30.06,13.36-30.07,29.88-.02,16.4,13.29,29.89,29.6,29.99,16.74.11,30.29-13.35,30.27-30.09,0-16.32-13.45-29.75-29.79-29.79h-.01Z"/>
    <path class="cls-2" d="m262.83,310.83c5.78-10.8,9.45-21.16,11.28-32.21,6.57-39.56-13.07-80-48.15-99.04-14.42-7.83-29.79-11.71-46.17-11.95-35.82-.53-64.21-24.33-70.97-59.38-7.6-39.39,21.47-79.5,61.27-83.52,31.66-3.2,61.25,4.57,88.35,20.78,41.8,25,66.49,61.99,74.97,109.95,10.26,58.05-18.51,123.08-68.4,154.24-.39.24-.82.43-2.19,1.14h0Zm-53.3-215.38c-.19-16.52-13.77-29.74-30.38-29.6-16.44.14-29.7,13.84-29.48,30.46.21,16.44,13.92,29.63,30.55,29.4,16.27-.23,29.5-13.89,29.31-30.27h0Z"/>
    <path class="cls-2" d="m179.73,233.52c16.35.04,29.78,13.47,29.79,29.79,0,16.73-13.53,30.19-30.27,30.09-16.31-.11-29.62-13.59-29.6-29.99.02-16.52,13.51-29.93,30.07-29.88h.01Zm5.82,30c.04-3.25-2.64-5.98-5.89-6.02s-5.98,2.63-6.02,5.89c-.04,3.25,2.64,5.99,5.89,6.03,3.23.04,5.99-2.66,6.02-5.9Z"/>
    <path class="cls-1" d="m209.52,95.45c.19,16.37-13.05,30.04-29.31,30.27-16.63.23-30.34-12.95-30.55-29.4-.21-16.63,13.04-30.32,29.48-30.46,16.61-.15,30.19,13.08,30.38,29.6h0Zm-23.97.14c-.1-3.21-2.85-5.83-6.06-5.77-3.21.05-5.87,2.76-5.86,5.97,0,3.37,2.9,6.13,6.24,5.96,3.21-.17,5.78-2.95,5.68-6.16Z"/>
    <path class="cls-1" d="m185.55,263.52c-.04,3.24-2.79,5.94-6.02,5.9-3.25-.04-5.93-2.78-5.89-6.03.04-3.26,2.77-5.93,6.02-5.89s5.93,2.77,5.89,6.02Z"/>
    <path class="cls-2" d="m185.55,95.58c.1,3.2-2.47,5.99-5.68,6.16-3.34.17-6.24-2.59-6.24-5.96s2.65-5.92,5.86-5.97,5.96,2.57,6.06,5.77Z"/>
  </g>
</svg>