<?xml version="1.0" encoding="UTF-8"?>
<svg id="Layer_1" data-name="Layer 1" xmlns="http://www.w3.org/2000/svg" xmlns:xlink="http://www.w3.org/1999/xlink" viewBox="0 0 333.8 276.6">
  <defs>
    <style>
      .cls-1 {
        clip-path: url(#clippath);
      }

      .cls-2 {
        fill: none;
      }

      .cls-2, .cls-3 {
        stroke-width: 0px;
      }

      .cls-4 {
        clip-path: url(#clippath-1);
      }

      .cls-3 {
        fill: #fff;
      }
    </style>
    <clipPath id="clippath">
      <rect class="cls-2" x="53.22" width="226.54" height="155.74"/>
    </clipPath>
    <clipPath id="clippath-1">
      <path class="cls-2" d="m149.98,123.8h115.45c2.45-3.39,4.65-6.98,6.55-10.74.04-.07.07-.14.11-.21.8-1.59,1.54-3.21,2.22-4.86,1.45-3.46,2.65-7.05,3.59-10.74h-143.25l-3.83,6.64-2.37,4.1h-8.58l-2.37-4.1-3.83-6.64h-15.33l-3.84,6.64-3.83,6.64,3.83,6.64,3.84,6.64h15.33l3.83-6.64,2.37-4.1h8.58l2.37,4.1,3.83,6.64h15.33Zm-17.56-75.57l2.37,4.1,3.83,6.64h139.28c-.94-3.69-2.14-7.28-3.59-10.74-.68-1.65-1.43-3.27-2.22-4.86-.04-.07-.07-.14-.11-.21-1.9-3.76-4.09-7.35-6.55-10.74h-126.8l-3.83,6.64-2.37,4.1h-8.58l-2.37-4.1-3.83-6.64h-15.33l-3.83,6.64-3.83,6.64,7.67,13.28h15.33l3.83-6.64,2.37-4.1h8.58ZM241.59,10.74c-11.59-6.82-25.06-10.74-39.4-10.74h-29.04l-3.84,6.64-2.36,4.1h-8.58l-6.2-10.74h-15.33l-3.84,6.64-2.36,4.1-1.46,2.54,1.46,2.54,2.36,4.1,3.84,6.64h15.33l3.83-6.64,2.37-4.1h8.58l2.36,4.1,3.84,6.64h87.59c-3.48-3.95-7.36-7.56-11.57-10.74-2.42-1.83-4.95-3.53-7.58-5.07h0ZM83.91,78.1l-3.83-6.64-3.83-6.64h-15.33l-3.83,6.64-3.83,6.64,7.67,13.28h15.33l7.67-13.28Zm17.34,51.55h-39.16l-3.83,6.64-3.83,6.65,3.83,6.64,3.83,6.64h39.16l3.83-6.64,2.36-4.1h8.58l2.37,4.1,3.83,6.64h79.96c14.35,0,27.82-3.92,39.41-10.74,2.63-1.55,5.16-3.24,7.57-5.08,4.21-3.19,8.09-6.79,11.58-10.74H122.23l-3.83,6.64-2.37,4.1h-8.58l-2.36-4.1-3.83-6.64Zm53.5-64.83h-37.01l-3.83,6.64-2.37,4.1-1.46,2.54,1.46,2.54,2.37,4.1,3.83,6.64h37.01l3.83-6.64,2.36-4.1h8.59l-1.47-2.54,3.83,6.64,3.83,6.64h103.43c.61-3.51.98-7.09,1.1-10.74.03-.84.04-1.69.04-2.54s-.01-1.7-.04-2.54c-.12-3.65-.49-7.23-1.1-10.74h-103.43l-7.67,13.28,1.47-2.54h-8.59l-2.36-4.1-3.83-6.64Z"/>
    </clipPath>
  </defs>
  <g class="cls-1">
    <g class="cls-4">
      <path class="cls-3" d="m53.24,0v155.74h226.51V0H53.24Z"/>
    </g>
  </g>
  <path class="cls-3" d="m.42,186.86h16.65c5.53,0,8.29,2.33,8.29,7v22.23c0,4.67-2.77,7-8.29,7H.42v-36.23Zm15.06,28.5v-20.77c0-.82-.47-1.23-1.4-1.23h-3.79v23.25h3.79c.93,0,1.4-.42,1.4-1.25Z"/>
  <path class="cls-3" d="m52.66,186.86h9.88v29.23c0,4.67-2.77,7-8.29,7h-8.35c-5.53,0-8.29-2.33-8.29-7v-29.23h9.88v27.94c0,.83.47,1.25,1.42,1.25h2.38c.93,0,1.4-.42,1.4-1.25v-27.94Z"/>
  <path class="cls-3" d="m75.51,186.86h16.65c5.53,0,8.29,2.33,8.29,7v22.23c0,4.67-2.77,7-8.29,7h-16.65v-36.23Zm15.06,28.5v-20.77c0-.82-.47-1.23-1.4-1.23h-3.79v23.25h3.79c.93,0,1.4-.42,1.4-1.25Z"/>
  <path class="cls-3" d="m122.56,216.05h12.35v7.04h-22.23v-36.23h21.73v7.06h-11.85v7.4h10.21v7.04h-10.21v7.69Z"/>
  <path class="cls-3" d="m180.5,186.86h9.77l-7.67,36.23h-11.35l-4-21.6-4,21.6h-11.35l-7.67-36.23h10.27l3.04,24.38,4.85-24.38h9.65l4.85,24.38,3.6-24.38Z"/>
  <path class="cls-3" d="m209.11,186.86h8.35c5.53,0,8.29,2.33,8.29,7v22.23c0,4.67-2.77,7-8.29,7h-8.35c-5.53,0-8.29-2.33-8.29-7v-22.23c0-4.67,2.76-7,8.29-7Zm6.77,27.94v-19.63c0-.83-.47-1.25-1.4-1.25h-2.38c-.95,0-1.42.42-1.42,1.25v19.63c0,.83.47,1.25,1.42,1.25h2.38c.93,0,1.4-.42,1.4-1.25Z"/>
  <path class="cls-3" d="m247.87,210.24v12.85h-9.88v-36.23h16.77c5.53,0,8.29,2.33,8.29,7v9.38c0,3.57-1.62,5.77-4.85,6.6l6.65,13.25h-10.6l-5.75-12.85h-.63Zm3.9-16.31h-3.9v9.58h3.9c.94,0,1.42-.41,1.42-1.23v-7.1c0-.83-.47-1.25-1.42-1.25Z"/>
  <path class="cls-3" d="m296.72,186.86v7.06h-6.98v29.17h-9.88v-29.17h-6.94v-7.06h23.79Z"/>
  <path class="cls-3" d="m323.97,186.86h9.71v36.23h-9.71v-14.33h-7.1v14.33h-9.71v-36.23h9.71v14.85h7.1v-14.85Z"/>
  <path class="cls-3" d="m3.83,276.08l.29-.02,1,.02.23-.13.15-.27.1-.17.1-.4.21-.54.38-.69.15-.44.1-.25.06-.27.27-.46.17-.4h.98l1.6.02.56.08.81.04.02.29v1.69l-.02.38.02.35.04.65.08.38.15.1h.54l.46.02.38-.02.25-.04.44.04h.27l.81-.04h.5l.29.04.25-.04c.15,0,.25.04.4,0,.19-.1.15-.44.1-.58v-.75l-.02-.79v-.33l-.04-.29.04-.5v-.54l-.04-.27-.04-.46v-.23l-.06-1.38.02-.25-.02-.5.02-.54-.02-.54v-.25l-.04-1.67v-1.08l-.04-.29-.04-.44v-1.42l-.06-.4-.04-.58v-.21l-.04-.48.04-.21-.04-.5v-.73l-.06-.5v-.81l.04-.25-.04-.54v-.5l-.06-.73-.04-.48v-.5l-.04-1.29v-.67l-.06-.21v-.79l-.13-1.56-.25-.19-.17-.06h-.58l-.33.04-.25-.08h-.33l-.69.04h-.56l-.38.04-.69-.04h-.35l-.25.04-.15.4-.13.21-.1.25-.31.67-.27.46-.21.65-.06.19-.15.21-.23.42-.06.25-.08.21-.1.23-.06.25-.33.65-.1.25-.1.38-.23.31-.1.23-.19.46-.29.77-.15.21-.17.25-.13.52-.21.46-.06.19-.13.46-.17.27-.13.46-.1.23-.21.4-.19.6-.25.48-.1.29-.29,1-.1.23-.19.5-.1.21-.1.27-.04.21-.23.5-.06.27-.23.42-.17.29-.15.58-.25.5-.13.27-.17.46-.1.23-.04.25-.08.21-.17.44-.19.25-.06.23-.29.65-.15.46-.4.88-.19.44-.23.44-.35,1.08-.29.46-.21.44-.04.23-.06.25.06.29.33.06,2.63.04.27.04.54.02Zm5.96-8.71l-.31-.04-.4-.04h-.29l-.25-.21.1-.25.06-.33.08-.25.17-.63.15-.25.19-.54.04-.25.21-.79.1-.33.13-.25.1-.33.15-.25.02-.25.15-.35.15-.29.19-.58.1-.35.19-.58.15-.48.29-.1.04.83-.04,1.31-.04,1.38.04.85-.08.29v.63l-.02.25v.94l-.04.29.04.29-.04.5-.23.19h-1.08Z"/>
  <path class="cls-3" d="m33,276.08h.94l.4-.1.1-.31.04-.29.1-.48.08-.5.1-.48.15-.85.1-.42v-.25l.06-.46.08-.52.1-.5v-.29l.15-.46.04-.29.1-.54-.04-.4.19-.38v-.5l.04-.19.06-.5v-.29l.15-.5v-.29l.15-.52.08-.42.06-.48.1-.48v-.27l.1-.27.15-.5.19-1.08.1-.35.08-.48v-.25l.04-.29.02-.25v-.33l.1-.31.13-.52.02-.17.13-.48.1-.44.06-.46.04-.27.04-.44.04-.25.06-.44.06-.21.08-.4.19-.94.02-.23v-.25l.04-.21v-.29l.15-.33.08-.5.1-.19v-.31l.1-.15-.04-.23.04-.4.06-.1v-.48l.04-.21-.15-.35-.4-.13-.25.04h-1.92l-.25.04h-.52l-.31-.04-.54.04-.25.04-.23.15-.25.1-.25.35-.04.25-.06.23-.08.54-.15.4-.06.4-.04.44-.08.21-.02.23-.1.46-.08.52-.06.17-.04.48-.04.29.04.25-.15.46-.04.27-.1.46-.04.23-.15.42.04.27-.04.21-.06.5-.1.27v.5l-.13.75-.17.52-.13.46-.06.44v.48l-.15.29-.06.5v.25l-.15.5v.52l-.08.5-.04.21-.02.27-.08.25v.21l-.06.54-.25.79.02.27-.06.25-.04.21-.06.25v.25l-.08.44-.06.33-.13.33-.06.31-.1.4-.1.67.02.21-.15.48-.02.25-.08.29-.04.25-.1.54-.04.29-.06.5-.06.25-.04.54-.19.52.04.54.29.25.29.06.29-.02.25.02.4.04.25-.04h.29l.5.08h1.06l.25.02Z"/>
  <path class="cls-3" d="m70.49,276.08l.29-.02,1,.02.23-.13.15-.27.1-.17.1-.4.21-.54.38-.69.15-.44.1-.25.06-.27.27-.46.17-.4h.98l1.6.02.56.08.81.04.02.29v1.69l-.02.38.02.35.04.65.08.38.15.1h.54l.46.02.38-.02.25-.04.44.04h.27l.81-.04h.5l.29.04.25-.04c.15,0,.25.04.4,0,.19-.1.15-.44.1-.58v-.75l-.02-.79v-.33l-.04-.29.04-.5v-.54l-.04-.27-.04-.46v-.23l-.06-1.38.02-.25-.02-.5.02-.54-.02-.54v-.25l-.04-1.67v-1.08l-.04-.29-.04-.44v-1.42l-.06-.4-.04-.58v-.21l-.04-.48.04-.21-.04-.5v-.73l-.06-.5v-.81l.04-.25-.04-.54v-.5l-.06-.73-.04-.48v-.5l-.04-1.29v-.67l-.06-.21v-.79l-.13-1.56-.25-.19-.17-.06h-.58l-.33.04-.25-.08h-.33l-.69.04h-.56l-.38.04-.69-.04h-.35l-.25.04-.15.4-.13.21-.1.25-.31.67-.27.46-.21.65-.06.19-.15.21-.23.42-.06.25-.08.21-.1.23-.06.25-.33.65-.1.25-.1.38-.23.31-.1.23-.19.46-.29.77-.15.21-.17.25-.13.52-.21.46-.06.19-.13.46-.17.27-.13.46-.1.23-.21.4-.19.6-.25.48-.1.29-.29,1-.1.23-.19.5-.1.21-.1.27-.04.21-.23.5-.06.27-.23.42-.17.29-.15.58-.25.5-.13.27-.17.46-.1.23-.04.25-.08.21-.17.44-.19.25-.06.23-.29.65-.15.46-.4.88-.19.44-.23.44-.35,1.08-.29.46-.21.44-.04.23-.06.25.06.29.33.06,2.63.04.27.04.54.02Zm5.96-8.71l-.31-.04-.4-.04h-.29l-.25-.21.1-.25.06-.33.08-.25.17-.63.15-.25.19-.54.04-.25.21-.79.1-.33.13-.25.1-.33.15-.25.02-.25.15-.35.15-.29.19-.58.1-.35.19-.58.15-.48.29-.1.04.83-.04,1.31-.04,1.38.04.85-.08.29v.63l-.02.25v.94l-.04.29.04.29-.04.5-.23.19h-1.08Z"/>
  <path class="cls-3" d="m102.5,276.23h.73l.54-.02h.83l.71-.08.23-.06.31-.08.44-.1.23-.06.58-.23.17-.15.44-.17.29-.19.33-.19.27-.35.33-.25.23-.33.13-.33.19-.25.15-.25.23-.5.13-.23.27-.46.1-.48.19-.21.1-.63.15-.46.15-.44.06-.25.08-.23v-.25l.06-.33.1-.4.08-.25v-.21l.1-.48.15-.44v-.06l.1-.52.04-.25.15-.5.1-.48.06-.42.04-.48.15-.29.08-.5v-.25l.15-.52.02-.5.08-.5.04-.23.1-.5v-.21l.1-.56.25-.79-.04-.25.08-.25.04-.21.06-.27v-.25l.1-.44.08-.31.1-.33.06-.33.13-.4v-.21l.15-.44-.04-.21.15-.48.04-.25.06-.29.04-.25.15-.5.02-.29.08-.52.06-.29.04-.54.23-.5-.04-.54-.29-.29-.29-.04-.33.04-.25.04-.35-.04-.25.04h-.29l-.25-.04h-.27l-1.04.04-.25-.04h-.25l-1.08.04-.13.25-.02.29-.1.46-.13.52-.1.46-.04.23-.02.44-.04.21-.19.4.04.25-.08.48-.06.5-.1.52-.04.27-.06.52-.04.29-.15.5.04.4-.23.35v.52l-.04.17-.06.52v.29l-.15.5-.04.29-.15.5-.06.44-.1.48-.08.46v.29l-.17.5-.08.27-.04.42-.15.67-.06.35-.08.48-.02.25-.08.29-.06.25-.04.31-.06.33-.08.23-.04.35-.06.25-.1.5-.19.73-.08.23-.06.31-.19.38-.25.56-.1.23-.21.29-.38.29-.83.1-.75-.1-.4-.13-.4-.46-.04-.44v-.4l-.04-.58.04-.25.04-.23.02-.31.1-.88.13-.46.02-.52.13-.73.17-1.29.08-.44.15-.46v-.48l.1-.44.06-.21.08-.25.04-.29.02-.33.15-.33-.06-.46.04-.23.17-.5v-.25l.08-.29.02-.25.04-.38.1-.25.04-.21.08-.54.1-.54.04-.29.17-.5.04-.27v-.35l.04-.29.06-.46.15-.44v-.25l.08-.23.02-.25.08-.29.06-.33.08-.25-.04-.5.08-.25.06-.23v-.5l-.04-.54-.31-.25-.58-.04-.33-.04-.85.08-1.52-.04-.33.04h-.19l-.6.04-.23.06-.06.29-.15.5-.08.52-.06.35-.08.19-.17.46-.1,1.02-.08.21v.25l-.1.52v.29l-.04.29-.1.5-.04.29-.04.25-.17.46-.04.23v.25l-.06.48-.08.21-.1,1.02-.1.21-.04.5v.29l-.15.52-.1.46-.04.52-.15.46v.48l-.06.25-.13.44-.02.25.02.25-.1.44-.04.21-.02.25-.15.44v.48l-.08.35-.06.44-.04.54-.04.48-.15.98-.06.31-.04,1.23-.04.23.15,1.23.04.5.15.58.29.5.29.58.04.1.17.29.19.23.21.25.38.35.71.44.23.1.25.1.63.23.15.06.25.08,1.48.17Z"/>
  <path class="cls-3" d="m128.48,276.13l.44-.1h3.15l.44-.19.08-.21.1-.5.06-.52.23-1,.17-.81-.02-.27.1-.52.06-.29.19-.75.1-.48.04-.25.15-.48.1-.56.1-.52-.02-.25.02-.21.04-.25.15-.44.04-.25.06-.23.04-.21v-.38l.08-.31.1-.54.1-.52v-.21l.06-.21.04-.52.15-.25.1-.44.04-.46v-.25l.1-.23.1-.5.08-.25.06-.54.19-.44v-.25l.04-.23.04-.44v-.21l.15-.48.17-.5-.06-.19.15-.29.15-.65.02-.25.08-.48.06-.21v-.21l.13-.27-.04-.21.06-.25.33-.04,1.52.04h.35l.33-.04h.44l.31.04.38-.04.15-.33.02-.5.08-.25.15-.48.04-.42.02-.23.08-.25.06-.44v-.21l.08-.25.02-.23v-.25l.08-.29.04-.25v-.23l-.08-.27-.31-.08-.52-.04h-2.23l-.33-.02-.77.02-.54-.02-2.31.02h-.79l-.25-.02h-2.69l-.25.02h-.25l-.19-.02h-.94l-.25.02-.33.27-.17.4-.04.21v.5l-.1.23-.15.46-.04.52-.06.21-.15.5.02.27v.27l-.1.29-.06.44.1.33.31.1h.29l.38.04h.31l.27-.04.5.04h1.96l-.04.58-.08.54-.06.25-.1.46v.23l-.04.25v.21l-.04.23-.17.58-.08.25-.04.25v.29l-.06.19v.35l-.19.4.04.25-.1.54-.08.23v.25l-.15.21-.06.25v.33l-.1.35v.52l-.08.21-.19.44.08.25-.08.25-.13.54-.19.52-.08.25-.02.25.06.35-.19.38-.02.5-.08.21-.06.48-.04.25-.06.25-.13.54-.1.44v.29l-.19.77.04.29-.04.25-.17.5v.25l-.04.5-.06.23-.04.54-.08.25-.25.77-.04.75-.06.54.33.29h.25l.31.1Z"/>
  <path class="cls-3" d="m157.82,276.6l.81-.1.4-.13.25-.02.5-.13.29-.06.25-.04.83-.31.15-.13.44-.29.44-.31.17-.23.23-.17.44-.44.06-.23.19-.21.15-.21.31-.48.19-.25.29-.65.25-.52.04-.35.19-.25.1-.4v-.25l.1-.44.19-.4.02-.42.13-.21.17-.44-.02-.21.35-1.27.1-.21.08-.52.06-.25v-.33l.1-.65.13-.21.1-.48.04-.44.1-.46.06-.48.15-.46-.04-.44.19-.4-.04-.38.08-.58.06-.25.08-1.13.06-.5.04-.21v-.38l-.04-.25.04-.21.06-.25.04-.48v-.25l-.04-.48.04-.21.04-.48v-.25l-.04-.29-.06-.69-.1-.54-.08-.25-.06-.21-.13-.23-.21-.46-.1-.27-.19-.21-.4-.35-.4-.33-.19-.21-.29-.19-.65-.44-.54-.25-.21-.08-.29-.02-.29-.13-.58-.06-.4-.04-.23-.02-.65-.04-.44.04-.5.02-.65.1-.38.04-.54.15-.21.04-.54.15-.44.21-.44.25-.25.19-.29.1-.46.33-.52.54-.17.21-.27.19-.29.44-.27.48-.15.21-.04.25-.33.48-.15.25-.21.44-.19.5-.15.44-.1.25-.21.48-.08.46-.19.25-.15.92-.06.5-.04.23-.1.25-.06.44v.5l-.08.25-.21.35.02.23-.06.25v.21l-.08.27-.1.21v.25l-.1.44v.48l-.1.42-.1.67-.08.25-.06.46.06.19-.15.5v.27l-.06.5v.29l-.15.5-.08.79v.25l.04.29-.1.38v.69l-.08.25.13.73.02.21.04.5.08.23.02.25.08.21.06.19.04.21.1.27v.21l.29.48.19.25.1.21.19.19.1.19.5.56.65.54.52.33.25.15.54.15.29.04.83.25.31.04.27.02.46-.02.94.1Zm-.29-4.92l-.21-.04-.29-.08-.29-.1-.17-.19-.23-.31-.06-.15-.13-.25v-1.02l-.1-.25.15-.35.04-.44-.1-.25.1-.27v-.25l.1-.54v-.29l.08-.25v-.29l.06-.31-.04-.15.08-.27-.04-.27.19-.52.1-.25-.04-.29.04-.25v-.25l.06-.5.08-.27.15-.56.1-.29.08-.54.06-.25.04-.27.1-.56.1-.52.15-.5.15-.73.04-.29v-.06l.21-.77.08-.29.06-.25.23-.46.15-.25.15-.44.25-.4.35-.33.58-.21.29-.08.69-.04.58.25.25.33.15.23.15.71-.08.52-.04.46-.06.65v.48l-.08.33-.1.5-.06.29-.04.46.04.27-.08.25-.06.29-.08.44-.15.54.04.6-.1.23-.08.69-.1.27-.1.33-.06.83-.13.54-.1.33.04.1v.29l-.1.21-.04.29-.1.48-.13.25-.02.5-.1.29-.08.5-.19.81v.27l-.06.27-.23.5-.25.5-.5.38-.33.15-.5.15h-.48Z"/>
  <path class="cls-3" d="m181.77,276.08l.27-.02.17-.04h1.08l.44-.19.23-.4.02-.35.04-.23.1-.25.04-.46v-.48l.1-.44.04-.21.08-.5.06-.58.04-.33.04-.29.13-.44v-.21l.08-.5.04-.52v-.25l.06-.44.08-.5.06-.25.04-.23.06-.46.04-.25v-.69l.08-.23.02-.25.15-1.33.15-.58v-.44l.19-1.48h.15l.15,1.67.02.21.04.25.08.54.06.77.23,1.52.06.46.1.52.08.21.06.77.08.6.06.25.08.54.06.27.04.29.19.6.02.25.44.23.33.02.69.13.79-.08.33.08h.21l.4-.08.19-.35.25-.44.98-2.15.79-1.48.48-1.08.83-1.85,1.08-2.13h.1l-.15.88-.08.25-.02.21-.1.52-.13.65-.29,1.42-.06.25v.21l-.04.25-.1.4-.04.27-.02.21-.04.44-.1.25-.08.48v.5l-.1.48-.15.42-.04.48-.15.48-.1.5-.06.54-.08.5-.06.29-.08.54-.04.25-.15.73.04.25.08.4.25.19h.25l.19.04.5-.04h1.58l1.1.04h.4l.5-.15.1-.33.08-.46.1-.48.1-.5.04-.29.1-.48v-.25l.04-.25.04-.48.06-.21.04-.25.1-.48.04-.29.06-.5.08-.21.06-.52.04-.29.04-.25.1-.54.04-.25.17-.54.08-.48v-.21l.1-.5.06-.56-.1-.27.19-.27.1-.46.04-.23.04-.25.02-.21-.02-.25v-.25l.13-.27.04-.54.04-.4.1-.44.04-.25.04-.21.1-.44.06-.5.13-.48.06-.21.04-.27v-.21l.02-.33.15-.27.04-.58.08-.52.02-.21.19-.48.1-.21v-.63l.15-.25-.04-.21.04-.44.08-.21.1-.52v-.29l.19-.46.02-.25.08-.23v-.5l.04-.1.02-.25.04-.23.04-.25.02-.15.04-.5.08-.23.1-.46-.08-.25-.31-.23-.73.04-1.23-.08-.58.04-.85-.04-.88.08-.19.35-.25.38-.19.42-.15.23-.02.21-.08.15-.1.19-.15.21-.21.44-.27.4-.29.52-.21.46-.5,1.02-.15.21-.73,1.46-.35.54-.04.21-.15.23-.33.46-.15.44-.21.21-.25.48-.15.35-.23.33-.25.54v.23l-.25.31-.21.38-.67,1.33-.13.21-.13.19-.46.9h-.1l-.15-.69-.08-.46-.06-.23v-.25l-.04-.25v-.21l-.15-.52-.15-1.23-.1-.5v-.25l-.1-.52-.04-.46v-.23l-.04-.46-.1-.23-.04-.25v-.25l-.06-.5-.04-.23-.15-.75v-.29l-.06-.25-.04-.52-.08-.46-.1-.58-.04-.6-.15-.73-.06-.5-.08-.27-.1-1-.21-.33h-.48l-.71-.04-.67.04h-.6l-.63-.04-.69.04h-.5l-.38.04-.21.44v.25l-.15.31-.04.42-.06.25.04.29-.13.46-.02.25-.13.4-.06.44-.04.48v.21l-.21,1.08-.04.23v.25l-.06.21-.08.27-.1.46-.04.29-.06.5-.04.23-.06.5-.08.23-.06.46-.04.48-.1.44-.13.25-.02.21-.08.48-.04.25-.06.21v.25l-.04.44-.06.44-.08.29-.1.33.04.21-.1.44-.04.21v.33l-.19.73-.06.5v.29l-.15.54-.04.58-.06.54-.08.21-.04.52-.02.21-.04.29-.08.29-.1.5-.04.5-.02.29-.1.27v.25l-.04.29-.1.5-.08.25-.06.44-.13.4-.02.48-.04.25-.1.31.06.33-.04.21-.02.54v.27l.17.21.15.1.52.04h.98l.96.06Z"/>
  <path class="cls-3" d="m214.86,276.08l.29-.02,1,.02.23-.13.15-.27.1-.17.1-.4.21-.54.38-.69.15-.44.1-.25.06-.27.27-.46.17-.4h.98l1.6.02.56.08.81.04.02.29v1.69l-.02.38.02.35.04.65.08.38.15.1h.54l.46.02.38-.02.25-.04.44.04h.27l.81-.04h.5l.29.04.25-.04c.15,0,.25.04.4,0,.19-.1.15-.44.1-.58v-.75l-.02-.79v-.33l-.04-.29.04-.5v-.54l-.04-.27-.04-.46v-.23l-.06-1.38.02-.25-.02-.5.02-.54-.02-.54v-.25l-.04-1.67v-1.08l-.04-.29-.04-.44v-1.42l-.06-.4-.04-.58v-.21l-.04-.48.04-.21-.04-.5v-.73l-.06-.5v-.81l.04-.25-.04-.54v-.5l-.06-.73-.04-.48v-.5l-.04-1.29v-.67l-.06-.21v-.79l-.13-1.56-.25-.19-.17-.06h-.58l-.33.04-.25-.08h-.33l-.69.04h-.56l-.38.04-.69-.04h-.35l-.25.04-.15.4-.13.21-.1.25-.31.67-.27.46-.21.65-.06.19-.15.21-.23.42-.06.25-.08.21-.1.23-.06.25-.33.65-.1.25-.1.38-.23.31-.1.23-.19.46-.29.77-.15.21-.17.25-.13.52-.21.46-.06.19-.13.46-.17.27-.13.46-.1.23-.21.4-.19.6-.25.48-.1.29-.29,1-.1.23-.19.5-.1.21-.1.27-.04.21-.23.5-.06.27-.23.42-.17.29-.15.58-.25.5-.13.27-.17.46-.1.23-.04.25-.08.21-.17.44-.19.25-.06.23-.29.65-.15.46-.4.88-.19.44-.23.44-.35,1.08-.29.46-.21.44-.04.23-.06.25.06.29.33.06,2.63.04.27.04.54.02Zm5.96-8.71l-.31-.04-.4-.04h-.29l-.25-.21.1-.25.06-.33.08-.25.17-.63.15-.25.19-.54.04-.25.21-.79.1-.33.13-.25.1-.33.15-.25.02-.25.15-.35.15-.29.19-.58.1-.35.19-.58.15-.48.29-.1.04.83-.04,1.31-.04,1.38.04.85-.08.29v.63l-.02.25v.94l-.04.29.04.29-.04.5-.23.19h-1.08Z"/>
  <path class="cls-3" d="m243.5,276.13l.44-.1h3.15l.44-.19.08-.21.1-.5.06-.52.23-1,.17-.81-.02-.27.1-.52.06-.29.19-.75.1-.48.04-.25.15-.48.1-.56.1-.52-.02-.25.02-.21.04-.25.15-.44.04-.25.06-.23.04-.21v-.38l.08-.31.1-.54.1-.52v-.21l.06-.21.04-.52.15-.25.1-.44.04-.46v-.25l.1-.23.1-.5.08-.25.06-.54.19-.44v-.25l.04-.23.04-.44v-.21l.15-.48.17-.5-.06-.19.15-.29.15-.65.02-.25.08-.48.06-.21v-.21l.13-.27-.04-.21.06-.25.33-.04,1.52.04h.35l.33-.04h.44l.31.04.38-.04.15-.33.02-.5.08-.25.15-.48.04-.42.02-.23.08-.25.06-.44v-.21l.08-.25.02-.23v-.25l.08-.29.04-.25v-.23l-.08-.27-.31-.08-.52-.04h-2.23l-.33-.02-.77.02-.54-.02-2.31.02h-.79l-.25-.02h-2.69l-.25.02h-.25l-.19-.02h-.94l-.25.02-.33.27-.17.4-.04.21v.5l-.1.23-.15.46-.04.52-.06.21-.15.5.02.27v.27l-.1.29-.06.44.1.33.31.1h.29l.38.04h.31l.27-.04.5.04h1.96l-.04.58-.08.54-.06.25-.1.46v.23l-.04.25v.21l-.04.23-.17.58-.08.25-.04.25v.29l-.06.19v.35l-.19.4.04.25-.1.54-.08.23v.25l-.15.21-.06.25v.33l-.1.35v.52l-.08.21-.19.44.08.25-.08.25-.13.54-.19.52-.08.25-.02.25.06.35-.19.38-.02.5-.08.21-.06.48-.04.25-.06.25-.13.54-.1.44v.29l-.19.77.04.29-.04.25-.17.5v.25l-.04.5-.06.23-.04.54-.08.25-.25.77-.04.75-.06.54.33.29h.25l.31.1Z"/>
  <path class="cls-3" d="m269.1,276.08h.94l.4-.1.1-.31.04-.29.1-.48.08-.5.1-.48.15-.85.1-.42v-.25l.06-.46.08-.52.1-.5v-.29l.15-.46.04-.29.1-.54-.04-.4.19-.38v-.5l.04-.19.06-.5v-.29l.15-.5v-.29l.15-.52.08-.42.06-.48.1-.48v-.27l.1-.27.15-.5.19-1.08.1-.35.08-.48v-.25l.04-.29.02-.25v-.33l.1-.31.13-.52.02-.17.13-.48.1-.44.06-.46.04-.27.04-.44.04-.25.06-.44.06-.21.08-.4.19-.94.02-.23v-.25l.04-.21v-.29l.15-.33.08-.5.1-.19v-.31l.1-.15-.04-.23.04-.4.06-.1v-.48l.04-.21-.15-.35-.4-.13-.25.04h-1.92l-.25.04h-.52l-.31-.04-.54.04-.25.04-.23.15-.25.1-.25.35-.04.25-.06.23-.08.54-.15.4-.06.4-.04.44-.08.21-.02.23-.1.46-.08.52-.06.17-.04.48-.04.29.04.25-.15.46-.04.27-.1.46-.04.23-.15.42.04.27-.04.21-.06.5-.1.27v.5l-.13.75-.17.52-.13.46-.06.44v.48l-.15.29-.06.5v.25l-.15.5v.52l-.08.5-.04.21-.02.27-.08.25v.21l-.06.54-.25.79.02.27-.06.25-.04.21-.06.25v.25l-.08.44-.06.33-.13.33-.06.31-.1.4-.1.67.02.21-.15.48-.02.25-.08.29-.04.25-.1.54-.04.29-.06.5-.06.25-.04.54-.19.52.04.54.29.25.29.06.29-.02.25.02.4.04.25-.04h.29l.5.08h1.06l.25.02Z"/>
  <path class="cls-3" d="m293.33,276.6l.81-.1.4-.13.25-.02.5-.13.29-.06.25-.04.83-.31.15-.13.44-.29.44-.31.17-.23.23-.17.44-.44.06-.23.19-.21.15-.21.31-.48.19-.25.29-.65.25-.52.04-.35.19-.25.1-.4v-.25l.1-.44.19-.4.02-.42.13-.21.17-.44-.02-.21.35-1.27.1-.21.08-.52.06-.25v-.33l.1-.65.13-.21.1-.48.04-.44.1-.46.06-.48.15-.46-.04-.44.19-.4-.04-.38.08-.58.06-.25.08-1.13.06-.5.04-.21v-.38l-.04-.25.04-.21.06-.25.04-.48v-.25l-.04-.48.04-.21.04-.48v-.25l-.04-.29-.06-.69-.1-.54-.08-.25-.06-.21-.13-.23-.21-.46-.1-.27-.19-.21-.4-.35-.4-.33-.19-.21-.29-.19-.65-.44-.54-.25-.21-.08-.29-.02-.29-.13-.58-.06-.4-.04-.23-.02-.65-.04-.44.04-.5.02-.65.1-.38.04-.54.15-.21.04-.54.15-.44.21-.44.25-.25.19-.29.1-.46.33-.52.54-.17.21-.27.19-.29.44-.27.48-.15.21-.04.25-.33.48-.15.25-.21.44-.19.5-.15.44-.1.25-.21.48-.08.46-.19.25-.15.92-.06.5-.04.23-.1.25-.06.44v.5l-.08.25-.21.35.02.23-.06.25v.21l-.08.27-.1.21v.25l-.1.44v.48l-.1.42-.1.67-.08.25-.06.46.06.19-.15.5v.27l-.06.5v.29l-.15.5-.08.79v.25l.04.29-.1.38v.69l-.08.25.13.73.02.21.04.5.08.23.02.25.08.21.06.19.04.21.1.27v.21l.29.48.19.25.1.21.19.19.1.19.5.56.65.54.52.33.25.15.54.15.29.04.83.25.31.04.27.02.46-.02.94.1Zm-.29-4.92l-.21-.04-.29-.08-.29-.1-.17-.19-.23-.31-.06-.15-.13-.25v-1.02l-.1-.25.15-.35.04-.44-.1-.25.1-.27v-.25l.1-.54v-.29l.08-.25v-.29l.06-.31-.04-.15.08-.27-.04-.27.19-.52.1-.25-.04-.29.04-.25v-.25l.06-.5.08-.27.15-.56.1-.29.08-.54.06-.25.04-.27.1-.56.1-.52.15-.5.15-.73.04-.29v-.06l.21-.77.08-.29.06-.25.23-.46.15-.25.15-.44.25-.4.35-.33.58-.21.29-.08.69-.04.58.25.25.33.15.23.15.71-.08.52-.04.46-.06.65v.48l-.08.33-.1.5-.06.29-.04.46.04.27-.08.25-.06.29-.08.44-.15.54.04.6-.1.23-.08.69-.1.27-.1.33-.06.83-.13.54-.1.33.04.1v.29l-.1.21-.04.29-.1.48-.13.25-.02.5-.1.29-.08.5-.19.81v.27l-.06.27-.23.5-.25.5-.5.38-.33.15-.5.15h-.48Z"/>
  <path class="cls-3" d="m314.95,276.08h3.83l.4-.13.1-.38.15-.44.1-.65.08-.21v-.48l.02-.25.13-.48.15-1.04.06-.25.04-.23.06-.5.15-.73.15-.54.08-.5.02-.23-.02-.25.06-.25.1-.44-.06-.25.1-.46.08-.23.13-1.42.27-1.73.02-.9.08-.63.04-.4.02-.73.04-1h.1l.23,1.38.21,1.29.1,1.02.19,1.15.15,1.02.06.69.15.73v.54l.19.94.1.5v.23l.1.54.13.4.02.54.08.5.04.23.15.75.02.23.08.75.04.21.02.44.04.19.19.5.29.58.27.25h.63l.48.04h.71l.23-.04.35.04.25-.04.69.04h.15l.4-.06.52-.04.35-.25.33-.44.17-1.17.13-.46.06-.27v-.21l.19-.48v-.56l.15-.52.1-.29.06-.46.04-.48.04-.4.15-.44.15-.31.15-.88.15-.5v-.23l.02-.21.04-.25.04-.23.04-.31.06-.33.1-.5.1-.23v-.46l.04-.23.04-.25.06-.21.04-.25.08-.23-.04-.33.06-.27.08-.52.1-.46.08-.25.1-.48.06-.29.04-.25.04-.4.1-.33.15-1.08.06-.25v-.48l.08-.25.06-.29.1-.31.08-.58.15-.58.1-.75.08-.29.1-.67.1-.4.21-.85.08-.52.1-.79-.04-.29.13-.5v-.29l-.04-.29-.23-.1-.5-.1-.5.02h-.38l-.83-.02h-.35l-.25.02-.77-.06-.69.15-.15.1-.27.5-.15.77-.13.58-.02.21v.33l-.13.29-.06.25-.1.5-.04.29-.06.5-.08.23-.04.25-.1.46v.23l-.1.65.04.25-.23.44v.25l-.02.44v.44l-.15.48v.21l-.08.5-.06.23-.04.5-.04.29-.04.25-.02.23-.13.5v1.23l-.1.75-.1,1.75v.5l-.06.88-.04.71h-.1l-.13-.79-.1-.98-.06-.42-.08-.27v-.25l-.06-.79-.15-.83-.1-.98-.08-.29-.06-.5-.04-.58-.1-.6-.08-.63-.1-.54-.04-.4v-.25l-.1-.4v-.23l-.1-.46-.08-.54-.02-.27-.08-.27-.25-1.25-.1-.6-.1-.58-.15-.88-.15-.5-.04-.4-.06-.44-.15-.35-.04-.25-.23-.33-.4-.1h-.5l-.54-.04-.44.04-.69-.04-.46.04h-.33l-.63-.04-.5.04-.35.06-.23.4-.1.19-.19.69v.29l-.1.48-.06.42-.08.48-.04.25-.06.23-.04.25-.04.21-.02.25-.04.48-.06.33-.15.31v.25l-.19,1.02-.08.21-.02.27v.42l-.13.33-.1.4-.06.48-.08.25v.25l-.1.25v.29l-.1.29-.04.29v.5l-.06.38-.08.27-.17.44-.04.38-.04.5-.04.25-.02.23-.19.42v.23l-.04.21-.04.48-.06.21-.04.25-.06.44-.1.4-.08.33-.06.44-.15.58-.08.46.04.25-.04.23-.1.44-.04.25-.04.44-.13.25v.46l-.08.29v.25l-.1.58-.08.33-.1.5-.06.19-.13.5-.02.25-.15.52-.08.56v.58l-.06.29.19.44.54.06Z"/>
</svg>