<svg xmlns="http://www.w3.org/2000/svg" xmlns:xlink="http://www.w3.org/1999/xlink" width="500" zoomAndPan="magnify" viewBox="0 0 375 374.999991" height="500" preserveAspectRatio="xMidYMid meet" version="1.0"><defs><g/><clipPath id="bb9bdf7233"><path d="M 102.332031 80.039062 L 272.234375 80.039062 L 272.234375 196.847656 L 102.332031 196.847656 Z M 102.332031 80.039062 " clip-rule="nonzero"/></clipPath><clipPath id="c9105535e3"><path d="M 174.90625 172.886719 L 261.496094 172.886719 C 263.335938 170.347656 264.984375 167.652344 266.40625 164.832031 C 266.433594 164.78125 266.460938 164.726562 266.488281 164.671875 C 267.085938 163.480469 267.640625 162.261719 268.15625 161.027344 C 269.242188 158.429688 270.144531 155.738281 270.847656 152.972656 L 163.410156 152.972656 L 160.535156 157.953125 L 158.757812 161.027344 L 152.320312 161.027344 L 150.542969 157.953125 L 147.667969 152.972656 L 136.171875 152.972656 L 133.292969 157.953125 L 130.417969 162.929688 L 133.292969 167.90625 L 136.171875 172.886719 L 147.667969 172.886719 L 150.542969 167.90625 L 152.320312 164.832031 L 158.757812 164.832031 L 160.535156 167.90625 L 163.410156 172.886719 Z M 161.738281 116.210938 L 163.515625 119.289062 L 166.390625 124.269531 L 270.847656 124.269531 C 270.144531 121.5 269.242188 118.808594 268.15625 116.210938 C 267.644531 114.976562 267.085938 113.757812 266.488281 112.566406 C 266.460938 112.511719 266.433594 112.460938 266.40625 112.40625 C 264.984375 109.585938 263.335938 106.890625 261.492188 104.351562 L 166.390625 104.351562 L 163.515625 109.332031 L 161.738281 112.40625 L 155.300781 112.40625 L 153.523438 109.332031 L 150.652344 104.351562 L 139.152344 104.351562 L 136.277344 109.332031 L 133.402344 114.308594 L 139.152344 124.269531 L 150.652344 124.269531 L 153.523438 119.289062 L 155.300781 116.210938 Z M 243.613281 88.097656 C 234.921875 82.980469 224.820312 80.039062 214.0625 80.039062 L 192.28125 80.039062 L 189.402344 85.019531 L 187.628906 88.09375 L 181.191406 88.09375 L 176.539062 80.039062 L 165.042969 80.039062 L 162.164062 85.019531 L 160.390625 88.09375 L 159.292969 89.996094 L 160.390625 91.898438 L 162.164062 94.976562 L 165.042969 99.957031 L 176.539062 99.957031 L 179.414062 94.976562 L 181.191406 91.898438 L 187.628906 91.898438 L 189.402344 94.976562 L 192.28125 99.957031 L 257.976562 99.957031 C 255.363281 96.992188 252.453125 94.289062 249.296875 91.898438 C 247.480469 90.523438 245.585938 89.253906 243.613281 88.09375 Z M 125.347656 138.617188 L 122.472656 133.640625 L 119.597656 128.660156 L 108.101562 128.660156 L 105.226562 133.640625 L 102.351562 138.617188 L 108.101562 148.578125 L 119.597656 148.578125 Z M 138.351562 177.28125 L 108.984375 177.28125 L 106.109375 182.257812 L 103.234375 187.242188 L 106.109375 192.21875 L 108.984375 197.199219 L 138.351562 197.199219 L 141.226562 192.21875 L 143 189.144531 L 149.4375 189.144531 L 151.214844 192.21875 L 154.089844 197.199219 L 214.058594 197.199219 C 224.820312 197.199219 234.921875 194.257812 243.613281 189.144531 C 245.582031 187.984375 247.480469 186.710938 249.292969 185.335938 C 252.453125 182.945312 255.359375 180.246094 257.976562 177.28125 L 154.089844 177.28125 L 151.214844 182.261719 L 149.4375 185.335938 L 143 185.335938 L 141.226562 182.261719 Z M 178.476562 128.660156 L 150.722656 128.660156 L 147.847656 133.640625 L 146.070312 136.714844 L 144.972656 138.621094 L 146.070312 140.523438 L 147.847656 143.597656 L 150.722656 148.578125 L 178.476562 148.578125 L 181.351562 143.597656 L 183.125 140.523438 L 189.566406 140.523438 L 188.464844 138.621094 L 191.339844 143.597656 L 194.214844 148.578125 L 271.785156 148.578125 C 272.242188 145.945312 272.519531 143.257812 272.609375 140.523438 C 272.628906 139.890625 272.636719 139.253906 272.636719 138.621094 C 272.636719 137.984375 272.628906 137.347656 272.609375 136.714844 C 272.519531 133.980469 272.242188 131.292969 271.785156 128.660156 L 194.214844 128.660156 L 188.464844 138.621094 L 189.566406 136.71875 L 183.125 136.71875 L 181.351562 133.640625 Z M 178.476562 128.660156 " clip-rule="evenodd"/></clipPath></defs><rect x="-37.5" width="450" fill="#ffffff" y="-37.499999" height="449.999989" fill-opacity="1"/><rect x="-37.5" width="450" fill="#ffffff" y="-37.499999" height="449.999989" fill-opacity="1"/><g clip-path="url(#bb9bdf7233)"><g clip-path="url(#c9105535e3)"><path fill="#ffffff" d="M 102.351562 80.039062 L 102.351562 196.847656 L 272.234375 196.847656 L 272.234375 80.039062 Z M 102.351562 80.039062 " fill-opacity="1" fill-rule="nonzero"/></g></g><g fill="#ffffff" fill-opacity="1"><g transform="translate(60.621848, 247.358284)"><g><path d="M 2.109375 -27.171875 L 14.59375 -27.171875 C 18.738281 -27.171875 20.8125 -25.421875 20.8125 -21.921875 L 20.8125 -5.25 C 20.8125 -1.75 18.738281 0 14.59375 0 L 2.109375 0 Z M 13.40625 -5.796875 L 13.40625 -21.375 C 13.40625 -21.988281 13.054688 -22.296875 12.359375 -22.296875 L 9.515625 -22.296875 L 9.515625 -4.859375 L 12.359375 -4.859375 C 13.054688 -4.859375 13.40625 -5.171875 13.40625 -5.796875 Z M 13.40625 -5.796875 "/></g></g></g><g fill="#ffffff" fill-opacity="1"><g transform="translate(88.929135, 247.358284)"><g><path d="M 12.984375 -27.171875 L 20.390625 -27.171875 L 20.390625 -5.25 C 20.390625 -1.75 18.316406 0 14.171875 0 L 7.90625 0 C 3.757812 0 1.6875 -1.75 1.6875 -5.25 L 1.6875 -27.171875 L 9.09375 -27.171875 L 9.09375 -6.21875 C 9.09375 -5.59375 9.445312 -5.28125 10.15625 -5.28125 L 11.9375 -5.28125 C 12.632812 -5.28125 12.984375 -5.59375 12.984375 -6.21875 Z M 12.984375 -27.171875 "/></g></g></g><g fill="#ffffff" fill-opacity="1"><g transform="translate(116.940246, 247.358284)"><g><path d="M 2.109375 -27.171875 L 14.59375 -27.171875 C 18.738281 -27.171875 20.8125 -25.421875 20.8125 -21.921875 L 20.8125 -5.25 C 20.8125 -1.75 18.738281 0 14.59375 0 L 2.109375 0 Z M 13.40625 -5.796875 L 13.40625 -21.375 C 13.40625 -21.988281 13.054688 -22.296875 12.359375 -22.296875 L 9.515625 -22.296875 L 9.515625 -4.859375 L 12.359375 -4.859375 C 13.054688 -4.859375 13.40625 -5.171875 13.40625 -5.796875 Z M 13.40625 -5.796875 "/></g></g></g><g fill="#ffffff" fill-opacity="1"><g transform="translate(145.247531, 247.358284)"><g><path d="M 9.09375 -5.28125 L 18.359375 -5.28125 L 18.359375 0 L 1.6875 0 L 1.6875 -27.171875 L 17.984375 -27.171875 L 17.984375 -21.875 L 9.09375 -21.875 L 9.09375 -16.328125 L 16.75 -16.328125 L 16.75 -11.046875 L 9.09375 -11.046875 Z M 9.09375 -5.28125 "/></g></g></g><g fill="#ffffff" fill-opacity="1"><g transform="translate(170.169926, 247.358284)"><g><path d="M 27.625 -27.171875 L 34.953125 -27.171875 L 29.203125 0 L 20.6875 0 L 17.6875 -16.203125 L 14.6875 0 L 6.171875 0 L 0.421875 -27.171875 L 8.125 -27.171875 L 10.40625 -8.890625 L 14.046875 -27.171875 L 21.28125 -27.171875 L 24.921875 -8.890625 Z M 27.625 -27.171875 "/></g></g></g><g fill="#ffffff" fill-opacity="1"><g transform="translate(211.466767, 247.358284)"><g><path d="M 7.78125 -27.171875 L 14.046875 -27.171875 C 18.191406 -27.171875 20.265625 -25.421875 20.265625 -21.921875 L 20.265625 -5.25 C 20.265625 -1.75 18.191406 0 14.046875 0 L 7.78125 0 C 3.632812 0 1.5625 -1.75 1.5625 -5.25 L 1.5625 -21.921875 C 1.5625 -25.421875 3.632812 -27.171875 7.78125 -27.171875 Z M 12.859375 -6.21875 L 12.859375 -20.9375 C 12.859375 -21.5625 12.507812 -21.875 11.8125 -21.875 L 10.03125 -21.875 C 9.320312 -21.875 8.96875 -21.5625 8.96875 -20.9375 L 8.96875 -6.21875 C 8.96875 -5.59375 9.320312 -5.28125 10.03125 -5.28125 L 11.8125 -5.28125 C 12.507812 -5.28125 12.859375 -5.59375 12.859375 -6.21875 Z M 12.859375 -6.21875 "/></g></g></g><g fill="#ffffff" fill-opacity="1"><g transform="translate(239.223998, 247.358284)"><g><path d="M 9.09375 -9.640625 L 9.09375 0 L 1.6875 0 L 1.6875 -27.171875 L 14.265625 -27.171875 C 18.410156 -27.171875 20.484375 -25.421875 20.484375 -21.921875 L 20.484375 -14.890625 C 20.484375 -12.210938 19.269531 -10.5625 16.84375 -9.9375 L 21.828125 0 L 13.875 0 L 9.5625 -9.640625 Z M 12.015625 -21.875 L 9.09375 -21.875 L 9.09375 -14.6875 L 12.015625 -14.6875 C 12.722656 -14.6875 13.078125 -14.992188 13.078125 -15.609375 L 13.078125 -20.9375 C 13.078125 -21.5625 12.722656 -21.875 12.015625 -21.875 Z M 12.015625 -21.875 "/></g></g></g><g fill="#ffffff" fill-opacity="1"><g transform="translate(266.89661, 247.358284)"><g><path d="M 18.0625 -27.171875 L 18.0625 -21.875 L 12.828125 -21.875 L 12.828125 0 L 5.421875 0 L 5.421875 -21.875 L 0.21875 -21.875 L 0.21875 -27.171875 Z M 18.0625 -27.171875 "/></g></g></g><g fill="#ffffff" fill-opacity="1"><g transform="translate(291.099708, 247.358284)"><g><path d="M 14.296875 -27.171875 L 21.578125 -27.171875 L 21.578125 0 L 14.296875 0 L 14.296875 -10.75 L 8.96875 -10.75 L 8.96875 0 L 1.6875 0 L 1.6875 -27.171875 L 8.96875 -27.171875 L 8.96875 -16.03125 L 14.296875 -16.03125 Z M 14.296875 -27.171875 "/></g></g></g><g fill="#ffffff" fill-opacity="1"><g transform="translate(63.090346, 287.054682)"><g><path d="M 2.203125 0.046875 L 2.421875 0.03125 L 3.171875 0.046875 L 3.34375 -0.046875 L 3.453125 -0.25 L 3.53125 -0.375 L 3.609375 -0.671875 L 3.765625 -1.078125 L 4.046875 -1.59375 L 4.15625 -1.921875 L 4.234375 -2.109375 L 4.28125 -2.3125 L 4.484375 -2.65625 L 4.609375 -2.953125 L 5.34375 -2.953125 L 6.546875 -2.9375 L 6.96875 -2.875 L 7.578125 -2.84375 L 7.59375 -2.625 L 7.59375 -1.359375 L 7.578125 -1.078125 L 7.59375 -0.8125 L 7.625 -0.328125 L 7.6875 -0.046875 L 7.796875 0.03125 L 8.203125 0.03125 L 8.546875 0.046875 L 8.828125 0.03125 L 9.015625 0 L 9.34375 0.03125 L 9.546875 0.03125 L 10.15625 0 L 10.53125 0 L 10.75 0.03125 L 10.9375 0 C 11.046875 0 11.125 0.03125 11.234375 0 C 11.375 -0.078125 11.34375 -0.328125 11.3125 -0.4375 L 11.3125 -1 L 11.296875 -1.59375 L 11.296875 -1.84375 L 11.265625 -2.0625 L 11.296875 -2.4375 L 11.296875 -2.84375 L 11.265625 -3.046875 L 11.234375 -3.390625 L 11.234375 -3.5625 L 11.1875 -4.59375 L 11.203125 -4.78125 L 11.1875 -5.15625 L 11.203125 -5.5625 L 11.1875 -5.96875 L 11.1875 -6.15625 L 11.15625 -7.40625 L 11.15625 -8.21875 L 11.125 -8.4375 L 11.09375 -8.765625 L 11.09375 -9.828125 L 11.046875 -10.125 L 11.015625 -10.5625 L 11.015625 -10.71875 L 10.984375 -11.078125 L 11.015625 -11.234375 L 10.984375 -11.609375 L 10.984375 -12.15625 L 10.9375 -12.53125 L 10.9375 -13.140625 L 10.96875 -13.328125 L 10.9375 -13.734375 L 10.9375 -14.109375 L 10.890625 -14.65625 L 10.859375 -15.015625 L 10.859375 -15.390625 L 10.828125 -16.359375 L 10.828125 -16.859375 L 10.78125 -17.015625 L 10.78125 -17.609375 L 10.6875 -18.78125 L 10.5 -18.921875 L 10.375 -18.96875 L 9.9375 -18.96875 L 9.6875 -18.9375 L 9.5 -19 L 9.25 -19 L 8.734375 -18.96875 L 8.3125 -18.96875 L 8.03125 -18.9375 L 7.515625 -18.96875 L 7.25 -18.96875 L 7.0625 -18.9375 L 6.953125 -18.640625 L 6.859375 -18.484375 L 6.78125 -18.296875 L 6.546875 -17.796875 L 6.34375 -17.453125 L 6.1875 -16.96875 L 6.140625 -16.828125 L 6.03125 -16.671875 L 5.859375 -16.359375 L 5.8125 -16.171875 L 5.75 -16.015625 L 5.671875 -15.84375 L 5.625 -15.65625 L 5.375 -15.171875 L 5.296875 -14.984375 L 5.21875 -14.703125 L 5.046875 -14.46875 L 4.96875 -14.296875 L 4.828125 -13.953125 L 4.609375 -13.375 L 4.5 -13.21875 L 4.375 -13.03125 L 4.28125 -12.640625 L 4.125 -12.296875 L 4.078125 -12.15625 L 3.984375 -11.8125 L 3.859375 -11.609375 L 3.765625 -11.265625 L 3.6875 -11.09375 L 3.53125 -10.796875 L 3.390625 -10.34375 L 3.203125 -9.984375 L 3.125 -9.765625 L 2.90625 -9.015625 L 2.828125 -8.84375 L 2.6875 -8.46875 L 2.609375 -8.3125 L 2.53125 -8.109375 L 2.5 -7.953125 L 2.328125 -7.578125 L 2.28125 -7.375 L 2.109375 -7.0625 L 1.984375 -6.84375 L 1.875 -6.40625 L 1.6875 -6.03125 L 1.59375 -5.828125 L 1.46875 -5.484375 L 1.390625 -5.3125 L 1.359375 -5.125 L 1.296875 -4.96875 L 1.171875 -4.640625 L 1.03125 -4.453125 L 0.984375 -4.28125 L 0.765625 -3.796875 L 0.65625 -3.453125 L 0.359375 -2.796875 L 0.21875 -2.46875 L 0.046875 -2.140625 L -0.21875 -1.328125 L -0.4375 -0.984375 L -0.59375 -0.65625 L -0.625 -0.484375 L -0.671875 -0.296875 L -0.625 -0.078125 L -0.375 -0.03125 L 1.59375 0 L 1.796875 0.03125 Z M 6.671875 -6.484375 L 6.4375 -6.515625 L 6.140625 -6.546875 L 5.921875 -6.546875 L 5.734375 -6.703125 L 5.8125 -6.890625 L 5.859375 -7.140625 L 5.921875 -7.328125 L 6.046875 -7.796875 L 6.15625 -7.984375 L 6.296875 -8.390625 L 6.328125 -8.578125 L 6.484375 -9.171875 L 6.5625 -9.421875 L 6.65625 -9.609375 L 6.734375 -9.859375 L 6.84375 -10.046875 L 6.859375 -10.234375 L 6.96875 -10.5 L 7.078125 -10.71875 L 7.21875 -11.15625 L 7.296875 -11.421875 L 7.4375 -11.859375 L 7.546875 -12.21875 L 7.765625 -12.296875 L 7.796875 -11.671875 L 7.765625 -10.6875 L 7.734375 -9.65625 L 7.765625 -9.015625 L 7.703125 -8.796875 L 7.703125 -8.328125 L 7.6875 -8.140625 L 7.6875 -7.4375 L 7.65625 -7.21875 L 7.6875 -7 L 7.65625 -6.625 L 7.484375 -6.484375 Z M 6.671875 -6.484375 "/></g></g></g><g fill="#ffffff" fill-opacity="1"><g transform="translate(83.416943, 287.054682)"><g><path d="M 3.75 0.046875 L 4.453125 0.046875 L 4.75 -0.03125 L 4.828125 -0.265625 L 4.859375 -0.484375 L 4.9375 -0.84375 L 5 -1.21875 L 5.078125 -1.578125 L 5.1875 -2.21875 L 5.265625 -2.53125 L 5.265625 -2.71875 L 5.3125 -3.0625 L 5.375 -3.453125 L 5.453125 -3.828125 L 5.453125 -4.046875 L 5.5625 -4.390625 L 5.59375 -4.609375 L 5.671875 -5.015625 L 5.640625 -5.3125 L 5.78125 -5.59375 L 5.78125 -5.96875 L 5.8125 -6.109375 L 5.859375 -6.484375 L 5.859375 -6.703125 L 5.96875 -7.078125 L 5.96875 -7.296875 L 6.078125 -7.6875 L 6.140625 -8 L 6.1875 -8.359375 L 6.265625 -8.71875 L 6.265625 -8.921875 L 6.34375 -9.125 L 6.453125 -9.5 L 6.59375 -10.3125 L 6.671875 -10.578125 L 6.734375 -10.9375 L 6.734375 -11.125 L 6.765625 -11.34375 L 6.78125 -11.53125 L 6.78125 -11.78125 L 6.859375 -12.015625 L 6.953125 -12.40625 L 6.96875 -12.53125 L 7.0625 -12.890625 L 7.140625 -13.21875 L 7.1875 -13.5625 L 7.21875 -13.765625 L 7.25 -14.09375 L 7.28125 -14.28125 L 7.328125 -14.609375 L 7.375 -14.765625 L 7.4375 -15.0625 L 7.578125 -15.765625 L 7.59375 -15.9375 L 7.59375 -16.125 L 7.625 -16.28125 L 7.625 -16.5 L 7.734375 -16.75 L 7.796875 -17.125 L 7.875 -17.265625 L 7.875 -17.5 L 7.953125 -17.609375 L 7.921875 -17.78125 L 7.953125 -18.078125 L 8 -18.15625 L 8 -18.515625 L 8.03125 -18.671875 L 7.921875 -18.9375 L 7.625 -19.03125 L 7.4375 -19 L 6 -19 L 5.8125 -18.96875 L 5.421875 -18.96875 L 5.1875 -19 L 4.78125 -18.96875 L 4.59375 -18.9375 L 4.421875 -18.828125 L 4.234375 -18.75 L 4.046875 -18.484375 L 4.015625 -18.296875 L 3.96875 -18.125 L 3.90625 -17.71875 L 3.796875 -17.421875 L 3.75 -17.125 L 3.71875 -16.796875 L 3.65625 -16.640625 L 3.640625 -16.46875 L 3.5625 -16.125 L 3.5 -15.734375 L 3.453125 -15.609375 L 3.421875 -15.25 L 3.390625 -15.03125 L 3.421875 -14.84375 L 3.3125 -14.5 L 3.28125 -14.296875 L 3.203125 -13.953125 L 3.171875 -13.78125 L 3.0625 -13.46875 L 3.09375 -13.265625 L 3.0625 -13.109375 L 3.015625 -12.734375 L 2.9375 -12.53125 L 2.9375 -12.15625 L 2.84375 -11.59375 L 2.71875 -11.203125 L 2.625 -10.859375 L 2.578125 -10.53125 L 2.578125 -10.171875 L 2.46875 -9.953125 L 2.421875 -9.578125 L 2.421875 -9.390625 L 2.3125 -9.015625 L 2.3125 -8.625 L 2.25 -8.25 L 2.21875 -8.09375 L 2.203125 -7.890625 L 2.140625 -7.703125 L 2.140625 -7.546875 L 2.09375 -7.140625 L 1.90625 -6.546875 L 1.921875 -6.34375 L 1.875 -6.15625 L 1.84375 -6 L 1.796875 -5.8125 L 1.796875 -5.625 L 1.734375 -5.296875 L 1.6875 -5.046875 L 1.59375 -4.796875 L 1.546875 -4.5625 L 1.46875 -4.265625 L 1.390625 -3.765625 L 1.40625 -3.609375 L 1.296875 -3.25 L 1.28125 -3.0625 L 1.21875 -2.84375 L 1.1875 -2.65625 L 1.109375 -2.25 L 1.078125 -2.03125 L 1.03125 -1.65625 L 0.984375 -1.46875 L 0.953125 -1.0625 L 0.8125 -0.671875 L 0.84375 -0.265625 L 1.0625 -0.078125 L 1.28125 -0.03125 L 1.5 -0.046875 L 1.6875 -0.03125 L 1.984375 0 L 2.171875 -0.03125 L 2.390625 -0.03125 L 2.765625 0.03125 L 3.5625 0.03125 Z M 3.75 0.046875 "/></g></g></g><g fill="#ffffff" fill-opacity="1"><g transform="translate(98.777472, 287.054682)"><g/></g></g><g fill="#ffffff" fill-opacity="1"><g transform="translate(113.079673, 287.054682)"><g><path d="M 2.203125 0.046875 L 2.421875 0.03125 L 3.171875 0.046875 L 3.34375 -0.046875 L 3.453125 -0.25 L 3.53125 -0.375 L 3.609375 -0.671875 L 3.765625 -1.078125 L 4.046875 -1.59375 L 4.15625 -1.921875 L 4.234375 -2.109375 L 4.28125 -2.3125 L 4.484375 -2.65625 L 4.609375 -2.953125 L 5.34375 -2.953125 L 6.546875 -2.9375 L 6.96875 -2.875 L 7.578125 -2.84375 L 7.59375 -2.625 L 7.59375 -1.359375 L 7.578125 -1.078125 L 7.59375 -0.8125 L 7.625 -0.328125 L 7.6875 -0.046875 L 7.796875 0.03125 L 8.203125 0.03125 L 8.546875 0.046875 L 8.828125 0.03125 L 9.015625 0 L 9.34375 0.03125 L 9.546875 0.03125 L 10.15625 0 L 10.53125 0 L 10.75 0.03125 L 10.9375 0 C 11.046875 0 11.125 0.03125 11.234375 0 C 11.375 -0.078125 11.34375 -0.328125 11.3125 -0.4375 L 11.3125 -1 L 11.296875 -1.59375 L 11.296875 -1.84375 L 11.265625 -2.0625 L 11.296875 -2.4375 L 11.296875 -2.84375 L 11.265625 -3.046875 L 11.234375 -3.390625 L 11.234375 -3.5625 L 11.1875 -4.59375 L 11.203125 -4.78125 L 11.1875 -5.15625 L 11.203125 -5.5625 L 11.1875 -5.96875 L 11.1875 -6.15625 L 11.15625 -7.40625 L 11.15625 -8.21875 L 11.125 -8.4375 L 11.09375 -8.765625 L 11.09375 -9.828125 L 11.046875 -10.125 L 11.015625 -10.5625 L 11.015625 -10.71875 L 10.984375 -11.078125 L 11.015625 -11.234375 L 10.984375 -11.609375 L 10.984375 -12.15625 L 10.9375 -12.53125 L 10.9375 -13.140625 L 10.96875 -13.328125 L 10.9375 -13.734375 L 10.9375 -14.109375 L 10.890625 -14.65625 L 10.859375 -15.015625 L 10.859375 -15.390625 L 10.828125 -16.359375 L 10.828125 -16.859375 L 10.78125 -17.015625 L 10.78125 -17.609375 L 10.6875 -18.78125 L 10.5 -18.921875 L 10.375 -18.96875 L 9.9375 -18.96875 L 9.6875 -18.9375 L 9.5 -19 L 9.25 -19 L 8.734375 -18.96875 L 8.3125 -18.96875 L 8.03125 -18.9375 L 7.515625 -18.96875 L 7.25 -18.96875 L 7.0625 -18.9375 L 6.953125 -18.640625 L 6.859375 -18.484375 L 6.78125 -18.296875 L 6.546875 -17.796875 L 6.34375 -17.453125 L 6.1875 -16.96875 L 6.140625 -16.828125 L 6.03125 -16.671875 L 5.859375 -16.359375 L 5.8125 -16.171875 L 5.75 -16.015625 L 5.671875 -15.84375 L 5.625 -15.65625 L 5.375 -15.171875 L 5.296875 -14.984375 L 5.21875 -14.703125 L 5.046875 -14.46875 L 4.96875 -14.296875 L 4.828125 -13.953125 L 4.609375 -13.375 L 4.5 -13.21875 L 4.375 -13.03125 L 4.28125 -12.640625 L 4.125 -12.296875 L 4.078125 -12.15625 L 3.984375 -11.8125 L 3.859375 -11.609375 L 3.765625 -11.265625 L 3.6875 -11.09375 L 3.53125 -10.796875 L 3.390625 -10.34375 L 3.203125 -9.984375 L 3.125 -9.765625 L 2.90625 -9.015625 L 2.828125 -8.84375 L 2.6875 -8.46875 L 2.609375 -8.3125 L 2.53125 -8.109375 L 2.5 -7.953125 L 2.328125 -7.578125 L 2.28125 -7.375 L 2.109375 -7.0625 L 1.984375 -6.84375 L 1.875 -6.40625 L 1.6875 -6.03125 L 1.59375 -5.828125 L 1.46875 -5.484375 L 1.390625 -5.3125 L 1.359375 -5.125 L 1.296875 -4.96875 L 1.171875 -4.640625 L 1.03125 -4.453125 L 0.984375 -4.28125 L 0.765625 -3.796875 L 0.65625 -3.453125 L 0.359375 -2.796875 L 0.21875 -2.46875 L 0.046875 -2.140625 L -0.21875 -1.328125 L -0.4375 -0.984375 L -0.59375 -0.65625 L -0.625 -0.484375 L -0.671875 -0.296875 L -0.625 -0.078125 L -0.375 -0.03125 L 1.59375 0 L 1.796875 0.03125 Z M 6.671875 -6.484375 L 6.4375 -6.515625 L 6.140625 -6.546875 L 5.921875 -6.546875 L 5.734375 -6.703125 L 5.8125 -6.890625 L 5.859375 -7.140625 L 5.921875 -7.328125 L 6.046875 -7.796875 L 6.15625 -7.984375 L 6.296875 -8.390625 L 6.328125 -8.578125 L 6.484375 -9.171875 L 6.5625 -9.421875 L 6.65625 -9.609375 L 6.734375 -9.859375 L 6.84375 -10.046875 L 6.859375 -10.234375 L 6.96875 -10.5 L 7.078125 -10.71875 L 7.21875 -11.15625 L 7.296875 -11.421875 L 7.4375 -11.859375 L 7.546875 -12.21875 L 7.765625 -12.296875 L 7.796875 -11.671875 L 7.765625 -10.6875 L 7.734375 -9.65625 L 7.765625 -9.015625 L 7.703125 -8.796875 L 7.703125 -8.328125 L 7.6875 -8.140625 L 7.6875 -7.4375 L 7.65625 -7.21875 L 7.6875 -7 L 7.65625 -6.625 L 7.484375 -6.484375 Z M 6.671875 -6.484375 "/></g></g></g><g fill="#ffffff" fill-opacity="1"><g transform="translate(133.406269, 287.054682)"><g><path d="M 5.890625 0.15625 L 6.4375 0.15625 L 6.84375 0.140625 L 7.46875 0.140625 L 8 0.078125 L 8.171875 0.03125 L 8.40625 -0.03125 L 8.734375 -0.109375 L 8.90625 -0.15625 L 9.34375 -0.328125 L 9.46875 -0.4375 L 9.796875 -0.5625 L 10.015625 -0.703125 L 10.265625 -0.84375 L 10.46875 -1.109375 L 10.71875 -1.296875 L 10.890625 -1.546875 L 10.984375 -1.796875 L 11.125 -1.984375 L 11.234375 -2.171875 L 11.40625 -2.546875 L 11.5 -2.71875 L 11.703125 -3.0625 L 11.78125 -3.421875 L 11.921875 -3.578125 L 12 -4.046875 L 12.109375 -4.390625 L 12.21875 -4.71875 L 12.265625 -4.90625 L 12.328125 -5.078125 L 12.328125 -5.265625 L 12.375 -5.515625 L 12.453125 -5.8125 L 12.515625 -6 L 12.515625 -6.15625 L 12.59375 -6.515625 L 12.703125 -6.84375 L 12.703125 -6.890625 L 12.78125 -7.28125 L 12.8125 -7.46875 L 12.921875 -7.84375 L 13 -8.203125 L 13.046875 -8.515625 L 13.078125 -8.875 L 13.1875 -9.09375 L 13.25 -9.46875 L 13.25 -9.65625 L 13.359375 -10.046875 L 13.375 -10.421875 L 13.4375 -10.796875 L 13.46875 -10.96875 L 13.546875 -11.34375 L 13.546875 -11.5 L 13.625 -11.921875 L 13.8125 -12.515625 L 13.78125 -12.703125 L 13.84375 -12.890625 L 13.875 -13.046875 L 13.921875 -13.25 L 13.921875 -13.4375 L 14 -13.765625 L 14.0625 -14 L 14.140625 -14.25 L 14.1875 -14.5 L 14.28125 -14.796875 L 14.28125 -14.953125 L 14.390625 -15.28125 L 14.359375 -15.4375 L 14.46875 -15.796875 L 14.5 -15.984375 L 14.546875 -16.203125 L 14.578125 -16.390625 L 14.6875 -16.765625 L 14.703125 -16.984375 L 14.765625 -17.375 L 14.8125 -17.59375 L 14.84375 -18 L 15.015625 -18.375 L 14.984375 -18.78125 L 14.765625 -19 L 14.546875 -19.03125 L 14.296875 -19 L 14.109375 -18.96875 L 13.84375 -19 L 13.65625 -18.96875 L 13.4375 -18.96875 L 13.25 -19 L 13.046875 -19 L 12.265625 -18.96875 L 12.078125 -19 L 11.890625 -19 L 11.078125 -18.96875 L 10.984375 -18.78125 L 10.96875 -18.5625 L 10.890625 -18.21875 L 10.796875 -17.828125 L 10.71875 -17.484375 L 10.6875 -17.3125 L 10.671875 -16.984375 L 10.640625 -16.828125 L 10.5 -16.53125 L 10.53125 -16.34375 L 10.46875 -15.984375 L 10.421875 -15.609375 L 10.34375 -15.21875 L 10.3125 -15.015625 L 10.265625 -14.625 L 10.234375 -14.40625 L 10.125 -14.03125 L 10.15625 -13.734375 L 9.984375 -13.46875 L 9.984375 -13.078125 L 9.953125 -12.953125 L 9.90625 -12.5625 L 9.90625 -12.34375 L 9.796875 -11.96875 L 9.765625 -11.75 L 9.65625 -11.375 L 9.609375 -11.046875 L 9.53125 -10.6875 L 9.46875 -10.34375 L 9.46875 -10.125 L 9.34375 -9.75 L 9.28125 -9.546875 L 9.25 -9.234375 L 9.140625 -8.734375 L 9.09375 -8.46875 L 9.03125 -8.109375 L 9.015625 -7.921875 L 8.953125 -7.703125 L 8.90625 -7.515625 L 8.875 -7.28125 L 8.828125 -7.03125 L 8.765625 -6.859375 L 8.734375 -6.59375 L 8.6875 -6.40625 L 8.609375 -6.03125 L 8.46875 -5.484375 L 8.40625 -5.3125 L 8.359375 -5.078125 L 8.21875 -4.796875 L 8.03125 -4.375 L 7.953125 -4.203125 L 7.796875 -3.984375 L 7.515625 -3.765625 L 6.890625 -3.6875 L 6.328125 -3.765625 L 6.03125 -3.859375 L 5.734375 -4.203125 L 5.703125 -4.53125 L 5.703125 -4.828125 L 5.671875 -5.265625 L 5.703125 -5.453125 L 5.734375 -5.625 L 5.75 -5.859375 L 5.828125 -6.515625 L 5.921875 -6.859375 L 5.9375 -7.25 L 6.03125 -7.796875 L 6.15625 -8.765625 L 6.21875 -9.09375 L 6.328125 -9.4375 L 6.328125 -9.796875 L 6.40625 -10.125 L 6.453125 -10.28125 L 6.515625 -10.46875 L 6.546875 -10.6875 L 6.5625 -10.9375 L 6.671875 -11.1875 L 6.625 -11.53125 L 6.65625 -11.703125 L 6.78125 -12.078125 L 6.78125 -12.265625 L 6.84375 -12.484375 L 6.859375 -12.671875 L 6.890625 -12.953125 L 6.96875 -13.140625 L 7 -13.296875 L 7.0625 -13.703125 L 7.140625 -14.109375 L 7.171875 -14.328125 L 7.296875 -14.703125 L 7.328125 -14.90625 L 7.328125 -15.171875 L 7.359375 -15.390625 L 7.40625 -15.734375 L 7.515625 -16.0625 L 7.515625 -16.25 L 7.578125 -16.421875 L 7.59375 -16.609375 L 7.65625 -16.828125 L 7.703125 -17.078125 L 7.765625 -17.265625 L 7.734375 -17.640625 L 7.796875 -17.828125 L 7.84375 -18 L 7.84375 -18.375 L 7.8125 -18.78125 L 7.578125 -18.96875 L 7.140625 -19 L 6.890625 -19.03125 L 6.25 -18.96875 L 5.109375 -19 L 4.859375 -18.96875 L 4.71875 -18.96875 L 4.265625 -18.9375 L 4.09375 -18.890625 L 4.046875 -18.671875 L 3.9375 -18.296875 L 3.875 -17.90625 L 3.828125 -17.640625 L 3.765625 -17.5 L 3.640625 -17.15625 L 3.5625 -16.390625 L 3.5 -16.234375 L 3.5 -16.046875 L 3.421875 -15.65625 L 3.421875 -15.4375 L 3.390625 -15.21875 L 3.3125 -14.84375 L 3.28125 -14.625 L 3.25 -14.4375 L 3.125 -14.09375 L 3.09375 -13.921875 L 3.09375 -13.734375 L 3.046875 -13.375 L 2.984375 -13.21875 L 2.90625 -12.453125 L 2.828125 -12.296875 L 2.796875 -11.921875 L 2.796875 -11.703125 L 2.6875 -11.3125 L 2.609375 -10.96875 L 2.578125 -10.578125 L 2.46875 -10.234375 L 2.46875 -9.875 L 2.421875 -9.6875 L 2.328125 -9.359375 L 2.3125 -9.171875 L 2.328125 -8.984375 L 2.25 -8.65625 L 2.21875 -8.5 L 2.203125 -8.3125 L 2.09375 -7.984375 L 2.09375 -7.625 L 2.03125 -7.359375 L 1.984375 -7.03125 L 1.953125 -6.625 L 1.921875 -6.265625 L 1.8125 -5.53125 L 1.765625 -5.296875 L 1.734375 -4.375 L 1.703125 -4.203125 L 1.8125 -3.28125 L 1.84375 -2.90625 L 1.953125 -2.46875 L 2.171875 -2.09375 L 2.390625 -1.65625 L 2.421875 -1.578125 L 2.546875 -1.359375 L 2.6875 -1.1875 L 2.84375 -1 L 3.125 -0.734375 L 3.65625 -0.40625 L 3.828125 -0.328125 L 4.015625 -0.25 L 4.484375 -0.078125 L 4.59375 -0.03125 L 4.78125 0.03125 Z M 5.890625 0.15625 "/></g></g></g><g fill="#ffffff" fill-opacity="1"><g transform="translate(155.41537, 287.054682)"><g><path d="M 3.359375 0.078125 L 3.6875 0 L 6.046875 0 L 6.375 -0.140625 L 6.4375 -0.296875 L 6.515625 -0.671875 L 6.5625 -1.0625 L 6.734375 -1.8125 L 6.859375 -2.421875 L 6.84375 -2.625 L 6.921875 -3.015625 L 6.96875 -3.234375 L 7.109375 -3.796875 L 7.1875 -4.15625 L 7.21875 -4.34375 L 7.328125 -4.703125 L 7.40625 -5.125 L 7.484375 -5.515625 L 7.46875 -5.703125 L 7.484375 -5.859375 L 7.515625 -6.046875 L 7.625 -6.375 L 7.65625 -6.5625 L 7.703125 -6.734375 L 7.734375 -6.890625 L 7.734375 -7.171875 L 7.796875 -7.40625 L 7.875 -7.8125 L 7.953125 -8.203125 L 7.953125 -8.359375 L 8 -8.515625 L 8.03125 -8.90625 L 8.140625 -9.09375 L 8.21875 -9.421875 L 8.25 -9.765625 L 8.25 -9.953125 L 8.328125 -10.125 L 8.40625 -10.5 L 8.46875 -10.6875 L 8.515625 -11.09375 L 8.65625 -11.421875 L 8.65625 -11.609375 L 8.6875 -11.78125 L 8.71875 -12.109375 L 8.71875 -12.265625 L 8.828125 -12.625 L 8.953125 -13 L 8.90625 -13.140625 L 9.015625 -13.359375 L 9.125 -13.84375 L 9.140625 -14.03125 L 9.203125 -14.390625 L 9.25 -14.546875 L 9.25 -14.703125 L 9.34375 -14.90625 L 9.3125 -15.0625 L 9.359375 -15.25 L 9.609375 -15.28125 L 10.75 -15.25 L 11.015625 -15.25 L 11.265625 -15.28125 L 11.59375 -15.28125 L 11.828125 -15.25 L 12.109375 -15.28125 L 12.21875 -15.53125 L 12.234375 -15.90625 L 12.296875 -16.09375 L 12.40625 -16.453125 L 12.4375 -16.765625 L 12.453125 -16.9375 L 12.515625 -17.125 L 12.5625 -17.453125 L 12.5625 -17.609375 L 12.625 -17.796875 L 12.640625 -17.96875 L 12.640625 -18.15625 L 12.703125 -18.375 L 12.734375 -18.5625 L 12.734375 -18.734375 L 12.671875 -18.9375 L 12.4375 -19 L 12.046875 -19.03125 L 10.375 -19.03125 L 10.125 -19.046875 L 9.546875 -19.03125 L 9.140625 -19.046875 L 7.40625 -19.03125 L 6.8125 -19.03125 L 6.625 -19.046875 L 4.609375 -19.046875 L 4.421875 -19.03125 L 4.234375 -19.03125 L 4.09375 -19.046875 L 3.390625 -19.046875 L 3.203125 -19.03125 L 2.953125 -18.828125 L 2.828125 -18.53125 L 2.796875 -18.375 L 2.796875 -18 L 2.71875 -17.828125 L 2.609375 -17.484375 L 2.578125 -17.09375 L 2.53125 -16.9375 L 2.421875 -16.5625 L 2.4375 -16.359375 L 2.4375 -16.15625 L 2.359375 -15.9375 L 2.3125 -15.609375 L 2.390625 -15.359375 L 2.625 -15.28125 L 2.84375 -15.28125 L 3.125 -15.25 L 3.359375 -15.25 L 3.5625 -15.28125 L 3.9375 -15.25 L 5.40625 -15.25 L 5.375 -14.8125 L 5.3125 -14.40625 L 5.265625 -14.21875 L 5.1875 -13.875 L 5.1875 -13.703125 L 5.15625 -13.515625 L 5.15625 -13.359375 L 5.125 -13.1875 L 5 -12.75 L 4.9375 -12.5625 L 4.90625 -12.375 L 4.90625 -12.15625 L 4.859375 -12.015625 L 4.859375 -11.75 L 4.71875 -11.453125 L 4.75 -11.265625 L 4.671875 -10.859375 L 4.609375 -10.6875 L 4.609375 -10.5 L 4.5 -10.34375 L 4.453125 -10.15625 L 4.453125 -9.90625 L 4.375 -9.640625 L 4.375 -9.25 L 4.3125 -9.09375 L 4.171875 -8.765625 L 4.234375 -8.578125 L 4.171875 -8.390625 L 4.078125 -7.984375 L 3.9375 -7.59375 L 3.875 -7.40625 L 3.859375 -7.21875 L 3.90625 -6.953125 L 3.765625 -6.671875 L 3.75 -6.296875 L 3.6875 -6.140625 L 3.640625 -5.78125 L 3.609375 -5.59375 L 3.5625 -5.40625 L 3.46875 -5 L 3.390625 -4.671875 L 3.390625 -4.453125 L 3.25 -3.875 L 3.28125 -3.65625 L 3.25 -3.46875 L 3.125 -3.09375 L 3.125 -2.90625 L 3.09375 -2.53125 L 3.046875 -2.359375 L 3.015625 -1.953125 L 2.953125 -1.765625 L 2.765625 -1.1875 L 2.734375 -0.625 L 2.6875 -0.21875 L 2.9375 0 L 3.125 0 Z M 3.359375 0.078125 "/></g></g></g><g fill="#ffffff" fill-opacity="1"><g transform="translate(174.222302, 287.054682)"><g><path d="M 6.5625 0.4375 L 7.171875 0.359375 L 7.46875 0.265625 L 7.65625 0.25 L 8.03125 0.15625 L 8.25 0.109375 L 8.4375 0.078125 L 9.0625 -0.15625 L 9.171875 -0.25 L 9.5 -0.46875 L 9.828125 -0.703125 L 9.953125 -0.875 L 10.125 -1 L 10.453125 -1.328125 L 10.5 -1.5 L 10.640625 -1.65625 L 10.75 -1.8125 L 10.984375 -2.171875 L 11.125 -2.359375 L 11.34375 -2.84375 L 11.53125 -3.234375 L 11.5625 -3.5 L 11.703125 -3.6875 L 11.78125 -3.984375 L 11.78125 -4.171875 L 11.859375 -4.5 L 12 -4.796875 L 12.015625 -5.109375 L 12.109375 -5.265625 L 12.234375 -5.59375 L 12.21875 -5.75 L 12.484375 -6.703125 L 12.5625 -6.859375 L 12.625 -7.25 L 12.671875 -7.4375 L 12.671875 -7.6875 L 12.75 -8.171875 L 12.84375 -8.328125 L 12.921875 -8.6875 L 12.953125 -9.015625 L 13.03125 -9.359375 L 13.078125 -9.71875 L 13.1875 -10.0625 L 13.15625 -10.390625 L 13.296875 -10.6875 L 13.265625 -10.96875 L 13.328125 -11.40625 L 13.375 -11.59375 L 13.4375 -12.4375 L 13.484375 -12.8125 L 13.515625 -12.96875 L 13.515625 -13.25 L 13.484375 -13.4375 L 13.515625 -13.59375 L 13.5625 -13.78125 L 13.59375 -14.140625 L 13.59375 -14.328125 L 13.5625 -14.6875 L 13.59375 -14.84375 L 13.625 -15.203125 L 13.625 -15.390625 L 13.59375 -15.609375 L 13.546875 -16.125 L 13.46875 -16.53125 L 13.40625 -16.71875 L 13.359375 -16.875 L 13.265625 -17.046875 L 13.109375 -17.390625 L 13.03125 -17.59375 L 12.890625 -17.75 L 12.59375 -18.015625 L 12.296875 -18.265625 L 12.15625 -18.421875 L 11.9375 -18.5625 L 11.453125 -18.890625 L 11.046875 -19.078125 L 10.890625 -19.140625 L 10.671875 -19.15625 L 10.453125 -19.25 L 10.015625 -19.296875 L 9.71875 -19.328125 L 9.546875 -19.34375 L 9.0625 -19.375 L 8.734375 -19.34375 L 8.359375 -19.328125 L 7.875 -19.25 L 7.59375 -19.21875 L 7.1875 -19.109375 L 7.03125 -19.078125 L 6.625 -18.96875 L 6.296875 -18.8125 L 5.96875 -18.625 L 5.78125 -18.484375 L 5.5625 -18.40625 L 5.21875 -18.15625 L 4.828125 -17.75 L 4.703125 -17.59375 L 4.5 -17.453125 L 4.28125 -17.125 L 4.078125 -16.765625 L 3.96875 -16.609375 L 3.9375 -16.421875 L 3.6875 -16.0625 L 3.578125 -15.875 L 3.421875 -15.546875 L 3.28125 -15.171875 L 3.171875 -14.84375 L 3.09375 -14.65625 L 2.9375 -14.296875 L 2.875 -13.953125 L 2.734375 -13.765625 L 2.625 -13.078125 L 2.578125 -12.703125 L 2.546875 -12.53125 L 2.46875 -12.34375 L 2.421875 -12.015625 L 2.421875 -11.640625 L 2.359375 -11.453125 L 2.203125 -11.1875 L 2.21875 -11.015625 L 2.171875 -10.828125 L 2.171875 -10.671875 L 2.109375 -10.46875 L 2.03125 -10.3125 L 2.03125 -10.125 L 1.953125 -9.796875 L 1.953125 -9.4375 L 1.875 -9.125 L 1.796875 -8.625 L 1.734375 -8.4375 L 1.6875 -8.09375 L 1.734375 -7.953125 L 1.625 -7.578125 L 1.625 -7.375 L 1.578125 -7 L 1.578125 -6.78125 L 1.46875 -6.40625 L 1.40625 -5.8125 L 1.40625 -5.625 L 1.4375 -5.40625 L 1.359375 -5.125 L 1.359375 -4.609375 L 1.296875 -4.421875 L 1.390625 -3.875 L 1.40625 -3.71875 L 1.4375 -3.34375 L 1.5 -3.171875 L 1.515625 -2.984375 L 1.578125 -2.828125 L 1.625 -2.6875 L 1.65625 -2.53125 L 1.734375 -2.328125 L 1.734375 -2.171875 L 1.953125 -1.8125 L 2.09375 -1.625 L 2.171875 -1.46875 L 2.3125 -1.328125 L 2.390625 -1.1875 L 2.765625 -0.765625 L 3.25 -0.359375 L 3.640625 -0.109375 L 3.828125 0 L 4.234375 0.109375 L 4.453125 0.140625 L 5.078125 0.328125 L 5.3125 0.359375 L 5.515625 0.375 L 5.859375 0.359375 Z M 6.34375 -3.25 L 6.1875 -3.28125 L 5.96875 -3.34375 L 5.75 -3.421875 L 5.625 -3.5625 L 5.453125 -3.796875 L 5.40625 -3.90625 L 5.3125 -4.09375 L 5.3125 -4.859375 L 5.234375 -5.046875 L 5.34375 -5.3125 L 5.375 -5.640625 L 5.296875 -5.828125 L 5.375 -6.03125 L 5.375 -6.21875 L 5.453125 -6.625 L 5.453125 -6.84375 L 5.515625 -7.03125 L 5.515625 -7.25 L 5.5625 -7.484375 L 5.53125 -7.59375 L 5.59375 -7.796875 L 5.5625 -8 L 5.703125 -8.390625 L 5.78125 -8.578125 L 5.75 -8.796875 L 5.78125 -8.984375 L 5.78125 -9.171875 L 5.828125 -9.546875 L 5.890625 -9.75 L 6 -10.171875 L 6.078125 -10.390625 L 6.140625 -10.796875 L 6.1875 -10.984375 L 6.21875 -11.1875 L 6.296875 -11.609375 L 6.375 -12 L 6.484375 -12.375 L 6.59375 -12.921875 L 6.625 -13.140625 L 6.625 -13.1875 L 6.78125 -13.765625 L 6.84375 -13.984375 L 6.890625 -14.171875 L 7.0625 -14.515625 L 7.171875 -14.703125 L 7.28125 -15.03125 L 7.46875 -15.328125 L 7.734375 -15.578125 L 8.171875 -15.734375 L 8.390625 -15.796875 L 8.90625 -15.828125 L 9.34375 -15.640625 L 9.53125 -15.390625 L 9.640625 -15.21875 L 9.75 -14.6875 L 9.6875 -14.296875 L 9.65625 -13.953125 L 9.609375 -13.46875 L 9.609375 -13.109375 L 9.546875 -12.859375 L 9.46875 -12.484375 L 9.421875 -12.265625 L 9.390625 -11.921875 L 9.421875 -11.71875 L 9.359375 -11.53125 L 9.3125 -11.3125 L 9.25 -10.984375 L 9.140625 -10.578125 L 9.171875 -10.125 L 9.09375 -9.953125 L 9.03125 -9.4375 L 8.953125 -9.234375 L 8.875 -8.984375 L 8.828125 -8.359375 L 8.734375 -7.953125 L 8.65625 -7.703125 L 8.6875 -7.625 L 8.6875 -7.40625 L 8.609375 -7.25 L 8.578125 -7.03125 L 8.5 -6.671875 L 8.40625 -6.484375 L 8.390625 -6.109375 L 8.3125 -5.890625 L 8.25 -5.515625 L 8.109375 -4.90625 L 8.109375 -4.703125 L 8.0625 -4.5 L 7.890625 -4.125 L 7.703125 -3.75 L 7.328125 -3.46875 L 7.078125 -3.359375 L 6.703125 -3.25 Z M 6.34375 -3.25 "/></g></g></g><g fill="#ffffff" fill-opacity="1"><g transform="translate(195.607245, 287.054682)"><g><path d="M 3.140625 0.046875 L 3.34375 0.03125 L 3.46875 0 L 4.28125 0 L 4.609375 -0.140625 L 4.78125 -0.4375 L 4.796875 -0.703125 L 4.828125 -0.875 L 4.90625 -1.0625 L 4.9375 -1.40625 L 4.9375 -1.765625 L 5.015625 -2.09375 L 5.046875 -2.25 L 5.109375 -2.625 L 5.15625 -3.0625 L 5.1875 -3.3125 L 5.21875 -3.53125 L 5.3125 -3.859375 L 5.3125 -4.015625 L 5.375 -4.390625 L 5.40625 -4.78125 L 5.40625 -4.96875 L 5.453125 -5.296875 L 5.515625 -5.671875 L 5.5625 -5.859375 L 5.59375 -6.03125 L 5.640625 -6.375 L 5.671875 -6.5625 L 5.671875 -7.078125 L 5.734375 -7.25 L 5.75 -7.4375 L 5.859375 -8.4375 L 5.96875 -8.875 L 5.96875 -9.203125 L 6.109375 -10.3125 L 6.21875 -10.3125 L 6.328125 -9.0625 L 6.34375 -8.90625 L 6.375 -8.71875 L 6.4375 -8.3125 L 6.484375 -7.734375 L 6.65625 -6.59375 L 6.703125 -6.25 L 6.78125 -5.859375 L 6.84375 -5.703125 L 6.890625 -5.125 L 6.953125 -4.671875 L 7 -4.484375 L 7.0625 -4.078125 L 7.109375 -3.875 L 7.140625 -3.65625 L 7.28125 -3.203125 L 7.296875 -3.015625 L 7.625 -2.84375 L 7.875 -2.828125 L 8.390625 -2.734375 L 8.984375 -2.796875 L 9.234375 -2.734375 L 9.390625 -2.734375 L 9.6875 -2.796875 L 9.828125 -3.0625 L 10.015625 -3.390625 L 10.75 -5 L 11.34375 -6.109375 L 11.703125 -6.921875 L 12.328125 -8.3125 L 13.140625 -9.90625 L 13.21875 -9.90625 L 13.109375 -9.25 L 13.046875 -9.0625 L 13.03125 -8.90625 L 12.953125 -8.515625 L 12.859375 -8.03125 L 12.640625 -6.96875 L 12.59375 -6.78125 L 12.59375 -6.625 L 12.5625 -6.4375 L 12.484375 -6.140625 L 12.453125 -5.9375 L 12.4375 -5.78125 L 12.40625 -5.453125 L 12.328125 -5.265625 L 12.265625 -4.90625 L 12.265625 -4.53125 L 12.1875 -4.171875 L 12.078125 -3.859375 L 12.046875 -3.5 L 11.9375 -3.140625 L 11.859375 -2.765625 L 11.8125 -2.359375 L 11.75 -1.984375 L 11.703125 -1.765625 L 11.640625 -1.359375 L 11.609375 -1.171875 L 11.5 -0.625 L 11.53125 -0.4375 L 11.59375 -0.140625 L 11.78125 0 L 11.96875 0 L 12.109375 0.03125 L 12.484375 0 L 13.671875 0 L 14.5 0.03125 L 14.796875 0.03125 L 15.171875 -0.078125 L 15.25 -0.328125 L 15.3125 -0.671875 L 15.390625 -1.03125 L 15.46875 -1.40625 L 15.5 -1.625 L 15.578125 -1.984375 L 15.578125 -2.171875 L 15.609375 -2.359375 L 15.640625 -2.71875 L 15.6875 -2.875 L 15.71875 -3.0625 L 15.796875 -3.421875 L 15.828125 -3.640625 L 15.875 -4.015625 L 15.9375 -4.171875 L 15.984375 -4.5625 L 16.015625 -4.78125 L 16.046875 -4.96875 L 16.125 -5.375 L 16.15625 -5.5625 L 16.28125 -5.96875 L 16.34375 -6.328125 L 16.34375 -6.484375 L 16.421875 -6.859375 L 16.46875 -7.28125 L 16.390625 -7.484375 L 16.53125 -7.6875 L 16.609375 -8.03125 L 16.640625 -8.203125 L 16.671875 -8.390625 L 16.6875 -8.546875 L 16.671875 -8.734375 L 16.671875 -8.921875 L 16.765625 -9.125 L 16.796875 -9.53125 L 16.828125 -9.828125 L 16.90625 -10.15625 L 16.9375 -10.34375 L 16.96875 -10.5 L 17.046875 -10.828125 L 17.09375 -11.203125 L 17.1875 -11.5625 L 17.234375 -11.71875 L 17.265625 -11.921875 L 17.265625 -12.078125 L 17.28125 -12.328125 L 17.390625 -12.53125 L 17.421875 -12.96875 L 17.484375 -13.359375 L 17.5 -13.515625 L 17.640625 -13.875 L 17.71875 -14.03125 L 17.71875 -14.5 L 17.828125 -14.6875 L 17.796875 -14.84375 L 17.828125 -15.171875 L 17.890625 -15.328125 L 17.96875 -15.71875 L 17.96875 -15.9375 L 18.109375 -16.28125 L 18.125 -16.46875 L 18.1875 -16.640625 L 18.1875 -17.015625 L 18.21875 -17.09375 L 18.234375 -17.28125 L 18.265625 -17.453125 L 18.296875 -17.640625 L 18.3125 -17.75 L 18.34375 -18.125 L 18.40625 -18.296875 L 18.484375 -18.640625 L 18.421875 -18.828125 L 18.1875 -19 L 17.640625 -18.96875 L 16.71875 -19.03125 L 16.28125 -19 L 15.640625 -19.03125 L 14.984375 -18.96875 L 14.84375 -18.703125 L 14.65625 -18.421875 L 14.515625 -18.109375 L 14.40625 -17.9375 L 14.390625 -17.78125 L 14.328125 -17.671875 L 14.25 -17.53125 L 14.140625 -17.375 L 13.984375 -17.046875 L 13.78125 -16.75 L 13.5625 -16.359375 L 13.40625 -16.015625 L 13.03125 -15.25 L 12.921875 -15.09375 L 12.375 -14 L 12.109375 -13.59375 L 12.078125 -13.4375 L 11.96875 -13.265625 L 11.71875 -12.921875 L 11.609375 -12.59375 L 11.453125 -12.4375 L 11.265625 -12.078125 L 11.15625 -11.8125 L 10.984375 -11.5625 L 10.796875 -11.15625 L 10.796875 -10.984375 L 10.609375 -10.75 L 10.453125 -10.46875 L 9.953125 -9.46875 L 9.859375 -9.3125 L 9.765625 -9.171875 L 9.421875 -8.5 L 9.34375 -8.5 L 9.234375 -9.015625 L 9.171875 -9.359375 L 9.125 -9.53125 L 9.125 -9.71875 L 9.09375 -9.90625 L 9.09375 -10.0625 L 8.984375 -10.453125 L 8.875 -11.375 L 8.796875 -11.75 L 8.796875 -11.9375 L 8.71875 -12.328125 L 8.6875 -12.671875 L 8.6875 -12.84375 L 8.65625 -13.1875 L 8.578125 -13.359375 L 8.546875 -13.546875 L 8.546875 -13.734375 L 8.5 -14.109375 L 8.46875 -14.28125 L 8.359375 -14.84375 L 8.359375 -15.0625 L 8.3125 -15.25 L 8.28125 -15.640625 L 8.21875 -15.984375 L 8.140625 -16.421875 L 8.109375 -16.875 L 8 -17.421875 L 7.953125 -17.796875 L 7.890625 -18 L 7.8125 -18.75 L 7.65625 -19 L 7.296875 -19 L 6.765625 -19.03125 L 6.265625 -19 L 5.8125 -19 L 5.34375 -19.03125 L 4.828125 -19 L 4.453125 -19 L 4.171875 -18.96875 L 4.015625 -18.640625 L 4.015625 -18.453125 L 3.90625 -18.21875 L 3.875 -17.90625 L 3.828125 -17.71875 L 3.859375 -17.5 L 3.765625 -17.15625 L 3.75 -16.96875 L 3.65625 -16.671875 L 3.609375 -16.34375 L 3.578125 -15.984375 L 3.578125 -15.828125 L 3.421875 -15.015625 L 3.390625 -14.84375 L 3.390625 -14.65625 L 3.34375 -14.5 L 3.28125 -14.296875 L 3.203125 -13.953125 L 3.171875 -13.734375 L 3.125 -13.359375 L 3.09375 -13.1875 L 3.046875 -12.8125 L 2.984375 -12.640625 L 2.9375 -12.296875 L 2.90625 -11.9375 L 2.828125 -11.609375 L 2.734375 -11.421875 L 2.71875 -11.265625 L 2.65625 -10.90625 L 2.625 -10.71875 L 2.578125 -10.5625 L 2.578125 -10.375 L 2.546875 -10.046875 L 2.5 -9.71875 L 2.4375 -9.5 L 2.359375 -9.25 L 2.390625 -9.09375 L 2.3125 -8.765625 L 2.28125 -8.609375 L 2.28125 -8.359375 L 2.140625 -7.8125 L 2.09375 -7.4375 L 2.09375 -7.21875 L 1.984375 -6.8125 L 1.953125 -6.375 L 1.90625 -5.96875 L 1.84375 -5.8125 L 1.8125 -5.421875 L 1.796875 -5.265625 L 1.765625 -5.046875 L 1.703125 -4.828125 L 1.625 -4.453125 L 1.59375 -4.078125 L 1.578125 -3.859375 L 1.5 -3.65625 L 1.5 -3.46875 L 1.46875 -3.25 L 1.390625 -2.875 L 1.328125 -2.6875 L 1.28125 -2.359375 L 1.1875 -2.0625 L 1.171875 -1.703125 L 1.140625 -1.515625 L 1.0625 -1.28125 L 1.109375 -1.03125 L 1.078125 -0.875 L 1.0625 -0.46875 L 1.0625 -0.265625 L 1.1875 -0.109375 L 1.296875 -0.03125 L 1.6875 0 L 2.421875 0 Z M 3.140625 0.046875 "/></g></g></g><g fill="#ffffff" fill-opacity="1"><g transform="translate(221.361245, 287.054682)"><g><path d="M 2.203125 0.046875 L 2.421875 0.03125 L 3.171875 0.046875 L 3.34375 -0.046875 L 3.453125 -0.25 L 3.53125 -0.375 L 3.609375 -0.671875 L 3.765625 -1.078125 L 4.046875 -1.59375 L 4.15625 -1.921875 L 4.234375 -2.109375 L 4.28125 -2.3125 L 4.484375 -2.65625 L 4.609375 -2.953125 L 5.34375 -2.953125 L 6.546875 -2.9375 L 6.96875 -2.875 L 7.578125 -2.84375 L 7.59375 -2.625 L 7.59375 -1.359375 L 7.578125 -1.078125 L 7.59375 -0.8125 L 7.625 -0.328125 L 7.6875 -0.046875 L 7.796875 0.03125 L 8.203125 0.03125 L 8.546875 0.046875 L 8.828125 0.03125 L 9.015625 0 L 9.34375 0.03125 L 9.546875 0.03125 L 10.15625 0 L 10.53125 0 L 10.75 0.03125 L 10.9375 0 C 11.046875 0 11.125 0.03125 11.234375 0 C 11.375 -0.078125 11.34375 -0.328125 11.3125 -0.4375 L 11.3125 -1 L 11.296875 -1.59375 L 11.296875 -1.84375 L 11.265625 -2.0625 L 11.296875 -2.4375 L 11.296875 -2.84375 L 11.265625 -3.046875 L 11.234375 -3.390625 L 11.234375 -3.5625 L 11.1875 -4.59375 L 11.203125 -4.78125 L 11.1875 -5.15625 L 11.203125 -5.5625 L 11.1875 -5.96875 L 11.1875 -6.15625 L 11.15625 -7.40625 L 11.15625 -8.21875 L 11.125 -8.4375 L 11.09375 -8.765625 L 11.09375 -9.828125 L 11.046875 -10.125 L 11.015625 -10.5625 L 11.015625 -10.71875 L 10.984375 -11.078125 L 11.015625 -11.234375 L 10.984375 -11.609375 L 10.984375 -12.15625 L 10.9375 -12.53125 L 10.9375 -13.140625 L 10.96875 -13.328125 L 10.9375 -13.734375 L 10.9375 -14.109375 L 10.890625 -14.65625 L 10.859375 -15.015625 L 10.859375 -15.390625 L 10.828125 -16.359375 L 10.828125 -16.859375 L 10.78125 -17.015625 L 10.78125 -17.609375 L 10.6875 -18.78125 L 10.5 -18.921875 L 10.375 -18.96875 L 9.9375 -18.96875 L 9.6875 -18.9375 L 9.5 -19 L 9.25 -19 L 8.734375 -18.96875 L 8.3125 -18.96875 L 8.03125 -18.9375 L 7.515625 -18.96875 L 7.25 -18.96875 L 7.0625 -18.9375 L 6.953125 -18.640625 L 6.859375 -18.484375 L 6.78125 -18.296875 L 6.546875 -17.796875 L 6.34375 -17.453125 L 6.1875 -16.96875 L 6.140625 -16.828125 L 6.03125 -16.671875 L 5.859375 -16.359375 L 5.8125 -16.171875 L 5.75 -16.015625 L 5.671875 -15.84375 L 5.625 -15.65625 L 5.375 -15.171875 L 5.296875 -14.984375 L 5.21875 -14.703125 L 5.046875 -14.46875 L 4.96875 -14.296875 L 4.828125 -13.953125 L 4.609375 -13.375 L 4.5 -13.21875 L 4.375 -13.03125 L 4.28125 -12.640625 L 4.125 -12.296875 L 4.078125 -12.15625 L 3.984375 -11.8125 L 3.859375 -11.609375 L 3.765625 -11.265625 L 3.6875 -11.09375 L 3.53125 -10.796875 L 3.390625 -10.34375 L 3.203125 -9.984375 L 3.125 -9.765625 L 2.90625 -9.015625 L 2.828125 -8.84375 L 2.6875 -8.46875 L 2.609375 -8.3125 L 2.53125 -8.109375 L 2.5 -7.953125 L 2.328125 -7.578125 L 2.28125 -7.375 L 2.109375 -7.0625 L 1.984375 -6.84375 L 1.875 -6.40625 L 1.6875 -6.03125 L 1.59375 -5.828125 L 1.46875 -5.484375 L 1.390625 -5.3125 L 1.359375 -5.125 L 1.296875 -4.96875 L 1.171875 -4.640625 L 1.03125 -4.453125 L 0.984375 -4.28125 L 0.765625 -3.796875 L 0.65625 -3.453125 L 0.359375 -2.796875 L 0.21875 -2.46875 L 0.046875 -2.140625 L -0.21875 -1.328125 L -0.4375 -0.984375 L -0.59375 -0.65625 L -0.625 -0.484375 L -0.671875 -0.296875 L -0.625 -0.078125 L -0.375 -0.03125 L 1.59375 0 L 1.796875 0.03125 Z M 6.671875 -6.484375 L 6.4375 -6.515625 L 6.140625 -6.546875 L 5.921875 -6.546875 L 5.734375 -6.703125 L 5.8125 -6.890625 L 5.859375 -7.140625 L 5.921875 -7.328125 L 6.046875 -7.796875 L 6.15625 -7.984375 L 6.296875 -8.390625 L 6.328125 -8.578125 L 6.484375 -9.171875 L 6.5625 -9.421875 L 6.65625 -9.609375 L 6.734375 -9.859375 L 6.84375 -10.046875 L 6.859375 -10.234375 L 6.96875 -10.5 L 7.078125 -10.71875 L 7.21875 -11.15625 L 7.296875 -11.421875 L 7.4375 -11.859375 L 7.546875 -12.21875 L 7.765625 -12.296875 L 7.796875 -11.671875 L 7.765625 -10.6875 L 7.734375 -9.65625 L 7.765625 -9.015625 L 7.703125 -8.796875 L 7.703125 -8.328125 L 7.6875 -8.140625 L 7.6875 -7.4375 L 7.65625 -7.21875 L 7.6875 -7 L 7.65625 -6.625 L 7.484375 -6.484375 Z M 6.671875 -6.484375 "/></g></g></g><g fill="#ffffff" fill-opacity="1"><g transform="translate(241.687841, 287.054682)"><g><path d="M 3.359375 0.078125 L 3.6875 0 L 6.046875 0 L 6.375 -0.140625 L 6.4375 -0.296875 L 6.515625 -0.671875 L 6.5625 -1.0625 L 6.734375 -1.8125 L 6.859375 -2.421875 L 6.84375 -2.625 L 6.921875 -3.015625 L 6.96875 -3.234375 L 7.109375 -3.796875 L 7.1875 -4.15625 L 7.21875 -4.34375 L 7.328125 -4.703125 L 7.40625 -5.125 L 7.484375 -5.515625 L 7.46875 -5.703125 L 7.484375 -5.859375 L 7.515625 -6.046875 L 7.625 -6.375 L 7.65625 -6.5625 L 7.703125 -6.734375 L 7.734375 -6.890625 L 7.734375 -7.171875 L 7.796875 -7.40625 L 7.875 -7.8125 L 7.953125 -8.203125 L 7.953125 -8.359375 L 8 -8.515625 L 8.03125 -8.90625 L 8.140625 -9.09375 L 8.21875 -9.421875 L 8.25 -9.765625 L 8.25 -9.953125 L 8.328125 -10.125 L 8.40625 -10.5 L 8.46875 -10.6875 L 8.515625 -11.09375 L 8.65625 -11.421875 L 8.65625 -11.609375 L 8.6875 -11.78125 L 8.71875 -12.109375 L 8.71875 -12.265625 L 8.828125 -12.625 L 8.953125 -13 L 8.90625 -13.140625 L 9.015625 -13.359375 L 9.125 -13.84375 L 9.140625 -14.03125 L 9.203125 -14.390625 L 9.25 -14.546875 L 9.25 -14.703125 L 9.34375 -14.90625 L 9.3125 -15.0625 L 9.359375 -15.25 L 9.609375 -15.28125 L 10.75 -15.25 L 11.015625 -15.25 L 11.265625 -15.28125 L 11.59375 -15.28125 L 11.828125 -15.25 L 12.109375 -15.28125 L 12.21875 -15.53125 L 12.234375 -15.90625 L 12.296875 -16.09375 L 12.40625 -16.453125 L 12.4375 -16.765625 L 12.453125 -16.9375 L 12.515625 -17.125 L 12.5625 -17.453125 L 12.5625 -17.609375 L 12.625 -17.796875 L 12.640625 -17.96875 L 12.640625 -18.15625 L 12.703125 -18.375 L 12.734375 -18.5625 L 12.734375 -18.734375 L 12.671875 -18.9375 L 12.4375 -19 L 12.046875 -19.03125 L 10.375 -19.03125 L 10.125 -19.046875 L 9.546875 -19.03125 L 9.140625 -19.046875 L 7.40625 -19.03125 L 6.8125 -19.03125 L 6.625 -19.046875 L 4.609375 -19.046875 L 4.421875 -19.03125 L 4.234375 -19.03125 L 4.09375 -19.046875 L 3.390625 -19.046875 L 3.203125 -19.03125 L 2.953125 -18.828125 L 2.828125 -18.53125 L 2.796875 -18.375 L 2.796875 -18 L 2.71875 -17.828125 L 2.609375 -17.484375 L 2.578125 -17.09375 L 2.53125 -16.9375 L 2.421875 -16.5625 L 2.4375 -16.359375 L 2.4375 -16.15625 L 2.359375 -15.9375 L 2.3125 -15.609375 L 2.390625 -15.359375 L 2.625 -15.28125 L 2.84375 -15.28125 L 3.125 -15.25 L 3.359375 -15.25 L 3.5625 -15.28125 L 3.9375 -15.25 L 5.40625 -15.25 L 5.375 -14.8125 L 5.3125 -14.40625 L 5.265625 -14.21875 L 5.1875 -13.875 L 5.1875 -13.703125 L 5.15625 -13.515625 L 5.15625 -13.359375 L 5.125 -13.1875 L 5 -12.75 L 4.9375 -12.5625 L 4.90625 -12.375 L 4.90625 -12.15625 L 4.859375 -12.015625 L 4.859375 -11.75 L 4.71875 -11.453125 L 4.75 -11.265625 L 4.671875 -10.859375 L 4.609375 -10.6875 L 4.609375 -10.5 L 4.5 -10.34375 L 4.453125 -10.15625 L 4.453125 -9.90625 L 4.375 -9.640625 L 4.375 -9.25 L 4.3125 -9.09375 L 4.171875 -8.765625 L 4.234375 -8.578125 L 4.171875 -8.390625 L 4.078125 -7.984375 L 3.9375 -7.59375 L 3.875 -7.40625 L 3.859375 -7.21875 L 3.90625 -6.953125 L 3.765625 -6.671875 L 3.75 -6.296875 L 3.6875 -6.140625 L 3.640625 -5.78125 L 3.609375 -5.59375 L 3.5625 -5.40625 L 3.46875 -5 L 3.390625 -4.671875 L 3.390625 -4.453125 L 3.25 -3.875 L 3.28125 -3.65625 L 3.25 -3.46875 L 3.125 -3.09375 L 3.125 -2.90625 L 3.09375 -2.53125 L 3.046875 -2.359375 L 3.015625 -1.953125 L 2.953125 -1.765625 L 2.765625 -1.1875 L 2.734375 -0.625 L 2.6875 -0.21875 L 2.9375 0 L 3.125 0 Z M 3.359375 0.078125 "/></g></g></g><g fill="#ffffff" fill-opacity="1"><g transform="translate(260.494773, 287.054682)"><g><path d="M 3.75 0.046875 L 4.453125 0.046875 L 4.75 -0.03125 L 4.828125 -0.265625 L 4.859375 -0.484375 L 4.9375 -0.84375 L 5 -1.21875 L 5.078125 -1.578125 L 5.1875 -2.21875 L 5.265625 -2.53125 L 5.265625 -2.71875 L 5.3125 -3.0625 L 5.375 -3.453125 L 5.453125 -3.828125 L 5.453125 -4.046875 L 5.5625 -4.390625 L 5.59375 -4.609375 L 5.671875 -5.015625 L 5.640625 -5.3125 L 5.78125 -5.59375 L 5.78125 -5.96875 L 5.8125 -6.109375 L 5.859375 -6.484375 L 5.859375 -6.703125 L 5.96875 -7.078125 L 5.96875 -7.296875 L 6.078125 -7.6875 L 6.140625 -8 L 6.1875 -8.359375 L 6.265625 -8.71875 L 6.265625 -8.921875 L 6.34375 -9.125 L 6.453125 -9.5 L 6.59375 -10.3125 L 6.671875 -10.578125 L 6.734375 -10.9375 L 6.734375 -11.125 L 6.765625 -11.34375 L 6.78125 -11.53125 L 6.78125 -11.78125 L 6.859375 -12.015625 L 6.953125 -12.40625 L 6.96875 -12.53125 L 7.0625 -12.890625 L 7.140625 -13.21875 L 7.1875 -13.5625 L 7.21875 -13.765625 L 7.25 -14.09375 L 7.28125 -14.28125 L 7.328125 -14.609375 L 7.375 -14.765625 L 7.4375 -15.0625 L 7.578125 -15.765625 L 7.59375 -15.9375 L 7.59375 -16.125 L 7.625 -16.28125 L 7.625 -16.5 L 7.734375 -16.75 L 7.796875 -17.125 L 7.875 -17.265625 L 7.875 -17.5 L 7.953125 -17.609375 L 7.921875 -17.78125 L 7.953125 -18.078125 L 8 -18.15625 L 8 -18.515625 L 8.03125 -18.671875 L 7.921875 -18.9375 L 7.625 -19.03125 L 7.4375 -19 L 6 -19 L 5.8125 -18.96875 L 5.421875 -18.96875 L 5.1875 -19 L 4.78125 -18.96875 L 4.59375 -18.9375 L 4.421875 -18.828125 L 4.234375 -18.75 L 4.046875 -18.484375 L 4.015625 -18.296875 L 3.96875 -18.125 L 3.90625 -17.71875 L 3.796875 -17.421875 L 3.75 -17.125 L 3.71875 -16.796875 L 3.65625 -16.640625 L 3.640625 -16.46875 L 3.5625 -16.125 L 3.5 -15.734375 L 3.453125 -15.609375 L 3.421875 -15.25 L 3.390625 -15.03125 L 3.421875 -14.84375 L 3.3125 -14.5 L 3.28125 -14.296875 L 3.203125 -13.953125 L 3.171875 -13.78125 L 3.0625 -13.46875 L 3.09375 -13.265625 L 3.0625 -13.109375 L 3.015625 -12.734375 L 2.9375 -12.53125 L 2.9375 -12.15625 L 2.84375 -11.59375 L 2.71875 -11.203125 L 2.625 -10.859375 L 2.578125 -10.53125 L 2.578125 -10.171875 L 2.46875 -9.953125 L 2.421875 -9.578125 L 2.421875 -9.390625 L 2.3125 -9.015625 L 2.3125 -8.625 L 2.25 -8.25 L 2.21875 -8.09375 L 2.203125 -7.890625 L 2.140625 -7.703125 L 2.140625 -7.546875 L 2.09375 -7.140625 L 1.90625 -6.546875 L 1.921875 -6.34375 L 1.875 -6.15625 L 1.84375 -6 L 1.796875 -5.8125 L 1.796875 -5.625 L 1.734375 -5.296875 L 1.6875 -5.046875 L 1.59375 -4.796875 L 1.546875 -4.5625 L 1.46875 -4.265625 L 1.390625 -3.765625 L 1.40625 -3.609375 L 1.296875 -3.25 L 1.28125 -3.0625 L 1.21875 -2.84375 L 1.1875 -2.65625 L 1.109375 -2.25 L 1.078125 -2.03125 L 1.03125 -1.65625 L 0.984375 -1.46875 L 0.953125 -1.0625 L 0.8125 -0.671875 L 0.84375 -0.265625 L 1.0625 -0.078125 L 1.28125 -0.03125 L 1.5 -0.046875 L 1.6875 -0.03125 L 1.984375 0 L 2.171875 -0.03125 L 2.390625 -0.03125 L 2.765625 0.03125 L 3.5625 0.03125 Z M 3.75 0.046875 "/></g></g></g><g fill="#ffffff" fill-opacity="1"><g transform="translate(275.855303, 287.054682)"><g><path d="M 6.5625 0.4375 L 7.171875 0.359375 L 7.46875 0.265625 L 7.65625 0.25 L 8.03125 0.15625 L 8.25 0.109375 L 8.4375 0.078125 L 9.0625 -0.15625 L 9.171875 -0.25 L 9.5 -0.46875 L 9.828125 -0.703125 L 9.953125 -0.875 L 10.125 -1 L 10.453125 -1.328125 L 10.5 -1.5 L 10.640625 -1.65625 L 10.75 -1.8125 L 10.984375 -2.171875 L 11.125 -2.359375 L 11.34375 -2.84375 L 11.53125 -3.234375 L 11.5625 -3.5 L 11.703125 -3.6875 L 11.78125 -3.984375 L 11.78125 -4.171875 L 11.859375 -4.5 L 12 -4.796875 L 12.015625 -5.109375 L 12.109375 -5.265625 L 12.234375 -5.59375 L 12.21875 -5.75 L 12.484375 -6.703125 L 12.5625 -6.859375 L 12.625 -7.25 L 12.671875 -7.4375 L 12.671875 -7.6875 L 12.75 -8.171875 L 12.84375 -8.328125 L 12.921875 -8.6875 L 12.953125 -9.015625 L 13.03125 -9.359375 L 13.078125 -9.71875 L 13.1875 -10.0625 L 13.15625 -10.390625 L 13.296875 -10.6875 L 13.265625 -10.96875 L 13.328125 -11.40625 L 13.375 -11.59375 L 13.4375 -12.4375 L 13.484375 -12.8125 L 13.515625 -12.96875 L 13.515625 -13.25 L 13.484375 -13.4375 L 13.515625 -13.59375 L 13.5625 -13.78125 L 13.59375 -14.140625 L 13.59375 -14.328125 L 13.5625 -14.6875 L 13.59375 -14.84375 L 13.625 -15.203125 L 13.625 -15.390625 L 13.59375 -15.609375 L 13.546875 -16.125 L 13.46875 -16.53125 L 13.40625 -16.71875 L 13.359375 -16.875 L 13.265625 -17.046875 L 13.109375 -17.390625 L 13.03125 -17.59375 L 12.890625 -17.75 L 12.59375 -18.015625 L 12.296875 -18.265625 L 12.15625 -18.421875 L 11.9375 -18.5625 L 11.453125 -18.890625 L 11.046875 -19.078125 L 10.890625 -19.140625 L 10.671875 -19.15625 L 10.453125 -19.25 L 10.015625 -19.296875 L 9.71875 -19.328125 L 9.546875 -19.34375 L 9.0625 -19.375 L 8.734375 -19.34375 L 8.359375 -19.328125 L 7.875 -19.25 L 7.59375 -19.21875 L 7.1875 -19.109375 L 7.03125 -19.078125 L 6.625 -18.96875 L 6.296875 -18.8125 L 5.96875 -18.625 L 5.78125 -18.484375 L 5.5625 -18.40625 L 5.21875 -18.15625 L 4.828125 -17.75 L 4.703125 -17.59375 L 4.5 -17.453125 L 4.28125 -17.125 L 4.078125 -16.765625 L 3.96875 -16.609375 L 3.9375 -16.421875 L 3.6875 -16.0625 L 3.578125 -15.875 L 3.421875 -15.546875 L 3.28125 -15.171875 L 3.171875 -14.84375 L 3.09375 -14.65625 L 2.9375 -14.296875 L 2.875 -13.953125 L 2.734375 -13.765625 L 2.625 -13.078125 L 2.578125 -12.703125 L 2.546875 -12.53125 L 2.46875 -12.34375 L 2.421875 -12.015625 L 2.421875 -11.640625 L 2.359375 -11.453125 L 2.203125 -11.1875 L 2.21875 -11.015625 L 2.171875 -10.828125 L 2.171875 -10.671875 L 2.109375 -10.46875 L 2.03125 -10.3125 L 2.03125 -10.125 L 1.953125 -9.796875 L 1.953125 -9.4375 L 1.875 -9.125 L 1.796875 -8.625 L 1.734375 -8.4375 L 1.6875 -8.09375 L 1.734375 -7.953125 L 1.625 -7.578125 L 1.625 -7.375 L 1.578125 -7 L 1.578125 -6.78125 L 1.46875 -6.40625 L 1.40625 -5.8125 L 1.40625 -5.625 L 1.4375 -5.40625 L 1.359375 -5.125 L 1.359375 -4.609375 L 1.296875 -4.421875 L 1.390625 -3.875 L 1.40625 -3.71875 L 1.4375 -3.34375 L 1.5 -3.171875 L 1.515625 -2.984375 L 1.578125 -2.828125 L 1.625 -2.6875 L 1.65625 -2.53125 L 1.734375 -2.328125 L 1.734375 -2.171875 L 1.953125 -1.8125 L 2.09375 -1.625 L 2.171875 -1.46875 L 2.3125 -1.328125 L 2.390625 -1.1875 L 2.765625 -0.765625 L 3.25 -0.359375 L 3.640625 -0.109375 L 3.828125 0 L 4.234375 0.109375 L 4.453125 0.140625 L 5.078125 0.328125 L 5.3125 0.359375 L 5.515625 0.375 L 5.859375 0.359375 Z M 6.34375 -3.25 L 6.1875 -3.28125 L 5.96875 -3.34375 L 5.75 -3.421875 L 5.625 -3.5625 L 5.453125 -3.796875 L 5.40625 -3.90625 L 5.3125 -4.09375 L 5.3125 -4.859375 L 5.234375 -5.046875 L 5.34375 -5.3125 L 5.375 -5.640625 L 5.296875 -5.828125 L 5.375 -6.03125 L 5.375 -6.21875 L 5.453125 -6.625 L 5.453125 -6.84375 L 5.515625 -7.03125 L 5.515625 -7.25 L 5.5625 -7.484375 L 5.53125 -7.59375 L 5.59375 -7.796875 L 5.5625 -8 L 5.703125 -8.390625 L 5.78125 -8.578125 L 5.75 -8.796875 L 5.78125 -8.984375 L 5.78125 -9.171875 L 5.828125 -9.546875 L 5.890625 -9.75 L 6 -10.171875 L 6.078125 -10.390625 L 6.140625 -10.796875 L 6.1875 -10.984375 L 6.21875 -11.1875 L 6.296875 -11.609375 L 6.375 -12 L 6.484375 -12.375 L 6.59375 -12.921875 L 6.625 -13.140625 L 6.625 -13.1875 L 6.78125 -13.765625 L 6.84375 -13.984375 L 6.890625 -14.171875 L 7.0625 -14.515625 L 7.171875 -14.703125 L 7.28125 -15.03125 L 7.46875 -15.328125 L 7.734375 -15.578125 L 8.171875 -15.734375 L 8.390625 -15.796875 L 8.90625 -15.828125 L 9.34375 -15.640625 L 9.53125 -15.390625 L 9.640625 -15.21875 L 9.75 -14.6875 L 9.6875 -14.296875 L 9.65625 -13.953125 L 9.609375 -13.46875 L 9.609375 -13.109375 L 9.546875 -12.859375 L 9.46875 -12.484375 L 9.421875 -12.265625 L 9.390625 -11.921875 L 9.421875 -11.71875 L 9.359375 -11.53125 L 9.3125 -11.3125 L 9.25 -10.984375 L 9.140625 -10.578125 L 9.171875 -10.125 L 9.09375 -9.953125 L 9.03125 -9.4375 L 8.953125 -9.234375 L 8.875 -8.984375 L 8.828125 -8.359375 L 8.734375 -7.953125 L 8.65625 -7.703125 L 8.6875 -7.625 L 8.6875 -7.40625 L 8.609375 -7.25 L 8.578125 -7.03125 L 8.5 -6.671875 L 8.40625 -6.484375 L 8.390625 -6.109375 L 8.3125 -5.890625 L 8.25 -5.515625 L 8.109375 -4.90625 L 8.109375 -4.703125 L 8.0625 -4.5 L 7.890625 -4.125 L 7.703125 -3.75 L 7.328125 -3.46875 L 7.078125 -3.359375 L 6.703125 -3.25 Z M 6.34375 -3.25 "/></g></g></g><g fill="#ffffff" fill-opacity="1"><g transform="translate(297.240245, 287.054682)"><g><path d="M 1.390625 0.046875 L 4.265625 0.046875 L 4.5625 -0.046875 L 4.640625 -0.328125 L 4.75 -0.65625 L 4.828125 -1.140625 L 4.890625 -1.296875 L 4.890625 -1.65625 L 4.90625 -1.84375 L 5 -2.203125 L 5.109375 -2.984375 L 5.15625 -3.171875 L 5.1875 -3.34375 L 5.234375 -3.71875 L 5.34375 -4.265625 L 5.453125 -4.671875 L 5.515625 -5.046875 L 5.53125 -5.21875 L 5.515625 -5.40625 L 5.5625 -5.59375 L 5.640625 -5.921875 L 5.59375 -6.109375 L 5.671875 -6.453125 L 5.734375 -6.625 L 5.828125 -7.6875 L 6.03125 -8.984375 L 6.046875 -9.65625 L 6.109375 -10.125 L 6.140625 -10.421875 L 6.15625 -10.96875 L 6.1875 -11.71875 L 6.265625 -11.71875 L 6.4375 -10.6875 L 6.59375 -9.71875 L 6.671875 -8.953125 L 6.8125 -8.09375 L 6.921875 -7.328125 L 6.96875 -6.8125 L 7.078125 -6.265625 L 7.078125 -5.859375 L 7.21875 -5.15625 L 7.296875 -4.78125 L 7.296875 -4.609375 L 7.375 -4.203125 L 7.46875 -3.90625 L 7.484375 -3.5 L 7.546875 -3.125 L 7.578125 -2.953125 L 7.6875 -2.390625 L 7.703125 -2.21875 L 7.765625 -1.65625 L 7.796875 -1.5 L 7.8125 -1.171875 L 7.84375 -1.03125 L 7.984375 -0.65625 L 8.203125 -0.21875 L 8.40625 -0.03125 L 8.875 -0.03125 L 9.234375 0 L 9.765625 0 L 9.9375 -0.03125 L 10.203125 0 L 10.390625 -0.03125 L 10.90625 0 L 11.015625 0 L 11.3125 -0.046875 L 11.703125 -0.078125 L 11.96875 -0.265625 L 12.21875 -0.59375 L 12.34375 -1.46875 L 12.4375 -1.8125 L 12.484375 -2.015625 L 12.484375 -2.171875 L 12.625 -2.53125 L 12.625 -2.953125 L 12.734375 -3.34375 L 12.8125 -3.5625 L 12.859375 -3.90625 L 12.890625 -4.265625 L 12.921875 -4.5625 L 13.03125 -4.890625 L 13.140625 -5.125 L 13.25 -5.78125 L 13.359375 -6.15625 L 13.359375 -6.328125 L 13.375 -6.484375 L 13.40625 -6.671875 L 13.4375 -6.84375 L 13.46875 -7.078125 L 13.515625 -7.328125 L 13.59375 -7.703125 L 13.671875 -7.875 L 13.671875 -8.21875 L 13.703125 -8.390625 L 13.734375 -8.578125 L 13.78125 -8.734375 L 13.8125 -8.921875 L 13.875 -9.09375 L 13.84375 -9.34375 L 13.890625 -9.546875 L 13.953125 -9.9375 L 14.03125 -10.28125 L 14.09375 -10.46875 L 14.171875 -10.828125 L 14.21875 -11.046875 L 14.25 -11.234375 L 14.28125 -11.53125 L 14.359375 -11.78125 L 14.46875 -12.59375 L 14.515625 -12.78125 L 14.515625 -13.140625 L 14.578125 -13.328125 L 14.625 -13.546875 L 14.703125 -13.78125 L 14.765625 -14.21875 L 14.875 -14.65625 L 14.953125 -15.21875 L 15.015625 -15.4375 L 15.09375 -15.9375 L 15.171875 -16.234375 L 15.328125 -16.875 L 15.390625 -17.265625 L 15.46875 -17.859375 L 15.4375 -18.078125 L 15.53125 -18.453125 L 15.53125 -18.671875 L 15.5 -18.890625 L 15.328125 -18.96875 L 14.953125 -19.046875 L 14.578125 -19.03125 L 14.296875 -19.03125 L 13.671875 -19.046875 L 13.40625 -19.046875 L 13.21875 -19.03125 L 12.640625 -19.078125 L 12.125 -18.96875 L 12.015625 -18.890625 L 11.8125 -18.515625 L 11.703125 -17.9375 L 11.609375 -17.5 L 11.59375 -17.34375 L 11.59375 -17.09375 L 11.5 -16.875 L 11.453125 -16.6875 L 11.375 -16.3125 L 11.34375 -16.09375 L 11.296875 -15.71875 L 11.234375 -15.546875 L 11.203125 -15.359375 L 11.125 -15.015625 L 11.125 -14.84375 L 11.046875 -14.359375 L 11.078125 -14.171875 L 10.90625 -13.84375 L 10.90625 -13.65625 L 10.890625 -13.328125 L 10.890625 -13 L 10.78125 -12.640625 L 10.78125 -12.484375 L 10.71875 -12.109375 L 10.671875 -11.9375 L 10.640625 -11.5625 L 10.609375 -11.34375 L 10.578125 -11.15625 L 10.5625 -10.984375 L 10.46875 -10.609375 L 10.46875 -9.6875 L 10.390625 -9.125 L 10.3125 -7.8125 L 10.3125 -7.4375 L 10.265625 -6.78125 L 10.234375 -6.25 L 10.15625 -6.25 L 10.0625 -6.84375 L 9.984375 -7.578125 L 9.9375 -7.890625 L 9.875 -8.09375 L 9.875 -8.28125 L 9.828125 -8.875 L 9.71875 -9.5 L 9.640625 -10.234375 L 9.578125 -10.453125 L 9.53125 -10.828125 L 9.5 -11.265625 L 9.421875 -11.71875 L 9.359375 -12.1875 L 9.28125 -12.59375 L 9.25 -12.890625 L 9.25 -13.078125 L 9.171875 -13.375 L 9.171875 -13.546875 L 9.09375 -13.890625 L 9.03125 -14.296875 L 9.015625 -14.5 L 8.953125 -14.703125 L 8.765625 -15.640625 L 8.6875 -16.09375 L 8.609375 -16.53125 L 8.5 -17.1875 L 8.390625 -17.5625 L 8.359375 -17.859375 L 8.3125 -18.1875 L 8.203125 -18.453125 L 8.171875 -18.640625 L 8 -18.890625 L 7.703125 -18.96875 L 7.328125 -18.96875 L 6.921875 -19 L 6.59375 -18.96875 L 6.078125 -19 L 5.734375 -18.96875 L 5.484375 -18.96875 L 5.015625 -19 L 4.640625 -18.96875 L 4.375 -18.921875 L 4.203125 -18.625 L 4.125 -18.484375 L 3.984375 -17.96875 L 3.984375 -17.75 L 3.90625 -17.390625 L 3.859375 -17.078125 L 3.796875 -16.71875 L 3.765625 -16.53125 L 3.71875 -16.359375 L 3.6875 -16.171875 L 3.65625 -16.015625 L 3.640625 -15.828125 L 3.609375 -15.46875 L 3.5625 -15.21875 L 3.453125 -14.984375 L 3.453125 -14.796875 L 3.3125 -14.03125 L 3.25 -13.875 L 3.234375 -13.671875 L 3.234375 -13.359375 L 3.140625 -13.109375 L 3.0625 -12.8125 L 3.015625 -12.453125 L 2.953125 -12.265625 L 2.953125 -12.078125 L 2.875 -11.890625 L 2.875 -11.671875 L 2.796875 -11.453125 L 2.765625 -11.234375 L 2.765625 -10.859375 L 2.71875 -10.578125 L 2.65625 -10.375 L 2.53125 -10.046875 L 2.5 -9.765625 L 2.46875 -9.390625 L 2.4375 -9.203125 L 2.421875 -9.03125 L 2.28125 -8.71875 L 2.28125 -8.546875 L 2.25 -8.390625 L 2.21875 -8.03125 L 2.171875 -7.875 L 2.140625 -7.6875 L 2.09375 -7.359375 L 2.015625 -7.0625 L 1.953125 -6.8125 L 1.90625 -6.484375 L 1.796875 -6.046875 L 1.734375 -5.703125 L 1.765625 -5.515625 L 1.734375 -5.34375 L 1.65625 -5.015625 L 1.625 -4.828125 L 1.59375 -4.5 L 1.5 -4.3125 L 1.5 -3.96875 L 1.4375 -3.75 L 1.4375 -3.5625 L 1.359375 -3.125 L 1.296875 -2.875 L 1.21875 -2.5 L 1.171875 -2.359375 L 1.078125 -1.984375 L 1.0625 -1.796875 L 0.953125 -1.40625 L 0.890625 -0.984375 L 0.890625 -0.546875 L 0.84375 -0.328125 L 0.984375 0 Z M 1.390625 0.046875 "/></g></g></g></svg>