<?xml version="1.0" encoding="utf-8"?>
<!-- Generator: Adobe Illustrator 28.0.0, SVG Export Plug-In . SVG Version: 6.00 Build 0)  -->
<svg version="1.1" id="Layer_1" xmlns="http://www.w3.org/2000/svg" xmlns:xlink="http://www.w3.org/1999/xlink" x="0px" y="0px"
	 viewBox="0 0 500 500" style="enable-background:new 0 0 500 500;" xml:space="preserve">
<style type="text/css">
	.st0{clip-path:url(#SVGID_00000060710656857484540530000008601498542020911773_);}
	.st1{clip-path:url(#SVGID_00000132090313471498840430000010195027528118979246_);}
	.st2{clip-path:url(#SVGID_00000000216931090875370090000009178394105689197229_);}
	.st3{fill:url(#SVGID_00000093156161500008532000000012099316368444193965_);}
	.st4{clip-path:url(#SVGID_00000155862397154882190470000001739836239608116924_);}
	.st5{fill:#007744;}
	.st6{fill:#75E6DA;}
</style>
<g>
	
		<image style="overflow:visible;opacity:0.42;" width="157" height="112" xlink:href="DFED7EF30B6FAFFC.png"  transform="matrix(1 0 0 1 174 154)">
	</image>
	<g>
		<g>
			<defs>
				<rect id="SVGID_1_" x="177.8" y="158" width="144" height="99"/>
			</defs>
			<clipPath id="SVGID_00000031918693951127898940000005253047034071711878_">
				<use xlink:href="#SVGID_1_"  style="overflow:visible;"/>
			</clipPath>
			<g style="clip-path:url(#SVGID_00000031918693951127898940000005253047034071711878_);">
				<g>
					<defs>
						<path id="SVGID_00000103228539540192744680000004870569535224345265_" d="M239.3,236.7h73.4c1.6-2.2,3-4.4,4.2-6.8
							c0,0,0-0.1,0.1-0.1c0.5-1,1-2,1.4-3.1c0.9-2.2,1.7-4.5,2.3-6.8h-91.1l-2.4,4.2l-1.5,2.6h-5.5l-1.5-2.6l-2.4-4.2h-9.7l-4.9,8.4
							l2.4,4.2l2.4,4.2h9.7l2.4-4.2l1.5-2.6h5.5l1.5,2.6l2.4,4.2H239.3z M228.2,188.7l1.5,2.6l2.4,4.2h88.5
							c-0.6-2.3-1.4-4.6-2.3-6.8c-0.4-1-0.9-2.1-1.4-3.1c0,0,0-0.1-0.1-0.1c-1.2-2.4-2.6-4.7-4.2-6.8h-80.6l-2.4,4.2l-1.5,2.6h-5.5
							l-1.5-2.6l-2.4-4.2H209l-2.4,4.2l-2.4,4.2l2.4,4.2l2.4,4.2h9.8l2.4-4.2l1.5-2.6H228.2z M297.6,164.9c-7.4-4.3-15.9-6.8-25-6.8
							h-18.5l-2.4,4.2l-1.5,2.6h-5.5l-3.9-6.8H231l-2.4,4.2l-1.5,2.6l-0.9,1.6l0.9,1.6l1.5,2.6l2.4,4.2h9.7l2.4-4.2l1.5-2.6h5.5
							l1.5,2.6l2.4,4.2h55.7c-2.2-2.5-4.7-4.8-7.4-6.8C300.8,166.9,299.2,165.8,297.6,164.9L297.6,164.9z M197.3,207.7l-4.9-8.4
							h-9.7l-2.4,4.2l-2.4,4.2l2.4,4.2l2.4,4.2h9.7l2.4-4.2L197.3,207.7z M208.3,240.5h-24.9l-2.4,4.2l-2.4,4.2l2.4,4.2l2.4,4.2
							h24.9l2.4-4.2l1.5-2.6h5.5l1.5,2.6l2.4,4.2h50.8c9.1,0,17.7-2.5,25-6.8c1.7-1,3.3-2.1,4.8-3.2c2.7-2,5.1-4.3,7.4-6.8h-88.1
							l-2.4,4.2l-1.5,2.6h-5.5l-1.5-2.6L208.3,240.5z M242.3,199.2h-23.5l-2.4,4.2l-1.5,2.6l-0.9,1.6l0.9,1.6l1.5,2.6l2.4,4.2h23.5
							l2.4-4.2l1.5-2.6h5.5l-0.9-1.6l2.4,4.2l2.4,4.2h65.7c0.4-2.2,0.6-4.5,0.7-6.8c0-0.5,0-1.1,0-1.6c0-0.5,0-1.1,0-1.6
							c-0.1-2.3-0.3-4.6-0.7-6.8h-65.7l-4.9,8.4l0.9-1.6h-5.5l-1.5-2.6L242.3,199.2z"/>
					</defs>
					<clipPath id="SVGID_00000062896978452337664180000011421294938983038112_">
						<use xlink:href="#SVGID_00000103228539540192744680000004870569535224345265_"  style="overflow:visible;"/>
					</clipPath>
				</g>
			</g>
		</g>
		<g>
			<defs>
				<rect id="SVGID_00000015319107118217113290000009487381634402100409_" x="177.8" y="158" width="144" height="99"/>
			</defs>
			<clipPath id="SVGID_00000115495121468781373630000010676165608970391969_">
				<use xlink:href="#SVGID_00000015319107118217113290000009487381634402100409_"  style="overflow:visible;"/>
			</clipPath>
			<g style="clip-path:url(#SVGID_00000115495121468781373630000010676165608970391969_);">
				<g>
					<defs>
						<path id="SVGID_00000083802460639420570570000001765752537905227952_" d="M239.3,236.7h73.4c1.6-2.2,3-4.4,4.2-6.8
							c0,0,0-0.1,0.1-0.1c0.5-1,1-2,1.4-3.1c0.9-2.2,1.7-4.5,2.3-6.8h-91.1l-2.4,4.2l-1.5,2.6h-5.5l-1.5-2.6l-2.4-4.2h-9.7l-4.9,8.4
							l2.4,4.2l2.4,4.2h9.7l2.4-4.2l1.5-2.6h5.5l1.5,2.6l2.4,4.2H239.3z M228.2,188.7l1.5,2.6l2.4,4.2h88.5
							c-0.6-2.3-1.4-4.6-2.3-6.8c-0.4-1-0.9-2.1-1.4-3.1c0,0,0-0.1-0.1-0.1c-1.2-2.4-2.6-4.7-4.2-6.8h-80.6l-2.4,4.2l-1.5,2.6h-5.5
							l-1.5-2.6l-2.4-4.2H209l-2.4,4.2l-2.4,4.2l2.4,4.2l2.4,4.2h9.8l2.4-4.2l1.5-2.6H228.2z M297.6,164.9c-7.4-4.3-15.9-6.8-25-6.8
							h-18.5l-2.4,4.2l-1.5,2.6h-5.5l-3.9-6.8H231l-2.4,4.2l-1.5,2.6l-0.9,1.6l0.9,1.6l1.5,2.6l2.4,4.2h9.7l2.4-4.2l1.5-2.6h5.5
							l1.5,2.6l2.4,4.2h55.7c-2.2-2.5-4.7-4.8-7.4-6.8C300.8,166.9,299.2,165.8,297.6,164.9L297.6,164.9z M197.3,207.7l-4.9-8.4
							h-9.7l-2.4,4.2l-2.4,4.2l2.4,4.2l2.4,4.2h9.7l2.4-4.2L197.3,207.7z M208.3,240.5h-24.9l-2.4,4.2l-2.4,4.2l2.4,4.2l2.4,4.2
							h24.9l2.4-4.2l1.5-2.6h5.5l1.5,2.6l2.4,4.2h50.8c9.1,0,17.7-2.5,25-6.8c1.7-1,3.3-2.1,4.8-3.2c2.7-2,5.1-4.3,7.4-6.8h-88.1
							l-2.4,4.2l-1.5,2.6h-5.5l-1.5-2.6L208.3,240.5z M242.3,199.2h-23.5l-2.4,4.2l-1.5,2.6l-0.9,1.6l0.9,1.6l1.5,2.6l2.4,4.2h23.5
							l2.4-4.2l1.5-2.6h5.5l-0.9-1.6l2.4,4.2l2.4,4.2h65.7c0.4-2.2,0.6-4.5,0.7-6.8c0-0.5,0-1.1,0-1.6c0-0.5,0-1.1,0-1.6
							c-0.1-2.3-0.3-4.6-0.7-6.8h-65.7l-4.9,8.4l0.9-1.6h-5.5l-1.5-2.6L242.3,199.2z"/>
					</defs>
					<clipPath id="SVGID_00000172430605731625720970000011147702231265913491_">
						<use xlink:href="#SVGID_00000083802460639420570570000001765752537905227952_"  style="overflow:visible;"/>
					</clipPath>
					<g style="clip-path:url(#SVGID_00000172430605731625720970000011147702231265913491_);">
						
							<linearGradient id="SVGID_00000014616592760974034240000003244314339037862537_" gradientUnits="userSpaceOnUse" x1="10106.5098" y1="-1572.9601" x2="8340.127" y2="-4149.623" gradientTransform="matrix(5.219854e-02 0 0 -5.219854e-02 -231.6182 58.1864)">
							<stop  offset="0" style="stop-color:#007744"/>
							<stop  offset="6.250000e-02" style="stop-color:#007744"/>
							<stop  offset="7.812500e-02" style="stop-color:#007744"/>
							<stop  offset="8.203121e-02" style="stop-color:#017846"/>
							<stop  offset="8.593750e-02" style="stop-color:#027946"/>
							<stop  offset="8.984371e-02" style="stop-color:#027947"/>
							<stop  offset="9.375000e-02" style="stop-color:#037A48"/>
							<stop  offset="9.765621e-02" style="stop-color:#037A48"/>
							<stop  offset="0.1016" style="stop-color:#047B49"/>
							<stop  offset="0.1055" style="stop-color:#047B4A"/>
							<stop  offset="0.1094" style="stop-color:#057C4A"/>
							<stop  offset="0.1133" style="stop-color:#057C4B"/>
							<stop  offset="0.1172" style="stop-color:#067D4C"/>
							<stop  offset="0.1211" style="stop-color:#067D4C"/>
							<stop  offset="0.125" style="stop-color:#077E4D"/>
							<stop  offset="0.1289" style="stop-color:#077E4E"/>
							<stop  offset="0.1328" style="stop-color:#087F4E"/>
							<stop  offset="0.1367" style="stop-color:#087F4F"/>
							<stop  offset="0.1406" style="stop-color:#098050"/>
							<stop  offset="0.1445" style="stop-color:#098050"/>
							<stop  offset="0.1484" style="stop-color:#0A8151"/>
							<stop  offset="0.1523" style="stop-color:#0B8152"/>
							<stop  offset="0.1562" style="stop-color:#0B8252"/>
							<stop  offset="0.1602" style="stop-color:#0C8253"/>
							<stop  offset="0.1641" style="stop-color:#0C8354"/>
							<stop  offset="0.168" style="stop-color:#0D8354"/>
							<stop  offset="0.1719" style="stop-color:#0D8455"/>
							<stop  offset="0.1758" style="stop-color:#0E8456"/>
							<stop  offset="0.1797" style="stop-color:#0E8556"/>
							<stop  offset="0.1836" style="stop-color:#0F8557"/>
							<stop  offset="0.1875" style="stop-color:#0F8558"/>
							<stop  offset="0.1914" style="stop-color:#108658"/>
							<stop  offset="0.1953" style="stop-color:#108659"/>
							<stop  offset="0.1992" style="stop-color:#11875A"/>
							<stop  offset="0.2031" style="stop-color:#11875A"/>
							<stop  offset="0.207" style="stop-color:#12885B"/>
							<stop  offset="0.2109" style="stop-color:#12885C"/>
							<stop  offset="0.2148" style="stop-color:#13895C"/>
							<stop  offset="0.2188" style="stop-color:#13895D"/>
							<stop  offset="0.2227" style="stop-color:#148A5E"/>
							<stop  offset="0.2266" style="stop-color:#148A5E"/>
							<stop  offset="0.2305" style="stop-color:#158B5F"/>
							<stop  offset="0.2344" style="stop-color:#158B60"/>
							<stop  offset="0.2383" style="stop-color:#168C60"/>
							<stop  offset="0.2422" style="stop-color:#168C61"/>
							<stop  offset="0.2461" style="stop-color:#178D62"/>
							<stop  offset="0.25" style="stop-color:#188D62"/>
							<stop  offset="0.2539" style="stop-color:#188E63"/>
							<stop  offset="0.2578" style="stop-color:#198E64"/>
							<stop  offset="0.2617" style="stop-color:#198F64"/>
							<stop  offset="0.2656" style="stop-color:#1A8F65"/>
							<stop  offset="0.2695" style="stop-color:#1A9066"/>
							<stop  offset="0.2734" style="stop-color:#1B9066"/>
							<stop  offset="0.2773" style="stop-color:#1B9167"/>
							<stop  offset="0.2812" style="stop-color:#1C9168"/>
							<stop  offset="0.2852" style="stop-color:#1C9268"/>
							<stop  offset="0.2891" style="stop-color:#1D9269"/>
							<stop  offset="0.293" style="stop-color:#1D936A"/>
							<stop  offset="0.2969" style="stop-color:#1E936A"/>
							<stop  offset="0.3008" style="stop-color:#1E946B"/>
							<stop  offset="0.3047" style="stop-color:#1F946C"/>
							<stop  offset="0.3086" style="stop-color:#1F956C"/>
							<stop  offset="0.3125" style="stop-color:#20956D"/>
							<stop  offset="0.3164" style="stop-color:#20966E"/>
							<stop  offset="0.3203" style="stop-color:#21966E"/>
							<stop  offset="0.3242" style="stop-color:#21976F"/>
							<stop  offset="0.3281" style="stop-color:#229770"/>
							<stop  offset="0.332" style="stop-color:#229870"/>
							<stop  offset="0.3359" style="stop-color:#239871"/>
							<stop  offset="0.3398" style="stop-color:#249972"/>
							<stop  offset="0.3438" style="stop-color:#249972"/>
							<stop  offset="0.3477" style="stop-color:#259A73"/>
							<stop  offset="0.3516" style="stop-color:#259A74"/>
							<stop  offset="0.3555" style="stop-color:#269B74"/>
							<stop  offset="0.3594" style="stop-color:#269B75"/>
							<stop  offset="0.3633" style="stop-color:#279C76"/>
							<stop  offset="0.3672" style="stop-color:#279C76"/>
							<stop  offset="0.3711" style="stop-color:#289D77"/>
							<stop  offset="0.375" style="stop-color:#289D78"/>
							<stop  offset="0.3789" style="stop-color:#299E78"/>
							<stop  offset="0.3828" style="stop-color:#299E79"/>
							<stop  offset="0.3867" style="stop-color:#2A9F7A"/>
							<stop  offset="0.3906" style="stop-color:#2A9F7A"/>
							<stop  offset="0.3945" style="stop-color:#2BA07B"/>
							<stop  offset="0.3984" style="stop-color:#2BA07C"/>
							<stop  offset="0.4023" style="stop-color:#2CA17C"/>
							<stop  offset="0.4062" style="stop-color:#2CA17D"/>
							<stop  offset="0.4102" style="stop-color:#2DA27E"/>
							<stop  offset="0.4141" style="stop-color:#2DA27E"/>
							<stop  offset="0.418" style="stop-color:#2EA37F"/>
							<stop  offset="0.4219" style="stop-color:#2EA380"/>
							<stop  offset="0.4258" style="stop-color:#2FA480"/>
							<stop  offset="0.4297" style="stop-color:#2FA481"/>
							<stop  offset="0.4336" style="stop-color:#30A582"/>
							<stop  offset="0.4375" style="stop-color:#31A582"/>
							<stop  offset="0.4414" style="stop-color:#31A683"/>
							<stop  offset="0.4453" style="stop-color:#32A684"/>
							<stop  offset="0.4492" style="stop-color:#32A784"/>
							<stop  offset="0.4531" style="stop-color:#33A785"/>
							<stop  offset="0.457" style="stop-color:#33A886"/>
							<stop  offset="0.4609" style="stop-color:#34A886"/>
							<stop  offset="0.4648" style="stop-color:#34A987"/>
							<stop  offset="0.4688" style="stop-color:#35A988"/>
							<stop  offset="0.4727" style="stop-color:#35A988"/>
							<stop  offset="0.4766" style="stop-color:#36AA89"/>
							<stop  offset="0.4805" style="stop-color:#36AA8A"/>
							<stop  offset="0.4844" style="stop-color:#37AB8A"/>
							<stop  offset="0.4883" style="stop-color:#37AB8B"/>
							<stop  offset="0.4922" style="stop-color:#38AC8C"/>
							<stop  offset="0.4961" style="stop-color:#38AC8C"/>
							<stop  offset="0.5" style="stop-color:#39AD8D"/>
							<stop  offset="0.5039" style="stop-color:#39AD8E"/>
							<stop  offset="0.5078" style="stop-color:#3AAE8E"/>
							<stop  offset="0.5117" style="stop-color:#3AAE8F"/>
							<stop  offset="0.5156" style="stop-color:#3BAF90"/>
							<stop  offset="0.5195" style="stop-color:#3BAF90"/>
							<stop  offset="0.5234" style="stop-color:#3CB091"/>
							<stop  offset="0.5273" style="stop-color:#3CB092"/>
							<stop  offset="0.5312" style="stop-color:#3DB192"/>
							<stop  offset="0.5352" style="stop-color:#3EB193"/>
							<stop  offset="0.5391" style="stop-color:#3EB294"/>
							<stop  offset="0.543" style="stop-color:#3FB294"/>
							<stop  offset="0.5469" style="stop-color:#3FB395"/>
							<stop  offset="0.5508" style="stop-color:#40B396"/>
							<stop  offset="0.5547" style="stop-color:#40B496"/>
							<stop  offset="0.5586" style="stop-color:#41B497"/>
							<stop  offset="0.5625" style="stop-color:#41B598"/>
							<stop  offset="0.5664" style="stop-color:#42B598"/>
							<stop  offset="0.5703" style="stop-color:#42B699"/>
							<stop  offset="0.5742" style="stop-color:#43B69A"/>
							<stop  offset="0.5781" style="stop-color:#43B79A"/>
							<stop  offset="0.582" style="stop-color:#44B79B"/>
							<stop  offset="0.5859" style="stop-color:#44B89C"/>
							<stop  offset="0.5898" style="stop-color:#45B89C"/>
							<stop  offset="0.5938" style="stop-color:#45B99D"/>
							<stop  offset="0.5977" style="stop-color:#46B99E"/>
							<stop  offset="0.6016" style="stop-color:#46BA9E"/>
							<stop  offset="0.6055" style="stop-color:#47BA9F"/>
							<stop  offset="0.6094" style="stop-color:#47BBA0"/>
							<stop  offset="0.6133" style="stop-color:#48BBA0"/>
							<stop  offset="0.6172" style="stop-color:#48BCA1"/>
							<stop  offset="0.6211" style="stop-color:#49BCA2"/>
							<stop  offset="0.625" style="stop-color:#49BDA2"/>
							<stop  offset="0.6289" style="stop-color:#4ABDA3"/>
							<stop  offset="0.6328" style="stop-color:#4BBEA4"/>
							<stop  offset="0.6367" style="stop-color:#4BBEA4"/>
							<stop  offset="0.6406" style="stop-color:#4CBFA5"/>
							<stop  offset="0.6445" style="stop-color:#4CBFA6"/>
							<stop  offset="0.6484" style="stop-color:#4DC0A6"/>
							<stop  offset="0.6523" style="stop-color:#4DC0A7"/>
							<stop  offset="0.6562" style="stop-color:#4EC1A8"/>
							<stop  offset="0.6602" style="stop-color:#4EC1A8"/>
							<stop  offset="0.6641" style="stop-color:#4FC2A9"/>
							<stop  offset="0.668" style="stop-color:#4FC2AA"/>
							<stop  offset="0.6719" style="stop-color:#50C3AA"/>
							<stop  offset="0.6758" style="stop-color:#50C3AB"/>
							<stop  offset="0.6797" style="stop-color:#51C4AC"/>
							<stop  offset="0.6836" style="stop-color:#51C4AC"/>
							<stop  offset="0.6875" style="stop-color:#52C5AD"/>
							<stop  offset="0.6914" style="stop-color:#52C5AE"/>
							<stop  offset="0.6953" style="stop-color:#53C6AE"/>
							<stop  offset="0.6992" style="stop-color:#53C6AF"/>
							<stop  offset="0.7031" style="stop-color:#54C7B0"/>
							<stop  offset="0.707" style="stop-color:#54C7B0"/>
							<stop  offset="0.7109" style="stop-color:#55C8B1"/>
							<stop  offset="0.7148" style="stop-color:#55C8B2"/>
							<stop  offset="0.7188" style="stop-color:#56C9B2"/>
							<stop  offset="0.7227" style="stop-color:#57C9B3"/>
							<stop  offset="0.7266" style="stop-color:#57CAB4"/>
							<stop  offset="0.7305" style="stop-color:#58CAB4"/>
							<stop  offset="0.7344" style="stop-color:#58CBB5"/>
							<stop  offset="0.7383" style="stop-color:#59CBB6"/>
							<stop  offset="0.7422" style="stop-color:#59CCB6"/>
							<stop  offset="0.7461" style="stop-color:#5ACCB7"/>
							<stop  offset="0.75" style="stop-color:#5ACDB8"/>
							<stop  offset="0.7539" style="stop-color:#5BCDB8"/>
							<stop  offset="0.7578" style="stop-color:#5BCEB9"/>
							<stop  offset="0.7617" style="stop-color:#5CCEBA"/>
							<stop  offset="0.7656" style="stop-color:#5CCEBA"/>
							<stop  offset="0.7695" style="stop-color:#5DCFBB"/>
							<stop  offset="0.7734" style="stop-color:#5DCFBC"/>
							<stop  offset="0.7773" style="stop-color:#5ED0BC"/>
							<stop  offset="0.7812" style="stop-color:#5ED0BD"/>
							<stop  offset="0.7852" style="stop-color:#5FD1BE"/>
							<stop  offset="0.7891" style="stop-color:#5FD1BE"/>
							<stop  offset="0.793" style="stop-color:#60D2BF"/>
							<stop  offset="0.7969" style="stop-color:#60D2C0"/>
							<stop  offset="0.8008" style="stop-color:#61D3C0"/>
							<stop  offset="0.8047" style="stop-color:#61D3C1"/>
							<stop  offset="0.8086" style="stop-color:#62D4C2"/>
							<stop  offset="0.8125" style="stop-color:#62D4C2"/>
							<stop  offset="0.8164" style="stop-color:#63D5C3"/>
							<stop  offset="0.8203" style="stop-color:#64D5C4"/>
							<stop  offset="0.8242" style="stop-color:#64D6C4"/>
							<stop  offset="0.8281" style="stop-color:#65D6C5"/>
							<stop  offset="0.832" style="stop-color:#65D7C6"/>
							<stop  offset="0.8359" style="stop-color:#66D7C6"/>
							<stop  offset="0.8398" style="stop-color:#66D8C7"/>
							<stop  offset="0.8438" style="stop-color:#67D8C8"/>
							<stop  offset="0.8477" style="stop-color:#67D9C8"/>
							<stop  offset="0.8516" style="stop-color:#68D9C9"/>
							<stop  offset="0.8555" style="stop-color:#68DACA"/>
							<stop  offset="0.8594" style="stop-color:#69DACA"/>
							<stop  offset="0.8633" style="stop-color:#69DBCB"/>
							<stop  offset="0.8672" style="stop-color:#6ADBCC"/>
							<stop  offset="0.8711" style="stop-color:#6ADCCC"/>
							<stop  offset="0.875" style="stop-color:#6BDCCD"/>
							<stop  offset="0.8789" style="stop-color:#6BDDCE"/>
							<stop  offset="0.8828" style="stop-color:#6CDDCE"/>
							<stop  offset="0.8867" style="stop-color:#6CDECF"/>
							<stop  offset="0.8906" style="stop-color:#6DDED0"/>
							<stop  offset="0.8945" style="stop-color:#6DDFD0"/>
							<stop  offset="0.8984" style="stop-color:#6EDFD1"/>
							<stop  offset="0.9023" style="stop-color:#6EE0D2"/>
							<stop  offset="0.9062" style="stop-color:#6FE0D2"/>
							<stop  offset="0.9102" style="stop-color:#6FE1D3"/>
							<stop  offset="0.9141" style="stop-color:#70E1D4"/>
							<stop  offset="0.918" style="stop-color:#71E2D4"/>
							<stop  offset="0.9219" style="stop-color:#71E2D5"/>
							<stop  offset="0.9258" style="stop-color:#72E3D6"/>
							<stop  offset="0.9297" style="stop-color:#72E3D6"/>
							<stop  offset="0.9336" style="stop-color:#73E4D7"/>
							<stop  offset="0.9375" style="stop-color:#73E4D8"/>
							<stop  offset="0.9414" style="stop-color:#74E5D8"/>
							<stop  offset="0.9453" style="stop-color:#74E5D9"/>
							<stop  offset="0.9492" style="stop-color:#75E6D9"/>
							<stop  offset="0.9531" style="stop-color:#75E6DA"/>
							<stop  offset="0.9688" style="stop-color:#75E6DA"/>
							<stop  offset="1" style="stop-color:#75E6DA"/>
						</linearGradient>
						<path style="fill:url(#SVGID_00000014616592760974034240000003244314339037862537_);" d="M177.8,158v99h144v-99H177.8z"/>
					</g>
				</g>
			</g>
		</g>
		<g>
			<defs>
				<rect id="SVGID_00000118390991139449828480000004599937654133822363_" x="177.8" y="158" width="144" height="99"/>
			</defs>
			<clipPath id="SVGID_00000094616131068420705970000004542844473046556605_">
				<use xlink:href="#SVGID_00000118390991139449828480000004599937654133822363_"  style="overflow:visible;"/>
			</clipPath>
			<g style="clip-path:url(#SVGID_00000094616131068420705970000004542844473046556605_);">
				<g>
					<defs>
						<path id="SVGID_00000057832713948691314550000016895125724272798887_" d="M239.3,236.7h73.4c1.6-2.2,3-4.4,4.2-6.8
							c0,0,0-0.1,0.1-0.1c0.5-1,1-2,1.4-3.1c0.9-2.2,1.7-4.5,2.3-6.8h-91.1l-2.4,4.2l-1.5,2.6h-5.5l-1.5-2.6l-2.4-4.2h-9.7l-4.9,8.4
							l2.4,4.2l2.4,4.2h9.7l2.4-4.2l1.5-2.6h5.5l1.5,2.6l2.4,4.2H239.3z M228.2,188.7l1.5,2.6l2.4,4.2h88.5
							c-0.6-2.3-1.4-4.6-2.3-6.8c-0.4-1-0.9-2.1-1.4-3.1c0,0,0-0.1-0.1-0.1c-1.2-2.4-2.6-4.7-4.2-6.8h-80.6l-2.4,4.2l-1.5,2.6h-5.5
							l-1.5-2.6l-2.4-4.2H209l-2.4,4.2l-2.4,4.2l2.4,4.2l2.4,4.2h9.8l2.4-4.2l1.5-2.6H228.2z M297.6,164.9c-7.4-4.3-15.9-6.8-25-6.8
							h-18.5l-2.4,4.2l-1.5,2.6h-5.5l-3.9-6.8H231l-2.4,4.2l-1.5,2.6l-0.9,1.6l0.9,1.6l1.5,2.6l2.4,4.2h9.7l2.4-4.2l1.5-2.6h5.5
							l1.5,2.6l2.4,4.2h55.7c-2.2-2.5-4.7-4.8-7.4-6.8C300.8,166.9,299.2,165.8,297.6,164.9L297.6,164.9z M197.3,207.7l-4.9-8.4
							h-9.7l-2.4,4.2l-2.4,4.2l2.4,4.2l2.4,4.2h9.7l2.4-4.2L197.3,207.7z M208.3,240.5h-24.9l-2.4,4.2l-2.4,4.2l2.4,4.2l2.4,4.2
							h24.9l2.4-4.2l1.5-2.6h5.5l1.5,2.6l2.4,4.2h50.8c9.1,0,17.7-2.5,25-6.8c1.7-1,3.3-2.1,4.8-3.2c2.7-2,5.1-4.3,7.4-6.8h-88.1
							l-2.4,4.2l-1.5,2.6h-5.5l-1.5-2.6L208.3,240.5z M242.3,199.2h-23.5l-2.4,4.2l-1.5,2.6l-0.9,1.6l0.9,1.6l1.5,2.6l2.4,4.2h23.5
							l2.4-4.2l1.5-2.6h5.5l-0.9-1.6l2.4,4.2l2.4,4.2h65.7c0.4-2.2,0.6-4.5,0.7-6.8c0-0.5,0-1.1,0-1.6c0-0.5,0-1.1,0-1.6
							c-0.1-2.3-0.3-4.6-0.7-6.8h-65.7l-4.9,8.4l0.9-1.6h-5.5l-1.5-2.6L242.3,199.2z"/>
					</defs>
					<clipPath id="SVGID_00000067935864822584009930000000359112469119689371_">
						<use xlink:href="#SVGID_00000057832713948691314550000016895125724272798887_"  style="overflow:visible;"/>
					</clipPath>
				</g>
			</g>
		</g>
	</g>
</g>
<g>
	
		<image style="overflow:visible;opacity:0.42;" width="29" height="36" xlink:href="DFED7EF30B6FAFFD.png"  transform="matrix(1 0 0 1 140 272)">
	</image>
	<g>
		<g>
			<g transform="translate(106.848149, 224.888144)">
				<g>
					<path class="st5" d="M37.4,51.9H48c3.5,0,5.3,1.5,5.3,4.5v14.1c0,3-1.8,4.5-5.3,4.5H37.4V51.9z M47,70V56.8
						c0-0.5-0.3-0.8-0.9-0.8h-2.4v14.8h2.4C46.7,70.8,47,70.6,47,70z"/>
				</g>
			</g>
		</g>
	</g>
</g>
<g>
	
		<image style="overflow:visible;opacity:0.42;" width="29" height="36" xlink:href="DFED7EF30B6FAFFB.png"  transform="matrix(1 0 0 1 164 272)">
	</image>
	<g>
		<g>
			<g transform="translate(124.842068, 224.888144)">
				<g>
					<path class="st5" d="M52.6,51.9h6.3v18.6c0,3-1.8,4.5-5.3,4.5h-5.3c-3.5,0-5.3-1.5-5.3-4.5V51.9h6.3v17.8
						c0,0.5,0.3,0.8,0.9,0.8h1.5c0.6,0,0.9-0.3,0.9-0.8V51.9z"/>
				</g>
			</g>
		</g>
	</g>
</g>
<g>
	
		<image style="overflow:visible;opacity:0.42;" width="29" height="36" xlink:href="DFED7EF30B6FB004.png"  transform="matrix(1 0 0 1 188 272)">
	</image>
	<g>
		<g>
			<g transform="translate(142.647719, 224.888144)">
				<g>
					<path class="st5" d="M49.3,51.9h10.6c3.5,0,5.3,1.5,5.3,4.5v14.1c0,3-1.8,4.5-5.3,4.5H49.3V51.9z M58.9,70V56.8
						c0-0.5-0.3-0.8-0.9-0.8h-2.4v14.8H58C58.6,70.8,58.9,70.6,58.9,70z"/>
				</g>
			</g>
		</g>
	</g>
</g>
<g>
	
		<image style="overflow:visible;opacity:0.42;" width="27" height="36" xlink:href="DFED7EF30B6FB007.png"  transform="matrix(1 0 0 1 212 272)">
	</image>
	<g>
		<g>
			<g transform="translate(160.641637, 224.888144)">
				<g>
					<path class="st5" d="M61.3,70.5h7.9V75H55v-23h13.8v4.5h-7.5v4.7h6.5v4.5h-6.5V70.5z"/>
				</g>
			</g>
		</g>
	</g>
</g>
<g>
	
		<image style="overflow:visible;opacity:0.42;" width="42" height="36" xlink:href="DFED7EF30B6FB005.png"  transform="matrix(1 0 0 1 232 272)">
	</image>
	<g>
		<g>
			<g transform="translate(176.483902, 224.888144)">
				<g>
					<path class="st5" d="M82.2,51.9h6.2l-4.9,23h-7.2l-2.5-13.8L71.3,75h-7.2l-4.9-23h6.5l1.9,15.5l3.1-15.5h6.1L80,67.4L82.2,51.9
						z"/>
				</g>
			</g>
		</g>
	</g>
</g>
<g>
	
		<image style="overflow:visible;opacity:0.42;" width="28" height="36" xlink:href="DFED7EF30B6FB00B.png"  transform="matrix(1 0 0 1 268 272)">
	</image>
	<g>
		<g>
			<g transform="translate(202.734811, 224.888144)">
				<g>
					<path class="st5" d="M74.2,51.9h5.3c3.5,0,5.3,1.5,5.3,4.5v14.1c0,3-1.8,4.5-5.3,4.5h-5.3c-3.5,0-5.3-1.5-5.3-4.5V56.4
						C68.9,53.4,70.7,51.9,74.2,51.9z M78.5,69.7V57.2c0-0.5-0.3-0.8-0.9-0.8h-1.5c-0.6,0-0.9,0.3-0.9,0.8v12.5
						c0,0.5,0.3,0.8,0.9,0.8h1.5C78.2,70.5,78.5,70.2,78.5,69.7z"/>
				</g>
			</g>
		</g>
	</g>
</g>
<g>
	
		<image style="overflow:visible;opacity:0.42;" width="30" height="36" xlink:href="DFED7EF30B6FB00C.png"  transform="matrix(1 0 0 1 291 272)">
	</image>
	<g>
		<g>
			<g transform="translate(220.379079, 224.888144)">
				<g>
					<path class="st5" d="M81.2,66.8V75h-6.3v-23h10.6c3.5,0,5.3,1.5,5.3,4.5v6c0,2.3-1,3.7-3.1,4.2L92,75h-6.8l-3.7-8.2H81.2z
						 M83.6,56.4h-2.5v6.1h2.5c0.6,0,0.9-0.3,0.9-0.8v-4.5C84.5,56.7,84.2,56.4,83.6,56.4z"/>
				</g>
			</g>
		</g>
	</g>
</g>
<g>
	
		<image style="overflow:visible;opacity:0.42;" width="29" height="36" xlink:href="DFED7EF30B6FB00F.png"  transform="matrix(1 0 0 1 313 272)">
	</image>
	<g>
		<g>
			<g transform="translate(237.969558, 224.888144)">
				<g>
					<path class="st5" d="M94.6,51.9v4.5h-4.4V75h-6.3V56.4h-4.4v-4.5H94.6z"/>
				</g>
			</g>
		</g>
	</g>
</g>
<g>
	
		<image style="overflow:visible;opacity:0.42;" width="30" height="36" xlink:href="5D535920A7246FCB.png"  transform="matrix(1 0 0 1 335 272)">
	</image>
	<g>
		<g>
			<g transform="translate(253.354593, 224.888144)">
				<g>
					<path class="st5" d="M96.6,51.9h6.2v23h-6.2v-9.1h-4.5V75h-6.2v-23h6.2v9.4h4.5V51.9z"/>
				</g>
			</g>
		</g>
	</g>
</g>
<g>
	
		<image style="overflow:visible;opacity:0.42;" width="23" height="29" xlink:href="5D535920A7246FC9.png"  transform="matrix(1 0 0 1 140 313)">
	</image>
	<g>
		<g>
			<g transform="translate(108.417287, 250.121688)">
				<g>
					<path class="st6" d="M38,83.4l0.2,0l0.6,0l0.1-0.1l0.1-0.2l0.1-0.1l0.1-0.3l0.1-0.3l0.2-0.4l0.1-0.3l0.1-0.2l0-0.2l0.2-0.3
						l0.1-0.2h0.6l1,0l0.4,0l0.5,0l0,0.2v1.1l0,0.2l0,0.2l0,0.4l0,0.2l0.1,0.1h0.3l0.3,0l0.2,0l0.2,0l0.3,0h0.2l0.5,0h0.3l0.2,0
						l0.2,0c0.1,0,0.2,0,0.2,0c0.1-0.1,0.1-0.3,0.1-0.4v-0.5l0-0.5v-0.2l0-0.2l0-0.3V81l0-0.2l0-0.3v-0.1l0-0.9l0-0.1l0-0.3l0-0.3
						l0-0.4v-0.2l0-1v-0.7l0-0.2l0-0.3V75l-0.1-0.2l0-0.4v-0.1l0-0.3l0-0.1l0-0.3v-0.5l0-0.3v-0.5l0-0.2l0-0.4v-0.3l0-0.5l0-0.3
						v-0.3l0-0.8v-0.4l0-0.1v-0.5l-0.1-1L45,67.4l-0.1-0.1h-0.4l-0.2,0l-0.2,0H44l-0.4,0h-0.4l-0.2,0l-0.4,0h-0.2l-0.2,0L42,67.6
						L42,67.7l-0.1,0.2l-0.2,0.4l-0.2,0.3L41.4,69l0,0.1l-0.1,0.1l-0.1,0.2l0,0.2l0,0.1L41,69.9l0,0.2l-0.3,0.6l-0.1,0.2l-0.1,0.2
						l-0.1,0.1l-0.1,0.3L40.1,72L40,72.2l-0.1,0.2l-0.1,0.3L39.6,73l0,0.1l-0.1,0.3l-0.1,0.1l-0.1,0.3L39.3,74l-0.1,0.3L39,74.6
						l-0.2,0.3l-0.1,0.2l-0.2,0.6l-0.1,0.1l-0.1,0.3l-0.1,0.1l-0.1,0.2l0,0.1L38.1,77l0,0.2l-0.1,0.3l-0.1,0.2l-0.1,0.2l0,0.1
						l-0.2,0.3l-0.1,0.2l-0.1,0.3l-0.1,0.1l0,0.1l0,0.1l-0.1,0.3L37,79.6l0,0.1l-0.2,0.4l-0.1,0.3L36.4,81l-0.1,0.3l-0.1,0.3
						L36,82.2l-0.2,0.3l-0.1,0.3l0,0.1l-0.1,0.2l0.1,0.2l0.2,0l1.7,0l0.2,0L38,83.4z M41.8,77.9l-0.2,0l-0.2,0h-0.2L41,77.7l0.1-0.1
						l0-0.2l0.1-0.2l0.1-0.4l0.1-0.2l0.1-0.3l0-0.2l0.1-0.5l0.1-0.2l0.1-0.2l0.1-0.2l0.1-0.1l0-0.2l0.1-0.2l0.1-0.2l0.1-0.4l0.1-0.2
						l0.1-0.4l0.1-0.3l0.2-0.1l0,0.5l0,0.8l0,0.9l0,0.5l0,0.2v0.4l0,0.2v0.6l0,0.2l0,0.2l0,0.3l-0.1,0.1H41.8z"/>
				</g>
			</g>
		</g>
	</g>
</g>
<g>
	
		<image style="overflow:visible;opacity:0.42;" width="20" height="29" xlink:href="5D535920A7246FCF.png"  transform="matrix(1 0 0 1 158 313)">
	</image>
	<g>
		<g>
			<g transform="translate(121.33817, 250.121688)">
				<g>
					<path class="st6" d="M43.6,83.4h0.6l0.2-0.1l0.1-0.2l0-0.2l0.1-0.3l0-0.3l0.1-0.3l0.1-0.6l0.1-0.2v-0.1l0-0.3l0.1-0.3l0.1-0.3
						V80l0.1-0.3l0-0.2l0.1-0.3l0-0.2l0.1-0.2v-0.3l0-0.1l0-0.3v-0.2l0.1-0.3v-0.2l0.1-0.3l0.1-0.3l0-0.3l0.1-0.3v-0.2l0.1-0.2
						l0.1-0.3l0.1-0.7l0.1-0.2l0-0.3v-0.2l0-0.3v-0.2l0.1-0.2l0.1-0.3l0-0.1l0.2-0.9l0-0.2l0-0.3l0-0.2l0-0.3l0-0.1l0-0.2l0.1-0.6
						l0-0.1v-0.2l0-0.1v-0.2l0.1-0.2l0-0.3l0.1-0.1v-0.2l0.1-0.1l0-0.1l0-0.2l0.1-0.1v-0.3l0-0.1l-0.1-0.2l-0.2-0.1l-0.2,0h-1.2
						l-0.2,0h-0.3l-0.2,0l-0.4,0l-0.1,0l-0.1,0.1L44,67.5l-0.2,0.2l0,0.2l0,0.1l0,0.3l-0.1,0.2l-0.1,0.2l0,0.3l0,0.1l0,0.1l-0.1,0.3
						L43.4,70l0,0.1l0,0.3l0,0.2l0,0.2l-0.1,0.3l0,0.2l-0.1,0.3l0,0.1L43.1,72l0,0.2l0,0.1l0,0.3l-0.1,0.2v0.3l-0.1,0.5l-0.1,0.3
						l-0.1,0.3l0,0.3v0.3l-0.1,0.2l0,0.3v0.2l-0.1,0.3v0.3l0,0.3l0,0.1l0,0.2l0,0.1V77l0,0.4l-0.2,0.5l0,0.2l0,0.1l0,0.1l0,0.2v0.1
						l0,0.3l-0.1,0.4l0,0.2l-0.1,0.2l-0.1,0.4l0,0.1l-0.1,0.3l0,0.1l0,0.2l0,0.2l-0.1,0.3l0,0.2l0,0.3l0,0.1l0,0.4l-0.1,0.3l0,0.4
						l0.2,0.2l0.2,0l0.2,0l0.1,0l0.3,0l0.1,0h0.2l0.3,0h0.7L43.6,83.4z"/>
				</g>
			</g>
		</g>
	</g>
</g>
<g>
</g>
<g>
	
		<image style="overflow:visible;opacity:0.42;" width="24" height="29" xlink:href="5D535920A7246FCA.png"  transform="matrix(1 0 0 1 182 313)">
	</image>
	<g>
		<g>
			<g transform="translate(140.193694, 250.121688)">
				<g>
					<path class="st6" d="M48.6,83.4l0.2,0l0.6,0l0.1-0.1l0.1-0.2l0.1-0.1l0.1-0.3l0.1-0.3l0.2-0.4l0.1-0.3l0.1-0.2l0-0.2l0.2-0.3
						l0.1-0.2h0.6l1,0l0.4,0l0.5,0l0,0.2v1.1l0,0.2l0,0.2l0,0.4l0,0.2l0.1,0.1h0.3l0.3,0l0.2,0l0.2,0l0.3,0h0.2l0.5,0h0.3l0.2,0
						l0.2,0c0.1,0,0.2,0,0.2,0c0.1-0.1,0.1-0.3,0.1-0.4v-0.5l0-0.5v-0.2l0-0.2l0-0.3V81l0-0.2l0-0.3v-0.1l0-0.9l0-0.1l0-0.3l0-0.3
						l0-0.4v-0.2l0-1v-0.7l0-0.2l0-0.3V75l-0.1-0.2l0-0.4v-0.1l0-0.3l0-0.1l0-0.3v-0.5l0-0.3v-0.5l0-0.2l0-0.4v-0.3l0-0.5l0-0.3
						v-0.3l0-0.8v-0.4l0-0.1v-0.5l-0.1-1l-0.2-0.1l-0.1-0.1h-0.4l-0.2,0l-0.2,0h-0.2l-0.4,0h-0.4l-0.2,0l-0.4,0h-0.2l-0.2,0
						l-0.1,0.3l-0.1,0.1l-0.1,0.2l-0.2,0.4l-0.2,0.3L52,69l0,0.1l-0.1,0.1l-0.1,0.2l0,0.2l0,0.1l-0.1,0.1l0,0.2l-0.3,0.6l-0.1,0.2
						L51,71.1l-0.1,0.1l-0.1,0.3L50.6,72l-0.1,0.1l-0.1,0.2l-0.1,0.3L50.2,73l0,0.1l-0.1,0.3L50,73.5l-0.1,0.3L49.9,74l-0.1,0.3
						l-0.1,0.4l-0.2,0.3l-0.1,0.2l-0.2,0.6l-0.1,0.1L49,76.2l-0.1,0.1l-0.1,0.2l0,0.1L48.7,77l0,0.2l-0.1,0.3l-0.1,0.2l-0.1,0.2
						l0,0.1l-0.2,0.3l-0.1,0.2L48,78.7l-0.1,0.1l0,0.1l0,0.1l-0.1,0.3l-0.1,0.2l0,0.1l-0.2,0.4l-0.1,0.3L47,81l-0.1,0.3l-0.1,0.3
						l-0.2,0.7l-0.2,0.3l-0.1,0.3l0,0.1l-0.1,0.2l0.1,0.2l0.2,0l1.7,0l0.2,0L48.6,83.4z M52.4,77.9l-0.2,0l-0.2,0h-0.2l-0.2-0.1
						l0.1-0.1l0-0.2l0.1-0.2l0.1-0.4l0.1-0.2l0.1-0.3l0-0.2l0.1-0.5l0.1-0.2l0.1-0.2l0.1-0.2l0.1-0.1l0-0.2l0.1-0.2l0.1-0.2l0.1-0.4
						l0.1-0.2l0.1-0.4l0.1-0.3l0.2-0.1l0,0.5l0,0.8l0,0.9l0,0.5l0,0.2v0.4l0,0.2v0.6l0,0.2l0,0.2l0,0.3l-0.1,0.1H52.4z"/>
				</g>
			</g>
		</g>
	</g>
</g>
<g>
	
		<image style="overflow:visible;opacity:0.42;" width="24" height="29" xlink:href="5D535920A7246FD5.png"  transform="matrix(1 0 0 1 202 313)">
	</image>
	<g>
		<g>
			<g transform="translate(153.114577, 250.121688)">
				<g>
					<path class="st6" d="M56,83.5h0.5l0.3,0h0.5l0.5-0.1l0.1,0l0.2,0l0.3-0.1l0.1-0.1l0.4-0.1l0.1-0.1l0.3-0.1l0.2-0.1l0.2-0.1
						l0.2-0.2l0.2-0.2l0.1-0.2l0.1-0.2l0.1-0.2l0.1-0.1l0.1-0.3l0.1-0.1l0.2-0.3l0.1-0.3l0.1-0.1l0.1-0.4l0.1-0.3l0.1-0.3l0-0.2
						l0-0.1v-0.2l0-0.2l0.1-0.2l0-0.2v-0.1l0.1-0.3l0.1-0.3v0l0.1-0.3l0-0.2l0.1-0.3l0.1-0.3l0-0.3l0-0.3l0.1-0.2l0-0.3v-0.2
						l0.1-0.3l0-0.3l0-0.3l0-0.1l0.1-0.3v-0.1l0.1-0.4l0.2-0.5l0-0.2l0-0.1l0-0.1l0-0.2V72l0.1-0.3l0-0.2l0.1-0.2l0-0.2l0.1-0.2
						v-0.1l0.1-0.3l0-0.1l0.1-0.3l0-0.1l0-0.2l0-0.2l0.1-0.3l0-0.2l0.1-0.3l0-0.2l0-0.4l0.1-0.3l0-0.4l-0.2-0.2l-0.2,0l-0.2,0
						l-0.2,0l-0.2,0l-0.2,0h-0.2l-0.1,0h-0.2l-0.7,0l-0.2,0h-0.1l-0.7,0l-0.1,0.2l0,0.2l-0.1,0.3l-0.1,0.3l-0.1,0.3l0,0.1l0,0.3
						l0,0.1l-0.1,0.2l0,0.1l-0.1,0.6l-0.1,0.3l0,0.2L59.7,71l0,0.2l-0.1,0.3l0,0.2L59.5,72v0.3l0,0.1l0,0.3v0.2l-0.1,0.3l0,0.2
						l-0.1,0.3l0,0.3l-0.1,0.6v0.2L59,75.1l0,0.1l0,0.3L58.8,76l0,0.2l0,0.3l0,0.2l-0.1,0.2l0,0.2l0,0.2l0,0.2l0,0.1l0,0.2l0,0.1
						l-0.1,0.3l-0.1,0.5l0,0.1l0,0.2L58,79.3l-0.2,0.4l-0.1,0.1L57.6,80l-0.2,0.2l-0.5,0.1l-0.5-0.1l-0.2-0.1l-0.2-0.3l0-0.3v-0.3
						l0-0.4l0-0.2l0-0.1l0.1-0.8l0.1-0.3l0-0.3l0.1-0.5l0.1-0.8l0-0.3l0.1-0.3v-0.3l0.1-0.3l0-0.1l0-0.2l0-0.2l0-0.2l0.1-0.2
						l-0.1-0.3l0-0.1l0.1-0.3V73l0-0.2l0-0.2l0-0.2l0.1-0.1l0-0.1l0-0.4l0.1-0.3l0-0.2l0.1-0.3l0-0.2v-0.2l0-0.2l0-0.3l0.1-0.3v-0.1
						l0-0.1l0-0.2l0-0.2l0.1-0.2l0-0.2l0-0.3l0.1-0.3v-0.3l0-0.4l-0.2-0.2l-0.4,0l-0.2,0l-0.5,0l-1,0l-0.2,0H55l-0.4,0l-0.1,0.1
						l-0.1,0.2l-0.1,0.3l0,0.3l0,0.2l-0.1,0.1l-0.1,0.3l-0.1,0.6L54,69.6v0.2l-0.1,0.3v0.2l0,0.2l-0.1,0.3l0,0.2l0,0.2l-0.1,0.3
						l0,0.1v0.1l0,0.3l-0.1,0.1l-0.1,0.6L53.4,73l0,0.3v0.2l-0.1,0.3l-0.1,0.3l0,0.3l-0.1,0.3V75l0,0.2L53,75.4l0,0.2l0,0.2L53,76
						l0,0.1l0,0.2l-0.1,0.3v0.3l0,0.2l0,0.3l0,0.4l0,0.3l-0.1,0.6l0,0.2l0,0.8l0,0.1l0.1,0.8l0,0.3l0.1,0.4l0.2,0.3l0.2,0.4l0,0.1
						l0.1,0.2l0.1,0.1l0.1,0.2l0.2,0.2l0.5,0.3l0.1,0.1l0.1,0.1l0.4,0.1l0.1,0l0.1,0L56,83.5z"/>
				</g>
			</g>
		</g>
	</g>
</g>
<g>
	
		<image style="overflow:visible;opacity:0.42;" width="22" height="29" xlink:href="5D535920A7246FD6.png"  transform="matrix(1 0 0 1 221 313)">
	</image>
	<g>
		<g>
			<g transform="translate(167.104966, 250.121688)">
				<g>
					<path class="st6" d="M58.6,83.4l0.3-0.1h2l0.3-0.1l0.1-0.1l0.1-0.3l0-0.3l0.1-0.6l0.1-0.5l0-0.2l0.1-0.5l0.1-0.5l0.1-0.3l0-0.2
						l0.1-0.3L62,79l0.1-0.3l0-0.2l0-0.1l0-0.2l0.1-0.3l0-0.2l0.1-0.1l0-0.1v-0.2l0-0.2l0.1-0.4l0.1-0.3v-0.1l0.1-0.1l0-0.3l0.1-0.2
						l0.1-0.3l0-0.3v-0.2l0.1-0.1l0.1-0.3l0-0.2l0.1-0.4l0.1-0.3v-0.2l0-0.1l0-0.3V73l0.1-0.3l0.1-0.3l0-0.1l0.1-0.2l0.1-0.4l0-0.2
						l0-0.3l0-0.1v-0.1l0.1-0.2l0-0.1l0-0.1l0.2,0l1,0H65l0.2,0h0.3l0.2,0l0.2,0l0.1-0.2l0-0.3l0-0.2l0.1-0.3l0-0.3l0-0.1l0-0.2
						l0-0.3v-0.1l0-0.2l0-0.1V68l0.1-0.2l0-0.2v-0.1l0-0.2l-0.2,0l-0.3,0h-1.4l-0.2,0l-0.5,0l-0.4,0l-1.5,0h-0.5l-0.2,0h-1.7l-0.2,0
						h-0.2l-0.1,0h-0.6l-0.2,0l-0.2,0.2l-0.1,0.2l0,0.1v0.3L58,68.3l-0.1,0.3l0,0.3l0,0.1l-0.1,0.3l0,0.1v0.2l-0.1,0.2l0,0.3
						l0.1,0.2l0.2,0.1h0.2l0.2,0h0.2l0.2,0l0.3,0h1.2l0,0.4l-0.1,0.4l0,0.2l-0.1,0.3v0.1l0,0.2v0.1l0,0.1l-0.1,0.4l0,0.2l0,0.2v0.2
						l0,0.1v0.2l-0.1,0.2l0,0.2l-0.1,0.3l0,0.1v0.2l-0.1,0.1l0,0.2V75l-0.1,0.2v0.3l0,0.1l-0.1,0.3l0,0.2l-0.1,0.5L59,76.9l0,0.2
						l0,0.1l0,0.2l-0.1,0.2l0,0.3l0,0.1l0,0.3l0,0.2l0,0.1l-0.1,0.4l-0.1,0.3v0.2l-0.1,0.5l0,0.2l0,0.2l-0.1,0.3v0.2l0,0.3l0,0.1
						l0,0.4l-0.1,0.1l-0.1,0.5l0,0.5L58,83.2l0.2,0.2h0.2L58.6,83.4z"/>
				</g>
			</g>
		</g>
	</g>
</g>
<g>
	
		<image style="overflow:visible;opacity:0.42;" width="23" height="29" xlink:href="5D535920A7246FD7.png"  transform="matrix(1 0 0 1 236 313)">
	</image>
	<g>
		<g>
			<g transform="translate(179.059853, 250.121688)">
				<g>
					<path class="st6" d="M65.2,83.7l0.5-0.1l0.3-0.1l0.1,0l0.3-0.1l0.2-0.1l0.1,0l0.5-0.2l0.1-0.1l0.3-0.2l0.3-0.2l0.1-0.1l0.1-0.1
						l0.3-0.3l0-0.1l0.1-0.1l0.1-0.1l0.2-0.3l0.1-0.2l0.2-0.4l0.2-0.3l0-0.2l0.1-0.2l0.1-0.2v-0.2l0.1-0.3l0.1-0.2l0-0.3l0.1-0.1
						l0.1-0.3l0-0.1l0.2-0.8l0.1-0.1l0-0.3l0.1-0.1v-0.2l0.1-0.4l0.1-0.1l0.1-0.3l0-0.3l0.1-0.3l0-0.3l0.1-0.3l0-0.3l0.1-0.2l0-0.2
						l0-0.4l0-0.1l0-0.4l0-0.4l0.1-0.3l0-0.1v-0.2l0-0.1l0-0.1l0-0.2l0-0.3v-0.2l0-0.3l0-0.1l0-0.3v-0.2l0-0.2l0-0.4l-0.1-0.3
						L71,69.2l0-0.1l-0.1-0.1l-0.1-0.3l-0.1-0.1l-0.1-0.1l-0.2-0.2l-0.2-0.2L70,67.7l-0.2-0.1l-0.4-0.3L69,67.2l-0.1,0l-0.2,0
						l-0.2-0.1l-0.4,0l-0.2,0l-0.1,0l-0.4,0l-0.3,0l-0.3,0l-0.4,0.1l-0.2,0l-0.3,0.1l-0.1,0l-0.4,0.1L65,67.4l-0.3,0.2l-0.2,0.1
						l-0.2,0.1L64.1,68l-0.3,0.4l-0.1,0.1l-0.2,0.1l-0.2,0.3l-0.2,0.3L63,69.3l0,0.2l-0.2,0.3l-0.1,0.2l-0.1,0.3l-0.1,0.3l-0.1,0.3
						L62.3,71l-0.1,0.3l0,0.3L62,71.7l-0.1,0.6l0,0.3l0,0.1l-0.1,0.2l0,0.3v0.3l0,0.2l-0.1,0.2l0,0.1l-0.1,0.2v0.1l0,0.2l-0.1,0.1
						v0.2l-0.1,0.3v0.3l-0.1,0.3l-0.1,0.4l0,0.2l-0.1,0.3l0.1,0.1L61.1,77v0.2l0,0.3v0.2l-0.1,0.3l-0.1,0.5v0.1l0,0.2L60.8,79v0.4
						l0,0.2l0.1,0.5l0,0.1l0,0.3l0,0.1l0,0.2l0.1,0.2l0,0.1l0.1,0.2v0.1l0.2,0.3l0.1,0.2l0.1,0.1l0.1,0.1l0.1,0.1l0.3,0.4l0.4,0.4
						l0.3,0.2l0.2,0.1l0.3,0.1l0.2,0l0.5,0.1l0.2,0l0.2,0l0.3,0L65.2,83.7z M65.1,80.6l-0.1,0l-0.2,0l-0.2-0.1l-0.1-0.1l-0.1-0.2
						l-0.1-0.2v-0.6l-0.1-0.1l0.1-0.2l0-0.3l-0.1-0.1l0.1-0.2v-0.2l0.1-0.3v-0.2l0-0.2v-0.2l0-0.2l0-0.1l0-0.2l0-0.2l0.1-0.3
						l0.1-0.2l0-0.2l0-0.1v-0.2l0-0.3l0.1-0.1l0.1-0.4l0.1-0.2l0.1-0.3l0-0.2l0-0.2l0.1-0.4l0.1-0.3l0.1-0.3l0-0.1l0.1-0.3l0-0.2
						v-0.1l0.1-0.5l0-0.2l0-0.1l0.1-0.3l0.1-0.1l0.1-0.3l0.2-0.2l0.2-0.2l0.4-0.1l0.2-0.1l0.4,0l0.4,0.2l0.2,0.2l0.1,0.1l0.1,0.5
						l0,0.3l0,0.3l0,0.4v0.3l0,0.2l-0.1,0.3l0,0.2l0,0.3l0,0.2l0,0.2l0,0.2l-0.1,0.3l-0.1,0.3l0,0.4l-0.1,0.1l0,0.4l-0.1,0.2
						l-0.1,0.2l0,0.5l-0.1,0.4L67,76.8l0,0.1v0.2L67,77.2l0,0.2l-0.1,0.3l-0.1,0.2l0,0.3l-0.1,0.2l0,0.3l-0.1,0.2l-0.1,0.3v0.2
						l0,0.2l-0.1,0.3l-0.1,0.3l-0.3,0.2l-0.2,0.1l-0.3,0.1H65.1z"/>
				</g>
			</g>
		</g>
	</g>
</g>
<g>
	
		<image style="overflow:visible;opacity:0.42;" width="28" height="29" xlink:href="5D535920A7246FD9.png"  transform="matrix(1 0 0 1 254 313)">
	</image>
	<g>
		<g>
			<g transform="translate(192.653487, 250.121688)">
				<g>
					<path class="st6" d="M66.9,83.4l0.2,0l0.1,0h0.7l0.3-0.1l0.1-0.2l0-0.2l0-0.1l0.1-0.2l0-0.3v-0.3l0.1-0.3l0-0.1l0.1-0.3l0-0.4
						l0-0.2l0-0.2l0.1-0.3V80l0.1-0.3l0-0.3v-0.2l0-0.3l0-0.3l0-0.1l0-0.1L69,78l0-0.2v-0.4l0-0.1l0-0.1l0.1-0.9l0.1-0.4v-0.3l0.1-1
						h0.1l0.1,1.1l0,0.1l0,0.2l0.1,0.3l0,0.5l0.1,1l0.1,0.3l0.1,0.3l0,0.1l0,0.5l0.1,0.4l0,0.2l0,0.3l0,0.2l0,0.2l0.1,0.4l0,0.1
						l0.3,0.1l0.2,0l0.4,0.1l0.5,0l0.2,0h0.1l0.2,0l0.1-0.2l0.1-0.3l0.6-1.4l0.5-0.9l0.3-0.7l0.5-1.2l0.7-1.4h0.1l-0.1,0.6l0,0.1
						l0,0.1l-0.1,0.7l-0.2,0.9l0,0.2v0.1l0,0.1l-0.1,0.2l0,0.2l0,0.1l0,0.3l-0.1,0.2l0,0.3v0.3l-0.1,0.3l-0.1,0.3l0,0.3l-0.1,0.3
						L74.3,81l0,0.4l0,0.3l0,0.2l0,0.4l0,0.2L74,82.7l0,0.1l0,0.1l0,0.2l0.2,0.1h0.2l0.1,0l0.3,0h1l0.7,0h0.2l0.3-0.1l0.1-0.2
						l0.1-0.3l0.1-0.3l0.1-0.3l0-0.2l0.1-0.3v-0.1l0-0.2l0-0.3l0-0.1l0-0.2l0.1-0.3l0-0.2l0-0.3l0-0.1l0-0.3l0-0.2l0-0.2l0.1-0.4
						l0-0.1l0.1-0.4l0.1-0.3v-0.1l0.1-0.3l0-0.4L78.1,77l0.1-0.1l0.1-0.3l0-0.1l0-0.2l0-0.1l0-0.1v-0.2l0.1-0.2l0-0.4l0-0.2l0.1-0.3
						l0-0.2l0-0.1l0.1-0.3l0.1-0.3l0.1-0.3l0-0.1l0-0.2v-0.1l0-0.2l0.1-0.2l0-0.4l0-0.3l0-0.1l0.2-0.4v-0.4l0.1-0.1l0-0.1l0-0.3
						l0.1-0.1l0.1-0.3v-0.2l0.1-0.3l0-0.2l0.1-0.1V69l0-0.1l0-0.3l0-0.2l0-0.1l0-0.3l0.1-0.1l0.1-0.3l0-0.2l-0.2-0.1l-0.5,0l-0.8,0
						l-0.4,0l-0.5,0l-0.6,0l-0.1,0.2l-0.2,0.2L76.5,68l-0.1,0.1l0,0.1l-0.1,0.2l-0.1,0.1l-0.1,0.3l-0.2,0.2l-0.2,0.3l-0.1,0.3
						l-0.3,0.6l-0.1,0.1l-0.5,0.9l-0.2,0.4l0,0.1l-0.1,0.1l-0.2,0.3l-0.1,0.3l-0.1,0.1l-0.2,0.3l-0.1,0.2l-0.1,0.2l-0.2,0.3v0.1
						l-0.1,0.2l-0.1,0.2l-0.2,0.3L72.8,75l-0.2,0.4l-0.2,0.2l-0.3,0.6h-0.1L72,75.7l0-0.3l0-0.1v-0.1l0-0.2v-0.1l-0.1-0.3l-0.1-0.8
						l-0.1-0.3v-0.2l-0.1-0.3l0-0.3v-0.1l0-0.3l-0.1-0.1l0-0.2v-0.2l0-0.3l0-0.1l-0.1-0.5v-0.2l0-0.1l0-0.3l0-0.3l-0.1-0.4l0-0.4
						L71,68.7l0-0.1l-0.1-0.3l0-0.2l-0.1-0.6l-0.1-0.2h-0.3l-0.5,0l-0.4,0h-0.4l-0.4,0l-0.4,0H68l-0.2,0l-0.1,0.3v0.1l-0.1,0.2
						l0,0.2l0,0.2l0,0.2l-0.1,0.3l0,0.2l-0.1,0.2l0,0.3l0,0.3V70l-0.1,0.7l0,0.1V71l0,0.1l0,0.2l-0.1,0.3l-0.1,0.5l0,0.1l0,0.3
						l-0.1,0.1l0,0.3l0,0.3l-0.1,0.3l-0.1,0.2l0,0.1l0,0.3l0,0.2l0,0.1v0.1l0,0.3l0,0.3l-0.1,0.2l-0.1,0.2l0,0.1l-0.1,0.3l0,0.1v0.2
						L66,76.7l0,0.3v0.2l-0.1,0.4l0,0.4l0,0.3l0,0.1l0,0.3l0,0.1l0,0.2l-0.1,0.5l0,0.3l0,0.2l-0.1,0.2v0.2l0,0.2l-0.1,0.3l0,0.2
						l0,0.3l-0.1,0.2l0,0.3l0,0.2l-0.1,0.2l0,0.2l0,0.1l0,0.3v0.2l0.1,0.1l0.1,0.1l0.3,0h0.6L66.9,83.4z"/>
				</g>
			</g>
		</g>
	</g>
</g>
<g>
	
		<image style="overflow:visible;opacity:0.42;" width="23" height="29" xlink:href="5D535920A7246FDB.png"  transform="matrix(1 0 0 1 274 313)">
	</image>
	<g>
		<g>
			<g transform="translate(209.024374, 250.121688)">
				<g>
					<path class="st6" d="M71.5,83.4l0.2,0l0.6,0l0.1-0.1l0.1-0.2l0.1-0.1l0.1-0.3l0.1-0.3l0.2-0.4l0.1-0.3l0.1-0.2l0-0.2l0.2-0.3
						l0.1-0.2h0.6l1,0l0.4,0l0.5,0l0,0.2v1.1l0,0.2l0,0.2l0,0.4l0,0.2l0.1,0.1h0.3l0.3,0l0.2,0l0.2,0l0.3,0h0.2l0.5,0h0.3l0.2,0
						l0.2,0c0.1,0,0.2,0,0.2,0c0.1-0.1,0.1-0.3,0.1-0.4v-0.5l0-0.5v-0.2l0-0.2l0-0.3V81l0-0.2l0-0.3v-0.1l0-0.9l0-0.1l0-0.3l0-0.3
						l0-0.4v-0.2l0-1v-0.7l0-0.2l0-0.3V75L79,74.8l0-0.4v-0.1l0-0.3l0-0.1l0-0.3v-0.5l0-0.3v-0.5l0-0.2l0-0.4v-0.3l0-0.5l0-0.3v-0.3
						l0-0.8v-0.4l0-0.1v-0.5l-0.1-1l-0.2-0.1l-0.1-0.1h-0.4l-0.2,0l-0.2,0h-0.2l-0.4,0h-0.4l-0.2,0l-0.4,0h-0.2l-0.2,0l-0.1,0.3
						l-0.1,0.1l-0.1,0.2l-0.2,0.4L75,68.6L74.9,69l0,0.1l-0.1,0.1l-0.1,0.2l0,0.2l0,0.1l-0.1,0.1l0,0.2l-0.3,0.6l-0.1,0.2l-0.1,0.2
						l-0.1,0.1l-0.1,0.3L73.6,72l-0.1,0.1l-0.1,0.2l-0.1,0.3L73.2,73l0,0.1L73,73.4l-0.1,0.1l-0.1,0.3L72.8,74l-0.1,0.3l-0.1,0.4
						l-0.2,0.3l-0.1,0.2l-0.2,0.6l-0.1,0.1l-0.1,0.3l-0.1,0.1l-0.1,0.2l0,0.1L71.7,77l0,0.2l-0.1,0.3l-0.1,0.2l-0.1,0.2l0,0.1
						l-0.2,0.3L71,78.4l-0.1,0.3l-0.1,0.1l0,0.1l0,0.1l-0.1,0.3l-0.1,0.2l0,0.1l-0.2,0.4l-0.1,0.3L70,81l-0.1,0.3l-0.1,0.3l-0.2,0.7
						l-0.2,0.3l-0.1,0.3l0,0.1l-0.1,0.2l0.1,0.2l0.2,0l1.7,0l0.2,0L71.5,83.4z M75.3,77.9l-0.2,0l-0.2,0h-0.2l-0.2-0.1l0.1-0.1
						l0-0.2l0.1-0.2l0.1-0.4l0.1-0.2l0.1-0.3l0-0.2l0.1-0.5l0.1-0.2l0.1-0.2l0.1-0.2l0.1-0.1l0-0.2l0.1-0.2l0.1-0.2l0.1-0.4l0.1-0.2
						l0.1-0.4l0.1-0.3l0.2-0.1l0,0.5l0,0.8l0,0.9l0,0.5l0,0.2v0.4l0,0.2v0.6l0,0.2l0,0.2l0,0.3L76,77.9H75.3z"/>
				</g>
			</g>
		</g>
	</g>
</g>
<g>
	
		<image style="overflow:visible;opacity:0.42;" width="22" height="29" xlink:href="5D535920A7246FDE.png"  transform="matrix(1 0 0 1 294 313)">
	</image>
	<g>
		<g>
			<g transform="translate(221.945256, 250.121688)">
				<g>
					<path class="st6" d="M76.8,83.4l0.3-0.1h2l0.3-0.1l0.1-0.1l0.1-0.3l0-0.3l0.1-0.6l0.1-0.5l0-0.2l0.1-0.5l0.1-0.5l0.1-0.3l0-0.2
						l0.1-0.3l0.1-0.4l0.1-0.3l0-0.2l0-0.1l0-0.2l0.1-0.3l0-0.2l0.1-0.1l0-0.1v-0.2l0-0.2l0.1-0.4l0.1-0.3v-0.1l0.1-0.1l0-0.3
						l0.1-0.2l0.1-0.3l0-0.3v-0.2l0.1-0.1l0.1-0.3l0-0.2l0.1-0.4l0.1-0.3v-0.2l0-0.1l0-0.3V73l0.1-0.3l0.1-0.3l0-0.1l0.1-0.2
						l0.1-0.4l0-0.2l0-0.3l0-0.1v-0.1l0.1-0.2l0-0.1l0-0.1l0.2,0l1,0h0.2l0.2,0h0.3l0.2,0l0.2,0l0.1-0.2l0-0.3l0-0.2l0.1-0.3l0-0.3
						l0-0.1l0-0.2l0-0.3v-0.1l0-0.2l0-0.1V68l0.1-0.2l0-0.2v-0.1l0-0.2l-0.2,0l-0.3,0h-1.4l-0.2,0l-0.5,0l-0.4,0l-1.5,0h-0.5l-0.2,0
						h-1.7l-0.2,0h-0.2l-0.1,0h-0.6l-0.2,0l-0.2,0.2l-0.1,0.2l0,0.1v0.3l-0.1,0.1l-0.1,0.3l0,0.3l0,0.1L76,69.4l0,0.1v0.2L76,69.9
						l0,0.3l0.1,0.2l0.2,0.1h0.2l0.2,0h0.2l0.2,0l0.3,0h1.2l0,0.4l-0.1,0.4l0,0.2l-0.1,0.3v0.1l0,0.2v0.1l0,0.1l-0.1,0.4l0,0.2
						l0,0.2v0.2l0,0.1v0.2L78,73.7l0,0.2l-0.1,0.3l0,0.1v0.2l-0.1,0.1l0,0.2V75l-0.1,0.2v0.3l0,0.1l-0.1,0.3l0,0.2l-0.1,0.5
						l-0.1,0.3l0,0.2l0,0.1l0,0.2l-0.1,0.2l0,0.3l0,0.1l0,0.3l0,0.2l0,0.1l-0.1,0.4l-0.1,0.3v0.2l-0.1,0.5l0,0.2l0,0.2l-0.1,0.3v0.2
						l0,0.3l0,0.1l0,0.4l-0.1,0.1l-0.1,0.5l0,0.5l-0.1,0.3l0.2,0.2h0.2L76.8,83.4z"/>
				</g>
			</g>
		</g>
	</g>
</g>
<g>
	
		<image style="overflow:visible;opacity:0.42;" width="19" height="29" xlink:href="5D535920A7246FF2.png"  transform="matrix(1 0 0 1 309 313)">
	</image>
	<g>
		<g>
			<g transform="translate(233.900142, 250.121688)">
				<g>
					<path class="st6" d="M81.1,83.4h0.6l0.2-0.1l0.1-0.2l0-0.2l0.1-0.3l0-0.3l0.1-0.3l0.1-0.6l0.1-0.2v-0.1l0-0.3l0.1-0.3l0.1-0.3
						V80l0.1-0.3l0-0.2l0.1-0.3l0-0.2l0.1-0.2v-0.3l0-0.1l0-0.3v-0.2l0.1-0.3v-0.2l0.1-0.3l0.1-0.3l0-0.3l0.1-0.3v-0.2l0.1-0.2
						l0.1-0.3l0.1-0.7l0.1-0.2l0-0.3v-0.2l0-0.3v-0.2l0.1-0.2l0.1-0.3l0-0.1l0.2-0.9l0-0.2l0-0.3l0-0.2l0-0.3l0-0.1l0-0.2l0.1-0.6
						l0-0.1v-0.2l0-0.1v-0.2l0.1-0.2l0-0.3l0.1-0.1v-0.2l0.1-0.1l0-0.1l0-0.2l0.1-0.1v-0.3l0-0.1l-0.1-0.2l-0.2-0.1l-0.2,0h-1.2
						l-0.2,0h-0.3l-0.2,0l-0.4,0l-0.1,0l-0.1,0.1l-0.2,0.1l-0.2,0.2l0,0.2l0,0.1l0,0.3l-0.1,0.2l-0.1,0.2l0,0.3l0,0.1l0,0.1L81,69.7
						L80.9,70l0,0.1l0,0.3l0,0.2l0,0.2l-0.1,0.3l0,0.2l-0.1,0.3l0,0.1L80.6,72l0,0.2l0,0.1l0,0.3l-0.1,0.2v0.3l-0.1,0.5l-0.1,0.3
						l-0.1,0.3l0,0.3v0.3l-0.1,0.2l0,0.3v0.2l-0.1,0.3v0.3l0,0.3l0,0.1l0,0.2l0,0.1V77l0,0.4l-0.2,0.5l0,0.2l0,0.1l0,0.1l0,0.2v0.1
						l0,0.3l-0.1,0.4l0,0.2l-0.1,0.2l-0.1,0.4l0,0.1l-0.1,0.3l0,0.1l0,0.2l0,0.2l-0.1,0.3l0,0.2l0,0.3l0,0.1l0,0.4l-0.1,0.3l0,0.4
						l0.2,0.2l0.2,0l0.2,0l0.1,0l0.3,0l0.1,0H80l0.3,0H81L81.1,83.4z"/>
				</g>
			</g>
		</g>
	</g>
</g>
<g>
	
		<image style="overflow:visible;opacity:0.42;" width="23" height="29" xlink:href="5D535920A7246FF1.png"  transform="matrix(1 0 0 1 322 313)">
	</image>
	<g>
		<g>
			<g transform="translate(243.664275, 250.121688)">
				<g>
					<path class="st6" d="M86.8,83.7l0.5-0.1l0.3-0.1l0.1,0l0.3-0.1l0.2-0.1l0.1,0l0.5-0.2l0.1-0.1l0.3-0.2l0.3-0.2l0.1-0.1l0.1-0.1
						l0.3-0.3l0-0.1l0.1-0.1l0.1-0.1l0.2-0.3l0.1-0.2l0.2-0.4l0.2-0.3l0-0.2l0.1-0.2l0.1-0.2v-0.2l0.1-0.3l0.1-0.2l0-0.3l0.1-0.1
						l0.1-0.3l0-0.1l0.2-0.8l0.1-0.1l0-0.3l0.1-0.1v-0.2l0.1-0.4l0.1-0.1l0.1-0.3l0-0.3l0.1-0.3l0-0.3l0.1-0.3l0-0.3l0.1-0.2l0-0.2
						l0-0.4l0-0.1l0-0.4l0-0.4l0.1-0.3l0-0.1v-0.2l0-0.1l0-0.1l0-0.2l0-0.3v-0.2l0-0.3l0-0.1l0-0.3v-0.2l0-0.2l0-0.4l-0.1-0.3
						l-0.1-0.2l0-0.1l-0.1-0.1l-0.1-0.3l-0.1-0.1l-0.1-0.1l-0.2-0.2l-0.2-0.2l-0.1-0.1l-0.2-0.1l-0.4-0.3l-0.4-0.2l-0.1,0l-0.2,0
						l-0.2-0.1l-0.4,0l-0.2,0l-0.1,0l-0.4,0l-0.3,0l-0.3,0l-0.4,0.1l-0.2,0l-0.3,0.1l-0.1,0l-0.4,0.1l-0.3,0.1l-0.3,0.2l-0.2,0.1
						l-0.2,0.1L85.6,68l-0.3,0.4l-0.1,0.1L85,68.6l-0.2,0.3l-0.2,0.3l-0.1,0.1l0,0.2l-0.2,0.3l-0.1,0.2l-0.1,0.3L84,70.5l-0.1,0.3
						L83.8,71l-0.1,0.3l0,0.3l-0.1,0.1l-0.1,0.6l0,0.3l0,0.1l-0.1,0.2l0,0.3v0.3l0,0.2l-0.1,0.2l0,0.1l-0.1,0.2v0.1l0,0.2L83,74.6
						v0.2l-0.1,0.3v0.3l-0.1,0.3l-0.1,0.4l0,0.2l-0.1,0.3l0.1,0.1L82.6,77v0.2l0,0.3v0.2l-0.1,0.3l-0.1,0.5v0.1l0,0.2L82.4,79v0.4
						l0,0.2l0.1,0.5l0,0.1l0,0.3l0,0.1l0,0.2l0.1,0.2l0,0.1l0.1,0.2v0.1l0.2,0.3L83,82l0.1,0.1l0.1,0.1l0.1,0.1l0.3,0.4l0.4,0.4
						l0.3,0.2l0.2,0.1l0.3,0.1l0.2,0l0.5,0.1l0.2,0l0.2,0l0.3,0L86.8,83.7z M86.6,80.6l-0.1,0l-0.2,0l-0.2-0.1L86,80.4l-0.1-0.2
						l-0.1-0.2v-0.6l-0.1-0.1l0.1-0.2l0-0.3l-0.1-0.1l0.1-0.2v-0.2l0.1-0.3v-0.2l0-0.2v-0.2l0-0.2l0-0.1l0-0.2l0-0.2l0.1-0.3
						l0.1-0.2l0-0.2l0-0.1v-0.2l0-0.3l0.1-0.1l0.1-0.4l0.1-0.2l0.1-0.3l0-0.2l0-0.2l0.1-0.4l0.1-0.3l0.1-0.3l0-0.1l0.1-0.3l0-0.2
						v-0.1l0.1-0.5l0-0.2l0-0.1l0.1-0.3l0.1-0.1l0.1-0.3l0.2-0.2l0.2-0.2l0.4-0.1l0.2-0.1l0.4,0l0.4,0.2l0.2,0.2l0.1,0.1l0.1,0.5
						l0,0.3l0,0.3l0,0.4v0.3l0,0.2l-0.1,0.3l0,0.2l0,0.3l0,0.2l0,0.2l0,0.2l-0.1,0.3L89,74.4l0,0.4l-0.1,0.1l0,0.4l-0.1,0.2
						l-0.1,0.2l0,0.5l-0.1,0.4l-0.1,0.2l0,0.1v0.2l-0.1,0.1l0,0.2l-0.1,0.3l-0.1,0.2l0,0.3l-0.1,0.2l0,0.3l-0.1,0.2l-0.1,0.3v0.2
						l0,0.2l-0.1,0.3l-0.1,0.3l-0.3,0.2l-0.2,0.1l-0.3,0.1H86.6z"/>
				</g>
			</g>
		</g>
	</g>
</g>
<g>
	
		<image style="overflow:visible;opacity:0.42;" width="25" height="29" xlink:href="5D535920A7246FFE.png"  transform="matrix(1 0 0 1 340 313)">
	</image>
	<g>
		<g>
			<g transform="translate(257.257909, 250.121688)">
				<g>
					<path class="st6" d="M86.9,83.4h2.4l0.2-0.1l0.1-0.2l0.1-0.3l0.1-0.4l0-0.1V82l0-0.2l0.1-0.3l0.1-0.7l0-0.2l0-0.1l0-0.3
						l0.1-0.5l0.1-0.4l0-0.3l0-0.1l0-0.2l0.1-0.4l-0.1-0.1l0.1-0.3l0-0.1l0.1-0.9l0.2-1.1l0-0.6l0-0.4l0-0.2l0-0.5l0-0.6h0.1
						l0.1,0.9l0.1,0.8l0.1,0.6l0.1,0.7l0.1,0.6l0,0.4l0.1,0.5v0.4l0,0.1l0.1,0.3l0,0.1l0.1,0.3v0.1l0.1,0.4l0.1,0.2l0,0.4l0,0.3
						l0,0.1l0.1,0.5l0,0.1l0,0.5l0,0.1l0,0.3l0,0.1l0.1,0.3l0.2,0.4l0.2,0.2h0.4l0.3,0H94l0.1,0l0.2,0l0.2,0l0.4,0h0.1l0.2,0l0.3,0
						l0.2-0.2l0.2-0.3l0.1-0.8l0.1-0.3l0-0.2v-0.1l0.1-0.3v-0.4l0.1-0.3l0.1-0.2l0-0.3l0-0.3l0-0.2l0.1-0.3l0.1-0.2l0.1-0.2l0-0.3
						l0.1-0.3V78l0-0.1l0-0.2l0-0.1l0.1-0.4l0.1-0.3l0.1-0.1v-0.3l0-0.1l0-0.2l0-0.1l0-0.2l0-0.1l0-0.2l0-0.2l0-0.3l0.1-0.3l0-0.2
						l0.1-0.3l0-0.2l0-0.2l0-0.2l0.1-0.2l0.1-0.7l0.1-0.2v-0.3l0-0.2l0-0.2l0.1-0.2l0.1-0.4l0.1-0.4l0.1-0.5l0.1-0.2l0.1-0.4
						l0.1-0.2l0.1-0.6l0-0.3l0.1-0.5l0-0.2l0.1-0.3v-0.2l0-0.2l-0.1-0.1l-0.3-0.1l-0.3,0h-0.2l-0.5,0h-0.2l-0.1,0l-0.5,0L96,67.3
						l-0.1,0.1l-0.2,0.3l-0.1,0.5l-0.1,0.4l0,0.1v0.2l-0.1,0.2l0,0.2l-0.1,0.3l0,0.2l0,0.3l0,0.1l0,0.2l-0.1,0.3v0.1l-0.1,0.4l0,0.2
						L95,71.6v0.2l0,0.3v0.3l-0.1,0.3v0.1l0,0.3l0,0.1l0,0.3l0,0.2l0,0.1l0,0.1l-0.1,0.3v0.8l-0.1,0.5l-0.1,1.1v0.3l-0.1,0.5l0,0.5
						h-0.1l-0.1-0.5L94.2,77l0-0.3l0-0.2v-0.2l0-0.5L94,75.3l-0.1-0.6l0-0.2l0-0.3l0-0.4l-0.1-0.4l0-0.4l-0.1-0.3l0-0.2v-0.2
						L93.5,72v-0.1l-0.1-0.3l0-0.4l0-0.2l-0.1-0.2l-0.1-0.5l-0.1-0.3l-0.1-0.4L93,69.4L93,68.8l-0.1-0.3l0-0.2l0-0.3l-0.1-0.2l0-0.1
						l-0.1-0.2l-0.2-0.1H92l-0.3,0l-0.3,0l-0.4,0l-0.3,0h-0.2l-0.4,0l-0.3,0l-0.2,0.1l-0.1,0.2l-0.1,0.1l-0.1,0.4v0.2l-0.1,0.3
						L89,69.2l0,0.2l0,0.1l0,0.2l0,0.3l0,0.3l0,0.2l-0.1,0.2v0.1l-0.1,0.6l-0.1,0.1l0,0.2v0.3l-0.1,0.2l-0.1,0.2l0,0.3L88.3,73v0.2
						l-0.1,0.1v0.2l-0.1,0.2l0,0.2v0.3L88,74.4l0,0.2l-0.1,0.3l0,0.2l0,0.3l0,0.2l0,0.1L87.7,76v0.1l0,0.1l0,0.3l-0.1,0.1l0,0.2
						l0,0.3l-0.1,0.2l-0.1,0.2l0,0.3l-0.1,0.4l0,0.3l0,0.2l0,0.1l-0.1,0.3l0,0.1l0,0.3L87,79.7V80l0,0.2v0.1l-0.1,0.4l-0.1,0.5
						l-0.1,0.1l-0.1,0.3l0,0.2l-0.1,0.3l-0.1,0.4v0.4l0,0.2l0.1,0.3L86.9,83.4z"/>
				</g>
			</g>
		</g>
	</g>
</g>
</svg>
